<?xml version="1.0" encoding="UTF-8"?>
<svg height="1024" width="1536" xmlns="http://www.w3.org/2000/svg" version="1.1"><g data-h="1024.0" data-w="1536.0" data-cy="512.0" data-cx="768.0" data-part="background"><path d="M0,0C506.88,0,1013.76,0,1536,0c0,337.92,0,675.84,0,1024c-506.88,0-1013.76,0-1536,0C0,686.08,0,348.16,0,0Z" fill="#FDFDFD" /></g><g data-h="838.7" data-w="1234.4" data-cy="489.0" data-cx="746.9" data-part="part-1"><path d="M1165,401c1.84,.02,1.84,.02,4,1c1.69,1.89,3.15,3.71,4.63,5.75c.87,1.18,1.74,2.37,2.62,3.55c.44,.61,.89,1.22,1.35,1.85c1.4,1.85,2.84,3.64,4.31,5.43c.23,.29,.23,.29,1.41,1.74c.9,1.1,1.8,2.19,2.72,3.28c1.22,1.52,1.22,1.52,2.96,4.4c-.33,1.65-.66,3.3-1,5c-5.28,0-10.56,0-16,0c.01,1.22,.01,2.45,.02,3.7c.06,11.54,.11,23.07,.14,34.61c.01,5.93,.03,11.86,.07,17.79c.03,5.72,.05,11.45,.05,17.17c.01,2.19,.02,4.37,.04,6.55c.02,3.06,.02,6.12,.02,9.18c.01,.45,.01,.45,.03,2.72c-.03,6.42-1,11.93-4.8,17.3c-.48,.45-.95,.9-1.44,1.36c-.48,.46-.95,.92-1.43,1.39c-3.85,2.79-7.53,3.48-12.21,3.48c-1.09,.01-2.19,.01-3.32,.02c-1.19-.01-2.38-.01-3.61-.01c-1.94,0-3.87,.01-5.81,.01c-2.08,.01-4.15,.01-6.23,0c-4.33,0-8.67,.02-13,.03c-12.32,.05-24.63,.07-36.95,.08c-6.81,0-13.62,.02-20.42,.06c-4.31,.02-8.62,.02-12.92,.01c-3.31-.01-6.62,.02-9.92,.04c-1.2-.01-2.39-.02-3.62-.03c-1.09,.01-2.18,.02-3.31,.03c-.47,.01-.47,.01-2.87,.01c-3.35,.67-4.51,1.75-6.51,4.5c-.49,2.67-.49,2.67-.49,5.78c0,1.18-.01,2.36-.02,3.58c.01,.64,.01,.64,.04,3.91c0,1.38,0,2.75,0,4.13c-.01,2.96,0,5.93,.01,8.89c.03,4.69,.02,9.38,.01,14.07c-.02,11.66,0,23.31,.02,34.96c.02,9.05,.03,18.1,.01,27.16c-.01,4.65,0,9.31,.03,13.97c.01,2.9,0,5.81-.01,8.72c0,1.97,.02,3.95,.04,5.93c-.06,7.28-.76,12.32-5.64,17.9c-6.51,6.34-13.55,6.29-22.14,6.26c-1.13,0-2.25,.01-3.41,.01c-3.78,.01-7.55,.01-11.33,0c-2.7,0-5.41,.01-8.11,.02c-5.83,.01-11.66,.01-17.48,.01c-8.43,.01-16.85,.02-25.28,.04c-13.68,.03-27.35,.06-41.03,.07c-.82,0-1.64,.01-2.48,.01c-9.13,.01-18.27,.02-27.4,.03c-3.32,0-6.64,0-9.95,.01c-.41,0-.41,0-2.48,0c-13.63,.01-27.26,.04-40.89,.07c-8.41,.02-16.81,.03-25.22,.03c-5.76,0-11.52,.01-17.27,.02c-3.33,.01-6.65,.02-9.97,.01c-3.6,0-7.2,.01-10.8,.02c-1.06,0-2.11-.01-3.2-.01c-.48,0-.48,0-2.91,.02c-.83,0-1.66,0-2.52,0c-2.64,.47-3.49,1.31-5.13,3.38c-1.22,2.44-1.13,4.01-1.13,6.74c-.01,1-.01,2-.01,3.04c0,.55,0,.55,0,3.34c-.01,1.15-.01,2.31-.01,3.5c-.01,2.53-.02,5.05-.02,7.57c-.01,3.99-.02,7.99-.04,11.98c-.01,1.37-.01,2.73-.02,4.1c0,.69-.01,1.37-.01,2.08c-.04,9.29-.07,18.59-.09,27.89c0,6.27-.03,12.54-.07,18.8c-.01,3.32-.03,6.64-.02,9.95c0,3.71-.02,7.41-.05,11.12c.01,1.09,.01,2.18,.02,3.3c-.09,7.26-1.07,13-6.33,18.43c-.57,.36-1.14,.72-1.72,1.1c-.57,.38-1.13,.76-1.72,1.15c-3.67,1.87-7.13,2.04-11.21,2.04c-.55,0-.55,0-3.34,.01c-1.2,0-2.41,0-3.65,0c-1.95,.01-3.9,.01-5.85,.02c-2.1,0-4.2,.01-6.29,.01c-4.37,0-8.74,.02-13.11,.04c-1.5,.01-3,.01-4.49,.02c-.75,0-1.5,.01-2.27,.01c-10.17,.04-20.35,.07-30.52,.09c-6.86,0-13.73,.03-20.59,.07c-3.63,.02-7.27,.03-10.9,.02c-4.05,0-8.1,.02-12.14,.05c-1.21-.01-2.41-.01-3.65-.02c-1.11,.01-2.21,.02-3.34,.04c-.96,0-1.92,0-2.9,0c-3.27,.66-4.47,1.96-6.53,4.51c-.5,2.04-.5,2.04-.5,4.21c-.01,.83-.02,1.65-.03,2.49c.01,.88,.02,1.76,.03,2.67c-.01,.45-.01,.45-.03,2.76c-.03,2.92-.03,5.83-.03,8.75c-.01,2.9-.02,5.81-.04,8.72c-.02,1.8-.02,3.61-.01,5.42c-.04,5.08-.56,8.59-3.39,12.98c-5.89,5.64-10.23,7.25-18.31,7.25c-.73,.01-1.46,.01-2.21,.01c-2.45,.01-4.9,.01-7.35,0c-1.77,0-3.54,.01-5.31,.01c-4.88,.01-9.75,.01-14.63,.01c-5.25-.01-10.5,0-15.76,.01c-10.29,.01-20.59,.01-30.88,.01c-8.37,0-16.73,0-25.09,.01c-.6,0-.6,0-3.61,0c-2.41,0-4.83,0-7.24,0c-22.66,.01-45.33,.01-67.99,0c-20.75,0-41.5,.01-62.25,.03c-21.29,.02-42.59,.03-63.88,.02c-11.96,0-23.92,0-35.88,.02c-10.18,.01-20.35,.01-30.53,0c-5.2-.01-10.4-.01-15.6,0c-4.75,.02-9.5,.01-14.25,0c-1.73,0-3.45,0-5.18,.01c-2.33,.01-4.66,0-6.99-.02c-.65,0-.65,0-3.94,0c-3.12-.37-3.12-.37-5.04-1.74c-1.56-2.35-1.49-3.87-1.08-6.63c1.28-1.63,1.28-1.63,3-3c2.94-.26,5.67-.35,8.61-.29c.83,0,1.67,.01,2.54,.01c2.68,.02,5.36,.05,8.04,.09c1.81,.02,3.63,.03,5.45,.04c4.45,.04,8.91,.09,13.36,.15c-.03-1.02-.05-2.04-.08-3.09c.08-3.73,.56-6.87,1.4-10.5c.29-1.24,.57-2.49,.86-3.78c.32-1.33,.63-2.67,.95-4c.32-1.39,.64-2.78,.96-4.17c.8-3.49,1.62-6.99,2.44-10.48c.44-1.86,.88-3.72,1.31-5.58c3.09-13.22,6.34-26.37,10.16-39.4c.14-.5,.14-.5,.87-3c11.08-38.24,11.08-38.24,22.13-50c.58-.67,1.16-1.34,1.76-2.03c11.98-13.06,30.28-19.61,46.62-25.47c.7-.26,1.41-.51,2.14-.77c3.39-1.18,5.85-1.73,9.48-1.73c1.47-4.3,2.78-8.62,4-13c.29-.97,.58-1.93,.88-2.93c.63-3.05,.83-5.02,.12-8.07c-3.21-4.27-6.94-7.52-11-11c-1.67-1.66-3.34-3.33-5-5c-.29-.25-.29-.25-1.74-1.53c-9.23-8.27-16.15-22.09-17.6-34.34c-.31-9,1.55-15.41,7.53-22.19c1.25-1.33,2.52-2.65,3.81-3.94c-.82-.41-1.65-.83-2.5-1.25c-.82-.58-1.65-1.15-2.5-1.75c0-1.32,0-2.64,0-4c3-2,3-2,6.88-1.62c2.15,.05,2.15,.05,4.12-.38c1.56-1.77,2.51-3.63,3.61-5.71c5.22-8.63,14.67-13.57,24.17-16c5.27-.96,10.4-1.32,15.74-1.45c19.15-.47,19.15-.47,27.27-4.88c2.21-.96,2.21-.96,4.39-.8C336,594,336,594,338,597c.33,6.33,.33,6.33-1,9c.7-.49,1.4-.99,2.13-1.5c3.34-1.74,5.16-2.15,8.87-1.5c2.94,3.13,3.63,6.47,3.5,10.74c-.85,3.84-3,6.84-5.19,10.06C345,626,345,626,345,629c.56,1.18,1.11,2.35,1.69,3.56c1.86,3.96,2.98,7.87,4.02,12.1c2.02,8.1,3.93,13.64,10.29,19.34c1.36,1.37,2.69,2.77,4,4.19c.6,.61,1.2,1.22,1.81,1.85C368,672,368,672,367.8,674.63c-1,2.96-2.13,3.8-4.8,5.37c-.99,.33-1.98,.66-3,1c0,.78-.01,1.55-.01,2.35c-.04,3.55-.11,7.1-.18,10.65c0,.61,0,.61-.02,3.7c-.17,7.27-.73,12.8-5.79,18.3c-6.97,5.86-16.44,4.35-25,4c-.13,.89-.27,1.78-.4,2.7c-.18,1.17-.36,2.34-.54,3.55c-.17,1.16-.35,2.32-.52,3.52c-.41,2.47-.91,4.81-1.54,7.23c1.26,.24,2.52,.49,3.82,.74c12.82,2.86,27.26,8.53,37.18,17.26c.67,.56,1.35,1.11,2.04,1.68c6.63,5.96,10.64,13.66,14.96,21.32c1.07,1.88,2.14,3.75,3.21,5.63c5.32,9.34,10.6,18.69,15.52,28.24C404,814,404,814,406,815c.09-.95,.18-1.9,.28-2.88c.71-4.94,2.48-9.42,4.25-14.07c.35-.93,.7-1.87,1.05-2.83c.74-1.97,1.48-3.94,2.22-5.9c1.14-3.01,2.26-6.01,3.39-9.03c.71-1.91,1.43-3.82,2.15-5.74c.17-.45,.17-.45,1.02-2.72c.32-.84,.63-1.68,.96-2.54c.28-.73,.55-1.47,.84-2.22c.85-2.09,1.81-4.07,2.84-6.07c2.98,.65,5.55,1.63,8.31,2.93c.82,.38,1.65,.76,2.5,1.16c.86,.4,1.73,.81,2.63,1.22c7.73,3.56,15.31,6.54,23.56,8.69c.32,7.38-.89,14.31-2.19,21.56c-.23,1.29-.46,2.58-.69,3.91c-.69,3.84-1.41,7.69-2.12,11.53c-.19,1.03-.37,2.05-.57,3.11c-2.24,12.13-5.48,23.86-9.3,35.58c-.4,1.24-.8,2.48-1.21,3.76c-4.49,13.31-11.07,27.19-24.11,33.99c-1.26,.54-2.53,1.06-3.81,1.56c-.97,.41-1.94,.83-2.94,1.25c-9.06,2.22-15.39,.04-23.27-4.54c-10.4-6.55-18.24-15.12-25.79-24.71c-1.66-2.01-3.33-4.01-5-6c-1.77,10.2-3.22,20.36-4.1,30.68c-.09,1-.18,2-.27,3.03c-.21,2.43-.42,4.86-.63,7.29c26.4-.08,52.8-.18,79.2-.29c12.25-.05,24.51-.09,36.77-.13c10.68-.03,21.36-.07,32.04-.12c5.66-.03,11.31-.05,16.97-.06c5.32-.02,10.65-.04,15.97-.07c1.95-.01,3.91-.01,5.87-.01c2.66-.01,5.33-.02,7.99-.04c.39,0,.39,0,2.36,0c6.9-.07,6.9-.07,9.83-2.28c1.29-3.87,1.17-7.55,1.21-11.58c.03-1.73,.06-3.47,.09-5.21c.04-2.72,.07-5.45,.1-8.18c.03-2.64,.07-5.28,.12-7.92c.01-.81,.01-1.62,.01-2.45c.14-6.57,1.44-11.31,5.85-16.41c4.34-3.72,7.41-5.62,13.21-5.64c1.11,0,2.22-.01,3.36-.02c.61,0,.61,0,3.67,.01c1.28-.01,2.56-.01,3.89-.02c2.78-.02,5.56-.02,8.34-.02c4.4,0,8.8-.02,13.2-.04c8.54-.04,17.09-.06,25.63-.08c10.88-.02,21.76-.05,32.63-.1c4.38-.02,8.75-.03,13.13-.04c2.06,0,4.12,0,6.19-.01c2.52-.01,5.03-.02,7.55-.01c1.11-.01,2.22-.01,3.36-.02c.96,0,1.93,0,2.92-.01c2.69-.27,4.31-.73,6.54-2.25c.97-2.91,1.13-4.77,1.14-7.79c.01-.5,.01-.5,.03-2.99c0-1.09,0-2.17,0-3.28c.01-1.14,.02-2.28,.02-3.46c.02-2.48,.03-4.96,.04-7.44c.02-3.92,.04-7.85,.06-11.77c.08-11.17,.14-22.33,.19-33.49c.03-6.83,.07-13.65,.12-20.48c.01-2.6,.03-5.2,.03-7.8c.02-3.64,.04-7.28,.07-10.92c0-1.07,0-2.15,0-3.25c.12-12.38,.12-12.38,3.89-17.47c.59-.55,1.18-1.11,1.79-1.67c.29-.28,.29-.28,1.77-1.71c3.48-2.78,6.2-3.73,10.65-3.73c.97,0,1.94-.01,2.94-.01c1.07,0,2.13,.01,3.22,.02c1.13-.01,2.27-.01,3.43-.01c3.8-.01,7.61,0,11.41,.01c2.72,0,5.45,0,8.17-.01c5.86,0,11.73,0,17.6,.01c9.27,0,18.54-.01,27.82-.02c3.17-.01,6.34-.01,9.51-.01c.8-.01,1.59-.01,2.41-.01c9.02-.01,18.04-.02,27.06-.02c.83,0,1.65,0,2.5-.01c13.38,0,26.75,0,40.12,.01c13.73,0,27.45-.01,41.18-.04c8.47-.02,16.94-.02,25.41,0c5.8,.01,11.6,0,17.4-.02c3.35-.01,6.7-.01,10.04,.01c3.63,.01,7.26,0,10.89-.02c.53,0,.53,0,3.21,.03c4.66-.06,7.13-.14,11.04-2.83c2.11-3.24,2.46-4.88,2.44-8.72c.01-1.18,.01-2.36,.02-3.58c-.02-1.29-.04-2.57-.06-3.9c0-1.37,0-2.75,.01-4.12c0-2.96-.01-5.92-.04-8.88c-.04-4.68-.04-9.36-.03-14.04c.01-11.64-.03-23.27-.08-34.9c-.04-9.04-.07-18.08-.05-27.11c.01-4.65-.01-9.3-.06-13.95c-.02-2.9-.01-5.8,0-8.7c0-1.97-.03-3.95-.06-5.92c.06-7.83,1.05-13.36,6.75-19.01c6.08-4.98,13.16-4.55,20.67-4.47c.63,0,.63,0,3.79,0c2.71-.01,5.42,0,8.12,.01c4.29,.03,8.57,.02,12.85,.01c10.63-.02,21.26,0,31.89,.02c8.28,.02,16.55,.03,24.83,.01c4.26-.02,8.51,0,12.77,.03c3.26,.01,6.53,0,9.8-.01c1.17,.01,2.35,.03,3.56,.04c4.77-.04,7.81-.09,11.95-2.58c2.48-4.28,2.48-7.75,2.43-12.62c0-.48,0-.48,.03-2.9c.03-3.16,.02-6.31,.02-9.47c.01-2.19,.03-4.38,.04-6.57c.04-5.75,.05-11.51,.06-17.27c.01-5.88,.04-11.76,.08-17.64c.06-11.53,.1-23.06,.11-34.59c-5.61,0-11.22,0-17,0c-1-5-1-5,.74-7.66c.42-.47,.42-.47,2.57-2.84c.93-1.05,1.85-2.1,2.77-3.15c.48-.54,.96-1.09,1.46-1.65c2.44-2.84,4.7-5.83,6.96-8.82c4.27-5.65,4.27-5.65,6.5-7.88Z" fill="#0170FD" /><path d="M705.18,339.73c10.49-.48,18.95,2.08,28.75,5.56c2.6,.89,5.23,1.62,7.88,2.34c7.54,2.28,12.72,7.01,17.19,13.37c3.25,6.51,5.12,12.57,5.11,19.85c.13,14.76,1.21,27.47,6.89,41.15c.28,.67,.55,1.33,.84,2.02c1.26,3.03,2.57,6.03,3.9,9.03c4.39,10.27,4.38,20.11,.26,30.46c-4.36,9.6-10.33,13.76-20,17.49c2.77,2.77,6.14,4.08,9.63,5.75c25.63,12.66,32.32,38.04,41.68,63.46C808,552,808,552,809,554c.33-.99,.66-1.98,.99-3c1.22-3.66,2.44-7.33,3.65-10.99c.53-1.59,1.06-3.17,1.58-4.76c.76-2.28,1.52-4.56,2.28-6.84c.23-.71,.47-1.42,.71-2.15c1.68-5.03,1.68-5.03,2.79-7.26c1.32,0,2.64,0,4,0c0,.66,0,1.32,0,2c.84,.27,1.68,.54,2.55,.82c2.97,1.01,5.86,2.14,8.75,3.34c6.79,2.81,13.53,5.14,20.7,6.84c1.21,4.38,.74,7.81-.04,12.27c-.12,.7-.24,1.4-.37,2.12c-.39,2.29-.8,4.58-1.21,6.86c-.28,1.58-.56,3.16-.84,4.74c-1.66,9.35-3.39,18.69-5.23,28.01c-.19,.96-.38,1.93-.57,2.92c-1.74,8.56-3.73,17.14-6.99,25.27c-.18,.46-.18,.46-1.08,2.79c-1.55,2.81-3.15,4.82-5.27,7.21c-.64,.71-1.27,1.43-1.93,2.17c-.48,.54-.97,1.08-1.47,1.64c.86,.01,1.72,.02,2.61,.02c8.09,.08,16.18,.17,24.28,.27c4.16,.05,8.32,.09,12.48,.13c4.01,.04,8.03,.09,12.04,.14c1.53,.02,3.07,.03,4.6,.04c2.14,.02,4.29,.05,6.43,.08c1.22,.01,2.44,.03,3.7,.04C901,629,901,629,903,631c.19,3.06,.19,3.06,0,6c-1.75,1.75-4.18,1.13-6.56,1.13c-.6,0-.6,0-3.67,0c-1.37,0-2.73,0-4.09,0c-1.44,0-2.88,0-4.31,0c-3.97,.01-7.93,0-11.89,0c-4.27,0-8.54,0-12.8,0c-8.37,.01-16.74,.01-25.1,.01c-6.8-.01-13.6-.01-20.4-.01c-.96,0-1.93,0-2.92,0c-1.96,0-3.92,0-5.88,.01c-18.41,0-36.82-.01-55.23-.01c-15.82-.01-31.63,0-47.45,0c-18.34,.01-36.68,.01-55.02,0c-1.96,0-3.91,0-5.86,0c-.49,0-.49,0-2.92,0c-6.79,0-13.58,0-20.38,.01c-8.27,0-16.54,0-24.81-.01c-4.23,0-8.45,0-12.68,0c-3.86,.01-7.72,0-11.58,0c-1.4,0-2.81,0-4.21,0c-1.9,0-3.79,0-5.68,0c-1.06,0-2.12,0-3.21,0C554,638,554,638,553,637c-.19-2.94-.19-2.94,0-6c2-2,2-2,4.89-2.23c1.2,.01,2.41,.02,3.65,.03c1.3,.01,2.6,.02,3.94,.02c1.38,.02,2.76,.04,4.15,.06c1.38,.01,2.77,.01,4.16,.02c3.4,.03,6.81,.06,10.21,.1c.05-.61,.09-1.21,.14-1.84c.54-6.18,1.58-12.08,3.01-18.12c.22-.93,.43-1.86,.66-2.81c.7-3.02,1.41-6.03,2.13-9.04c.24-1.04,.49-2.07,.74-3.13c3.35-14.22,6.86-28.39,10.63-42.5c.2-.73,.39-1.47,.59-2.22c6.59-24.8,14.18-44.95,37.1-58.34c2.64-1.43,5.27-2.74,8-4c-1.15-.52-2.31-1.03-3.5-1.56c-9.2-4.65-14.28-10.77-17.5-20.44c-.98-12.53,1.32-19.3,8.44-29.31c7.84-11.16,9.95-20.24,10.83-33.68c1.27-18.41,7.33-35.02,21.52-47.46c11.73-9.18,23.64-13.57,38.39-14.82Z" fill="#0170FC" /><path d="M1222,216c8.39,5.5,8.39,5.5,10.68,7.36c4.99,3.99,9.84,6.35,15.83,8.48c.89,.33,1.78,.66,2.7,1c2.82,1.05,5.65,2.07,8.48,3.1c40.38,14.68,40.38,14.68,49.31,33.06c2.99,7.75,4.95,15.59,6.44,23.75c.2,1.1,.41,2.21,.62,3.34c3.46,18.86,6.41,37.82,8.75,56.85c.13,.99,.25,1.98,.38,3.01c.11,.93,.22,1.87,.33,2.83c.05,.4,.05,.4,.28,2.41c.28,3.94,.24,7.86,.2,11.81c1.12-.01,2.23-.01,3.38-.02c4.12-.01,8.25-.03,12.37-.03c1.79-.01,3.58-.02,5.37-.03c2.56-.01,5.12-.01,7.69-.02c.8,0,1.61-.01,2.44-.01c1.91,0,3.83,.05,5.75,.11c1,1,1,1,1.13,4c-.13,3-.13,3-1.13,4c-1.87,.1-3.74,.13-5.61,.13c-1.23,0-2.46,.01-3.72,.01c-1.38,0-2.76,0-4.14-.01c-1.45,.01-2.9,.01-4.35,.01c-4.01,.01-8.02,.01-12.03,.01c-4.31,0-8.62,0-12.94,.01c-8.46,0-16.92,.01-25.38,.01c-6.87,0-13.74,0-20.62,0c-19.46,.01-38.92,.02-58.38,.02c-1.05,0-2.1,0-3.19,0c-.52,0-.52,0-3.18,0c-17.05-.01-34.1,0-51.16,.02c-17.48,.01-34.97,.02-52.45,.02c-9.83,0-19.65,0-29.48,.01c-8.36,.01-16.73,.01-25.09,.01c-4.28-.01-8.55-.01-12.82,0c-3.9,.01-7.81,.01-11.71,0c-1.42,0-2.84,0-4.26,.01c-1.91,0-3.83,0-5.75-.01c-.53,0-.53,0-3.24,0c-2.5-.25-2.5-.25-4.5-2.25c.56-4.56,.56-4.56,2-6c1.56-.09,3.13-.11,4.69-.1c.95,.01,1.89,.01,2.86,.01c1,.01,1.99,.02,3.01,.03c1,0,2,.01,3.02,.01c2.48,.01,4.95,.03,7.42,.05c-.12-.37-.12-.37-.71-2.25c-2.48-7.85-4.77-15.77-7.04-23.69c-.32-1.09-.64-2.18-.96-3.3c-.3-1.04-.59-2.09-.9-3.16c-.13-.47-.13-.47-.81-2.83c-.63-2.99-.68-5.72-.58-8.77c.66-.33,.66-.33,4-2c0,.66,0,1.32,0,2c12.37-2.16,24.36-6.71,34-15c.67-2.14,.67-2.14,1-4c1.32,0,2.64,0,4,0c2.31,5.28,4.62,10.56,7,16c.64-2.37,1.28-4.74,1.94-7.19c14.89-54.07,14.89-54.07,25.06-65.81c.6-.69,1.2-1.39,1.81-2.1c11.34-11.47,29.91-15.75,44.67-20.92c4.26-1.5,8.4-3.13,12.52-4.98c-.12,.78-.24,1.55-.37,2.35c-.55,3.55-1.09,7.1-1.63,10.65c-.18,1.15-.36,2.3-.54,3.49c-.17,1.14-.35,2.27-.52,3.45c-.08,.51-.08,.51-.48,3.09c-1.45,12.47-1.65,24.88-1.65,37.43c0,2.97-.02,5.94-.03,8.91c-.04,10.72,.39,21.05,2.22,31.63c.21-1.06,.42-2.12,.64-3.22c.99-4.95,1.98-9.89,2.99-14.84c.17-.89,.35-1.78,.54-2.7c2.32-11.52,4.74-22.94,8.28-34.16c1.59-5.41,1.52-9.28,.07-14.74c-.57-2.57-.75-4.72-.52-7.34c2.12-2.68,2.12-2.68,4.88-5.31c.9-.89,1.8-1.77,2.74-2.68C1176,239,1176,239,1178,239c1.63,2.14,3.14,4.27,4.63,6.5c.42,.62,.84,1.24,1.27,1.88c1.04,1.54,2.07,3.08,3.1,4.62c-1.23,2.8-2.43,4.46-4.55,6.75c-3.97,5.56-3.07,12.18-2.94,18.71c.01,1.41,.02,2.81,.02,4.21c.02,3.67,.07,7.34,.13,11.02c.05,3.75,.07,7.5,.1,11.26c.05,7.35,.13,14.7,.24,22.05c.34-.88,.68-1.76,1.03-2.67c1.65-4.28,3.31-8.55,4.97-12.83c.31-.8,.62-1.59,.94-2.41c4.7-12.13,9.49-24.22,14.34-36.28c4.77-11.86,9.53-23.72,14.03-35.68c.35-.91,.69-1.82,1.04-2.75c2.13-5.73,3.96-11.51,5.65-17.38Z" fill="#031940" /><path d="M705.18,339.73c10.49-.48,18.95,2.08,28.75,5.56c2.6,.89,5.23,1.62,7.88,2.34c7.54,2.28,12.72,7.01,17.19,13.37c3.25,6.51,5.12,12.57,5.11,19.85c.13,14.76,1.21,27.47,6.89,41.15c.28,.67,.55,1.33,.84,2.02c1.26,3.03,2.57,6.03,3.9,9.03c4.39,10.27,4.38,20.11,.26,30.46c-4.36,9.6-10.33,13.76-20,17.49c2.77,2.77,6.14,4.08,9.63,5.75c25.63,12.66,32.32,38.04,41.68,63.46C808,552,808,552,809,554c.33-.99,.66-1.98,.99-3c1.22-3.66,2.44-7.33,3.65-10.99c.53-1.59,1.06-3.17,1.58-4.76c.76-2.28,1.52-4.56,2.28-6.84c.23-.71,.47-1.42,.71-2.15c1.68-5.03,1.68-5.03,2.79-7.26c1.32,0,2.64,0,4,0c0,.66,0,1.32,0,2c.84,.27,1.68,.54,2.55,.82c2.97,1.01,5.86,2.14,8.75,3.34c6.79,2.81,13.53,5.14,20.7,6.84c1.21,4.38,.74,7.81-.04,12.27c-.12,.7-.24,1.4-.37,2.12c-.39,2.29-.8,4.58-1.21,6.86c-.28,1.58-.56,3.16-.84,4.74c-1.66,9.35-3.39,18.69-5.23,28.01c-.19,.96-.38,1.93-.57,2.92c-1.74,8.56-3.73,17.14-6.99,25.27c-.18,.46-.18,.46-1.08,2.79c-1.55,2.81-3.15,4.82-5.27,7.21c-.64,.71-1.27,1.43-1.93,2.17c-.48,.54-.97,1.08-1.47,1.64c.86,.01,1.72,.02,2.61,.02c8.09,.08,16.18,.17,24.28,.27c4.16,.05,8.32,.09,12.48,.13c4.01,.04,8.03,.09,12.04,.14c1.53,.02,3.07,.03,4.6,.04c2.14,.02,4.29,.05,6.43,.08c1.22,.01,2.44,.03,3.7,.04C901,629,901,629,903,631c.19,3.06,.19,3.06,0,6c-1.75,1.75-4.18,1.13-6.56,1.13c-.6,0-.6,0-3.67,0c-1.37,0-2.73,0-4.09,0c-1.44,0-2.88,0-4.31,0c-3.97,.01-7.93,0-11.89,0c-4.27,0-8.54,0-12.8,0c-8.37,.01-16.74,.01-25.1,.01c-6.8-.01-13.6-.01-20.4-.01c-.96,0-1.93,0-2.92,0c-1.96,0-3.92,0-5.88,.01c-18.41,0-36.82-.01-55.23-.01c-15.82-.01-31.63,0-47.45,0c-18.34,.01-36.68,.01-55.02,0c-1.96,0-3.91,0-5.86,0c-.49,0-.49,0-2.92,0c-6.79,0-13.58,0-20.38,.01c-8.27,0-16.54,0-24.81-.01c-4.23,0-8.45,0-12.68,0c-3.86,.01-7.72,0-11.58,0c-1.4,0-2.81,0-4.21,0c-1.9,0-3.79,0-5.68,0c-1.06,0-2.12,0-3.21,0C554,638,554,638,553,637c-.19-2.94-.19-2.94,0-6c2.47-2.47,3.86-2.24,7.23-2.26c.73,.01,1.47,.01,2.22,.02c.39,0,.39,0,2.36-.01c2.62,0,5.24,.01,7.86,.02c1.87,0,3.74,0,5.62,0c5.09,0,10.18,.01,15.28,.03c5.32,.01,10.64,.01,15.96,.01c10.08,.01,20.16,.03,30.24,.05c11.47,.02,22.94,.03,34.41,.04c23.61,.02,47.21,.06,70.82,.1c-.06-10.35-.14-20.7-.24-31.04c-.04-4.81-.08-9.62-.11-14.43c-.36-61.53-.36-61.53-6.71-90.97c-.26-1.28-.51-2.57-.78-3.9c-1.91-9.37-1.91-9.37-4.16-13.66c-.23-2.22-.23-2.22-.19-4.5c.01-.38,.01-.38,.02-2.28c.17-2.18,.57-4.12,1.17-6.22c.68-.01,1.36-.03,2.05-.04c7.82-.4,14.84-1.88,20.58-7.58c8.04-11.18,7.86-28.57,5.87-41.69c-1.2-6.82-2.57-13.6-4.04-20.36C758,390,758,390,758,388c-3.47,.46-6.67,.89-10,2c.66-1.32,1.32-2.64,2-4c2.31,0,4.62,0,7,0c-4.78-10.5-9.41-18.81-20-24c-.19,.63-.19,.63-1.12,3.81C731.01,380.11,721,393.05,708,401c-2.25,.68-2.25,.68-4,1c-.06,.89-.12,1.77-.19,2.69c-1.02,4.15-2.41,5.76-5.81,8.31c-3.54,.09-5.03-1.02-7.94-3.06c-3.5-2.22-5.01-2.72-9.06-1.94c-2.81,2.44-2.81,2.44-5,5c-.33,.33-.66,.66-1,1c-.87,6.38-.2,11.12,3.58,16.38c3.89,4.45,7.75,4.88,13.42,5.62c1.03,30.98,1.03,30.98-8,41c-5.77,4.71-10.57,5.22-17.8,4.84c-4.87,.24-8.82,2.14-13.19,4.16c-4.34,1.44-7.3,.85-11.35-1.16C634.2,479.78,627.79,474.19,626,465c-1.19-12.46,1.37-19.37,8.44-29.31c7.84-11.16,9.95-20.24,10.83-33.68c1.27-18.41,7.33-35.02,21.52-47.46c11.73-9.18,23.64-13.57,38.39-14.82Z" fill="#0271FB" /><path d="M1157,70c.44,.25,.44,.25,2.69,1.5c6.56,2.97,14.34,1.77,21.37,1c16.61-1.81,34.39-.26,48.09,10.13c3.31,3.01,5.16,5.78,6.79,9.93c1.77,4.53,4.19,6.43,8.16,9.1c3.66,2.58,6.29,6.18,7.9,10.34c0,1.32,0,2.64,0,4c.69,.24,1.37,.49,2.08,.74c3.43,1.48,6.49,3.36,9.61,5.39c.61,.39,1.23,.79,1.86,1.2c5.43,3.57,10.5,7.46,15.45,11.67c.76,.62,1.52,1.25,2.3,1.89c6.02,5.11,10.89,10.86,15.7,17.11c.67,.86,1.34,1.73,2.03,2.62c24.52,32.68,34.9,72.31,29.38,112.78c-1.88,11.92-5.12,23.42-9.41,34.69c-1.27,3.69-1.77,7.03-2,10.91c-.33,0-.66,0-1,0c-.05-.34-.05-.34-.3-2.04c-7.09-47.13-7.09-47.13-20.7-58.96c-10.1-6.68-20.97-11.02-32.25-15.25c-1.59-.6-3.17-1.21-4.76-1.81c-12.26-4.68-12.26-4.68-16.06-6.05c-5.63-2.09-9.96-4.77-14.55-8.64c-.63-.51-1.25-1.01-1.89-1.54c-1.51-1.22-3-2.46-4.49-3.71c-.66,.99-1.32,1.98-2,3c-.16-1.15-.16-1.15-1-7c-4.64,0-4.91,.45-8.05,3.54c-4.99,4.64-10.36,8.19-16.14,11.77c-.48,.31-.48,.31-2.9,1.84c-12.59,7.91-12.59,7.91-16.04,7.76c-6.66-3.23-12.85-11.28-15.87-17.91c-.46-3.19-.31-5.76,0-9c-1.11,.1-2.23,.21-3.37,.31c-6.17-.01-11.61-2.75-16.27-6.7c-7.23-7.94-7.54-18.69-7.48-28.86c-.01-.84-.01-1.67-.01-2.53c.02-4.61,.29-9.03,.94-13.59c.47-4.01,.46-4.28-2.18-7.69c-.44-.32-.44-.32-2.63-1.94c-2.49-4.98-1.86-13-.35-18.26c.91-1.61,.91-1.61,3.35-3.74c3.65-.13,3.65-.13,7,0c-.01-.71-.02-1.41-.03-2.14c-.04-3.2-.07-6.41-.09-9.61c-.02-1.11-.04-2.22-.06-3.37c0-1.07-.01-2.14-.02-3.24c-.01-.98-.02-1.97-.03-2.98c.24-2.74,.93-4.28,2.23-6.66c-.38-2.81-1.49-5.17-2.62-7.75c-1.73-4.57-1.53-7.49-.38-12.25c3.9-7.52,9.53-11.5,18-10Z" fill="#DEE4EB" /><path d="M1165,401c1.84,.02,1.84,.02,4,1c1.69,1.89,3.15,3.71,4.63,5.75c.87,1.18,1.74,2.37,2.62,3.55c.44,.61,.89,1.22,1.35,1.85c1.4,1.85,2.84,3.64,4.31,5.43c.23,.29,.23,.29,1.41,1.74c.9,1.1,1.8,2.19,2.72,3.28c1.22,1.52,1.22,1.52,2.96,4.4c-.33,1.65-.66,3.3-1,5c-5.28,0-10.56,0-16,0c.01,1.22,.01,2.45,.02,3.7c.06,11.54,.11,23.07,.14,34.61c.01,5.93,.03,11.86,.07,17.79c.03,5.72,.05,11.45,.05,17.17c.01,2.19,.02,4.37,.04,6.55c.02,3.06,.02,6.12,.02,9.18c.01,.45,.01,.45,.03,2.72c-.03,6.42-1,11.93-4.8,17.3c-.48,.45-.95,.9-1.44,1.36c-.48,.46-.95,.92-1.43,1.39c-3.85,2.79-7.53,3.48-12.21,3.48c-1.09,.01-2.19,.01-3.32,.02c-1.19-.01-2.38-.01-3.61-.01c-1.94,0-3.87,.01-5.81,.01c-2.08,.01-4.15,.01-6.23,0c-4.33,0-8.67,.02-13,.03c-12.32,.05-24.63,.07-36.95,.08c-6.81,0-13.62,.02-20.42,.06c-4.31,.02-8.62,.02-12.92,.01c-3.31-.01-6.62,.02-9.92,.04c-1.2-.01-2.39-.02-3.62-.03c-1.09,.01-2.18,.02-3.31,.03c-.47,.01-.47,.01-2.87,.01c-3.35,.67-4.51,1.75-6.51,4.5c-.49,2.67-.49,2.67-.49,5.78c0,1.18-.01,2.36-.02,3.58c.01,.64,.01,.64,.04,3.91c0,1.38,0,2.75,0,4.13c-.01,2.96,0,5.93,.01,8.89c.03,4.69,.02,9.38,.01,14.07c-.02,11.66,0,23.31,.02,34.96c.02,9.05,.03,18.1,.01,27.16c-.01,4.65,0,9.31,.03,13.97c.01,2.9,0,5.81-.01,8.72c0,1.97,.02,3.95,.04,5.93c-.06,7.28-.76,12.32-5.64,17.9c-6.51,6.34-13.55,6.29-22.14,6.26c-1.13,0-2.25,.01-3.41,.01c-3.78,.01-7.55,.01-11.33,0c-2.7,0-5.41,.01-8.11,.02c-5.83,.01-11.66,.01-17.48,.01c-8.43,.01-16.85,.02-25.28,.04c-13.68,.03-27.35,.06-41.03,.07c-.82,0-1.64,.01-2.48,.01c-9.13,.01-18.27,.02-27.4,.03c-3.32,0-6.64,0-9.95,.01c-.41,0-.41,0-2.48,0c-13.63,.01-27.26,.04-40.89,.07c-8.41,.02-16.81,.03-25.22,.03c-5.76,0-11.52,.01-17.27,.02c-3.33,.01-6.65,.02-9.97,.01c-3.6,0-7.2,.01-10.8,.02c-1.06,0-2.11-.01-3.2-.01c-.48,0-.48,0-2.91,.02c-.83,0-1.66,0-2.52,0c-2.64,.47-3.49,1.31-5.13,3.38c-1.22,2.44-1.13,4.01-1.13,6.74c-.01,1-.01,2-.01,3.04c0,.55,0,.55,0,3.34c-.01,1.15-.01,2.31-.01,3.5c-.01,2.53-.02,5.05-.02,7.57c-.01,3.99-.02,7.99-.04,11.98c-.01,1.37-.01,2.73-.02,4.1c0,.69-.01,1.37-.01,2.08c-.04,9.29-.07,18.59-.09,27.89c0,6.27-.03,12.54-.07,18.8c-.01,3.32-.03,6.64-.02,9.95c0,3.71-.02,7.41-.05,11.12c.01,1.09,.01,2.18,.02,3.3c-.09,7.26-1.07,13-6.33,18.43c-.57,.36-1.14,.72-1.72,1.1c-.57,.38-1.13,.76-1.72,1.15c-3.67,1.87-7.13,2.04-11.21,2.04c-.55,0-.55,0-3.34,.01c-1.2,0-2.41,0-3.65,0c-1.95,.01-3.9,.01-5.85,.02c-2.1,0-4.2,.01-6.29,.01c-4.37,0-8.74,.02-13.11,.04c-1.5,.01-3,.01-4.49,.02c-.75,0-1.5,.01-2.27,.01c-10.17,.04-20.35,.07-30.52,.09c-6.86,0-13.73,.03-20.59,.07c-3.63,.02-7.27,.03-10.9,.02c-4.05,0-8.1,.02-12.14,.05c-1.21-.01-2.41-.01-3.65-.02c-1.11,.01-2.21,.02-3.34,.04c-.96,0-1.92,0-2.9,0c-3.27,.66-4.47,1.96-6.53,4.51c-.5,2.04-.5,2.04-.5,4.21c-.01,.83-.02,1.65-.03,2.49c.01,.88,.02,1.76,.03,2.67c-.01,.45-.01,.45-.03,2.76c-.03,2.92-.03,5.83-.03,8.75c-.01,2.9-.02,5.81-.04,8.72c-.02,1.8-.02,3.61-.01,5.42c-.04,5.08-.56,8.59-3.39,12.98c-5.89,5.64-10.23,7.25-18.31,7.25c-.73,.01-1.46,.01-2.21,.01c-2.45,.01-4.9,.01-7.35,0c-1.77,0-3.54,.01-5.31,.01c-4.88,.01-9.75,.01-14.63,.01c-5.25-.01-10.5,0-15.76,.01c-10.29,.01-20.59,.01-30.88,.01c-8.37,0-16.73,0-25.09,.01c-.6,0-.6,0-3.61,0c-2.41,0-4.83,0-7.24,0c-22.66,.01-45.33,.01-67.99,0c-20.75,0-41.5,.01-62.25,.03c-21.29,.02-42.59,.03-63.88,.02c-11.96,0-23.92,0-35.88,.02c-10.18,.01-20.35,.01-30.53,0c-5.2-.01-10.4-.01-15.6,0c-4.75,.02-9.5,.01-14.25,0c-1.73,0-3.45,0-5.18,.01c-2.33,.01-4.66,0-6.99-.02c-.65,0-.65,0-3.94,0c-3.12-.37-3.12-.37-5.04-1.74c-1.56-2.35-1.49-3.87-1.08-6.63c1.09-1.63,1.09-1.63,3-3c3.1-.38,3.1-.38,7.01-.38c.72,0,1.44-.01,2.19-.01c2.43-.01,4.87,0,7.31,0c1.75,0,3.51,0,5.27-.01c4.84-.02,9.68-.01,14.52,0c5.22,0,10.44-.01,15.66-.02c9.04-.02,18.08-.02,27.13-.02c13.08,0,26.16-.01,39.24-.04c21.23-.03,42.46-.05,63.68-.06c1.27,0,2.55-.01,3.86-.01c5.15,0,10.3,0,15.45-.01c14.18,0,28.36-.01,42.54-.03c.63,0,.63,0,3.84,0c21.15-.02,42.29-.04,63.44-.07c13.05-.02,26.1-.03,39.16-.04c8.93,0,17.87,0,26.81-.02c5.17-.01,10.33-.01,15.49,0c4.72,0,9.45-.01,14.17-.02c1.71,0,3.42,0,5.13,0c2.32,.01,4.64,0,6.96-.01c1.29,0,2.59,0,3.92,0c3.04-.24,4.77-.47,7.22-2.25c1.29-3.87,1.17-7.55,1.21-11.58c.03-1.73,.06-3.47,.09-5.21c.04-2.72,.07-5.45,.1-8.18c.03-2.64,.07-5.28,.12-7.92c.01-.81,.01-1.62,.01-2.45c.14-6.57,1.44-11.31,5.85-16.41c4.34-3.72,7.41-5.62,13.21-5.64c1.11,0,2.22-.01,3.36-.02c.61,0,.61,0,3.67,.01c1.28-.01,2.56-.01,3.89-.02c2.78-.02,5.56-.02,8.34-.02c4.4,0,8.8-.02,13.2-.04c8.54-.04,17.09-.06,25.63-.08c10.88-.02,21.76-.05,32.63-.1c4.38-.02,8.75-.03,13.13-.04c2.06,0,4.12,0,6.19-.01c2.52-.01,5.03-.02,7.55-.01c1.11-.01,2.22-.01,3.36-.02c.96,0,1.93,0,2.92-.01c2.69-.27,4.31-.73,6.54-2.25c.97-2.91,1.13-4.77,1.14-7.79c.01-.5,.01-.5,.03-2.99c0-1.09,0-2.17,0-3.28c.01-1.14,.02-2.28,.02-3.46c.02-2.48,.03-4.96,.04-7.44c.02-3.92,.04-7.85,.06-11.77c.08-11.17,.14-22.33,.19-33.49c.03-6.83,.07-13.65,.12-20.48c.01-2.6,.03-5.2,.03-7.8c.02-3.64,.04-7.28,.07-10.92c0-1.07,0-2.15,0-3.25c.12-12.38,.12-12.38,3.89-17.47c.59-.55,1.18-1.11,1.79-1.67c.29-.28,.29-.28,1.77-1.71c3.48-2.78,6.2-3.73,10.65-3.73c.97,0,1.94-.01,2.94-.01c1.07,0,2.13,.01,3.22,.02c1.13-.01,2.27-.01,3.43-.01c3.8-.01,7.61,0,11.41,.01c2.72,0,5.45,0,8.17-.01c5.86,0,11.73,0,17.6,.01c9.27,0,18.54-.01,27.82-.02c3.17-.01,6.34-.01,9.51-.01c.8-.01,1.59-.01,2.41-.01c9.02-.01,18.04-.02,27.06-.02c.83,0,1.65,0,2.5-.01c13.38,0,26.75,0,40.12,.01c13.73,0,27.45-.01,41.18-.04c8.47-.02,16.94-.02,25.41,0c5.8,.01,11.6,0,17.4-.02c3.35-.01,6.7-.01,10.04,.01c3.63,.01,7.26,0,10.89-.02c.53,0,.53,0,3.21,.03c4.66-.06,7.13-.14,11.04-2.83c2.11-3.24,2.46-4.88,2.44-8.72c.01-1.18,.01-2.36,.02-3.58c-.02-1.29-.04-2.57-.06-3.9c0-1.37,0-2.75,.01-4.12c0-2.96-.01-5.92-.04-8.88c-.04-4.68-.04-9.36-.03-14.04c.01-11.64-.03-23.27-.08-34.9c-.04-9.04-.07-18.08-.05-27.11c.01-4.65-.01-9.3-.06-13.95c-.02-2.9-.01-5.8,0-8.7c0-1.97-.03-3.95-.06-5.92c.06-7.83,1.05-13.36,6.75-19.01c6.08-4.98,13.16-4.55,20.67-4.47c.63,0,.63,0,3.79,0c2.71-.01,5.42,0,8.12,.01c4.29,.03,8.57,.02,12.85,.01c10.63-.02,21.26,0,31.89,.02c8.28,.02,16.55,.03,24.83,.01c4.26-.02,8.51,0,12.77,.03c3.26,.01,6.53,0,9.8-.01c1.17,.01,2.35,.03,3.56,.04c4.77-.04,7.81-.09,11.95-2.58c2.48-4.28,2.48-7.75,2.43-12.62c0-.48,0-.48,.03-2.9c.03-3.16,.02-6.31,.02-9.47c.01-2.19,.03-4.38,.04-6.57c.04-5.75,.05-11.51,.06-17.27c.01-5.88,.04-11.76,.08-17.64c.06-11.53,.1-23.06,.11-34.59c-5.61,0-11.22,0-17,0c-1-5-1-5,.74-7.66c.42-.47,.42-.47,2.57-2.84c.93-1.05,1.85-2.1,2.77-3.15c.48-.54,.96-1.09,1.46-1.65c2.44-2.84,4.7-5.83,6.96-8.82c4.27-5.65,4.27-5.65,6.5-7.88Z" fill="#0874FA" /><path d="M1140,105c.2,2.71,.38,5.42,.56,8.13c.03,.38,.03,.38,.17,2.3c.28,4.37,.2,8.25-.73,12.57c-1.09,.06-2.19,.12-3.31,.19c-3.69,.81-3.69,.81-5.4,2.92c-1.57,3.52-1.66,6.11-1.6,9.95c0,1.21,.01,2.42,.01,3.66c.28,3.06,.61,4.76,2.3,7.28c.72,.54,1.44,1.07,2.19,1.63c2.12,2.77,1.98,3.13,1.56,6.43c-.13,.87-.25,1.74-.38,2.64c-1.47,13.11-2.41,29.28,5.73,40.35c5.44,5.57,12.33,7.53,19.9,7.95c0,1.26,0,2.52,0,3.81c.73,6.69,4.8,11.18,9,16.19c.56,.68,1.11,1.36,1.69,2.07c1.5,1.68,1.5,1.68,4.31,3.93c13.7-.85,31.65-17.14,41-26c1.32,.66,2.64,1.32,4,2c.45,7.3-.54,12.88-3.22,19.65c-.35,.93-.7,1.86-1.07,2.81c-1.21,3.19-2.46,6.37-3.71,9.54c-.71,1.82-1.42,3.64-2.13,5.46c-3.15,8.04-6.34,16.07-9.54,24.09c-1.38,3.46-2.76,6.91-4.13,10.37c-5.72,14.37-11.45,28.73-17.2,43.08c-.33,0-.66,0-1,0c-.16-8.32-.29-16.64-.36-24.96c-.04-3.86-.09-7.73-.17-11.59c-.07-3.73-.12-7.47-.13-11.2c-.02-1.42-.04-2.84-.08-4.26c-.32-12.49-.32-12.49,4.41-18.12c.66-.64,1.33-1.28,2.02-1.94c.43-.64,.86-1.28,1.31-1.93c-.98-3.67-2.77-6.25-5.12-9.19c-2.88-3.59-2.88-3.59-2.88-5.81c-1.27,1.1-2.54,2.21-3.81,3.31c-.71,.62-1.42,1.23-2.15,1.87c-.67,.6-1.35,1.2-2.04,1.82c-.59,.47-1.17,.94-1.78,1.43c-1.22,1.57-1.22,1.57-1.33,3.87c.12,.85,.24,1.7,.36,2.58c.11,.84,.22,1.68,.33,2.55c.42,2.57,.42,2.57,1.04,4.83c.48,3.43-.16,5.83-1.06,9.17c-.17,.64-.17,.64-1.01,3.87c-.09,.34-.09,.34-.55,2.04c-3.58,13.36-6.57,26.76-9.1,40.35c-.22,1.18-.44,2.36-.67,3.58c-.1,.52-.1,.52-.58,3.14C1155,326,1155,326,1153,329c-1.7-12.49-2.32-24.77-2.26-37.38c.01-2.85,0-5.71-.01-8.57c-.02-19.26,1.76-38.11,5.27-57.05c-.65,.31-1.31,.62-1.98,.94c-6.94,3.24-13.97,5.88-21.21,8.37c-17.94,6.34-32.84,11.94-41.81,29.69c-2.35,5.74-4.17,11.67-6.06,17.56c-.51,1.55-1.02,3.09-1.53,4.64c-2.95,9.01-5.71,18.07-8.35,27.19c-1.25,4.24-2.62,8.43-4.06,12.61c-1.98-2.97-3.26-5.77-4.62-9.06c-.45-1.07-.9-2.13-1.36-3.23C1064,312,1064,312,1064,310c-.58-.08-1.15-.16-1.75-.25c-2.92-.97-4.27-2.43-6.25-4.75c-1.1-3.29-1.13-5.75-1.14-9.21c-.02-1.25-.04-2.49-.06-3.78c-.03-2.6-.05-5.19-.05-7.79c-.18-8.8-1.79-15.38-5.75-23.22c-.35-.74-.7-1.48-1.07-2.24c-.88-1.85-1.81-3.68-2.74-5.51c-.16-.31-.16-.31-.95-1.86c-.74-1.46-1.49-2.93-2.24-4.39c8.99-5.95,8.99-5.95,13.42-6.06c2.29,.52,4.39,1.21,6.58,2.06c1.56,.52,3.12,1.05,4.69,1.56c.68,.25,1.37,.5,2.07,.76c2.72,.83,5.43,1.26,8.24,1.68c-.57-1.09-1.13-2.17-1.71-3.29c-.75-1.44-1.49-2.89-2.23-4.33c-.37-.72-.74-1.43-1.13-2.17c-2.05-4.02-3.81-7.61-3.93-12.21c1.11-2.82,1.11-2.82,2.75-5.69c6.96-13.21,8.4-27.14,4.69-41.62c-1.9-5.94-4.68-11.04-8.05-16.26C1066,159,1066,159,1066,156c1.71-2.11,3.44-4.05,5.31-6c.55-.58,1.09-1.15,1.66-1.75c1.12-1.18,2.26-2.37,3.39-3.55c1.48-1.53,2.94-3.09,4.39-4.65C1093.36,126.88,1120.61,105,1140,105Z" fill="#DEE6F1" /><path d="M334.18,593.16C336,594,336,594,338,597c.33,6.33,.33,6.33-1,9c.7-.49,1.4-.99,2.13-1.5c3.34-1.74,5.16-2.15,8.87-1.5c2.94,3.13,3.63,6.47,3.5,10.74c-.85,3.84-3,6.84-5.19,10.06C345,626,345,626,345,629c.56,1.18,1.11,2.35,1.69,3.56c1.86,3.96,2.98,7.87,4.02,12.1c2.02,8.1,3.93,13.64,10.29,19.34c1.36,1.37,2.69,2.77,4,4.19c.6,.61,1.2,1.22,1.81,1.85C368,672,368,672,367.8,674.63c-1,2.96-2.13,3.8-4.8,5.37c-.49,.17-.49,.17-3,1c0,.78-.01,1.55-.01,2.35c-.04,3.55-.11,7.1-.18,10.65c0,.61,0,.61-.02,3.7c-.17,7.27-.73,12.8-5.79,18.3c-6.97,5.86-16.44,4.35-25,4c-.11,.78-.22,1.55-.33,2.35c-3.79,25.82-3.79,25.82-9.67,30.65c-7.48,4.01-15.74,4.16-23.96,2.34c-8.73-2.83-16.75-8.02-21.3-16.19c-2.34-6.8,.77-14.67,2.64-21.29c.7-3.21,1.07-5.59,.62-8.86c-1.69-2.13-3.19-3.77-5.19-5.56c-.48-.46-.96-.91-1.46-1.38c-1.44-1.36-2.9-2.71-4.35-4.06c-1.67-1.67-3.33-3.33-5-5c-.57-.5-1.15-1.01-1.74-1.53c-9.23-8.27-16.15-22.09-17.6-34.34c-.31-9,1.55-15.41,7.53-22.19c1.25-1.33,2.52-2.65,3.81-3.94c-.82-.41-1.65-.83-2.5-1.25c-.41-.29-.41-.29-2.5-1.75c0-1.32,0-2.64,0-4c3-2,3-2,6.88-1.62c2.15,.05,2.15,.05,4.12-.38c1.56-1.77,2.51-3.63,3.61-5.71c5.22-8.63,14.67-13.57,24.17-16c5.27-.96,10.4-1.32,15.74-1.45c19.15-.47,19.15-.47,27.27-4.88c2.21-.96,2.21-.96,4.39-.8Z" fill="#FBBA88" /><path d="M1054.81,147.31c1.42,1.21,2.81,2.44,4.19,3.69c.34,.3,.34,.3,2.08,1.8c10.87,10.02,16.7,23.76,17.44,38.43c.21,10.61-1.99,21.31-7.75,30.36c-1.77,3.41-1.77,3.41-1.74,6.39c1.17,3.63,2.74,6.93,4.53,10.27c3.44,6.51,3.44,6.51,3.44,8.75c-6.59-.44-12.03-1.89-18.2-4.26c-6.01-1.59-10.6,1.49-15.8,4.26c.27,.52,.27,.52,1.61,3.15c.71,1.41,1.43,2.82,2.14,4.23c.35,.67,.7,1.35,1.05,2.05c1.1,2.18,2.15,4.37,3.2,6.57c.37,.73,.74,1.45,1.12,2.2c3.28,7.1,3.76,14.2,3.99,21.9c.08,2.16,.21,4.32,.35,6.49c.45,9.92,.45,9.92-1.8,13.61c-1.81,1.63-3.49,2.71-5.66,3.8c-1.11,.6-2.21,1.21-3.35,1.83c-1.08,.47-2.16,.94-3.27,1.42c-1.09,.48-2.18,.96-3.29,1.45c-1.02,.43-2.04,.86-3.09,1.3c-.9,.38-1.8,.77-2.72,1.16c-2.56,.94-4.58,.99-7.28,.84c-.27-.97-.54-1.94-.81-2.94c-1.64-3.88-4.07-5.77-7.38-8.31c-7.61-5.97-13.54-12.24-15.31-22c-.2-1.91-.38-3.83-.5-5.75c-.05-.58-.05-.58-.31-3.5c1.19-13.38,1.19-13.38,4.31-16.5c.21-1.47,.37-2.95,.5-4.44c.39-4.34,.39-4.34,1.5-6.56c-.29-.06-.29-.06-1.77-.37c-13.1-3.3-24.31-12.08-31.43-23.47c-8-13.55-11.17-28.3-8.07-43.81c4.6-16.08,14.18-28.95,28.71-37.33c18.72-10.01,41.83-9.95,59.37,3.29Z" fill="#FD5E2B" /><path d="M497.14,596.86c13.21,9,21.58,21.81,25.86,37.14c.54,3.94,.62,7.78,.56,11.75c-.01,1.05-.02,2.1-.03,3.18c-.47,16.41-6.9,28.91-17.84,40.95c-8.73,8.06-19.54,11.81-30.69,15.12c.15,1.05,.31,2.11,.47,3.2c.51,3.65,.9,7.3,1.25,10.98C477,721,477,721,478,722c1.21,14.32-1.75,22.55-11.04,33.68c-1.36,1.61-2.73,3.2-4.13,4.78c-1.97,2.73-2.55,4.56-3.08,7.85c-.15,.89-.3,1.77-.45,2.68c-.1,.66-.2,1.33-.3,2.01c-3.43,1.19-5.23,.82-8.55-.55c-.87-.35-1.73-.7-2.62-1.06c-.44-.19-.44-.19-2.7-1.14c-.89-.36-1.78-.72-2.69-1.09c-4.58-1.89-9.05-3.87-13.44-6.16c.32-1.23,.64-2.46,.98-3.72c1.54-6.92,1.38-13.9,1.41-20.95c.23-10.29,3.52-17.99,8.74-26.7c4.23-7.21,4.23-7.21,5.87-10.63c-.43-.12-.43-.12-2.62-.75C440,699,440,699,437.25,696.88c-6.84-3.95-15.68-1.78-23.25-.88c.61-3.92,1.85-7.31,3.38-10.94c1.21-4.01,.94-6.37-.84-10.19c-.63-1.13-1.26-2.27-1.91-3.43c-3.38-6.41-5.11-12.16-5.63-19.44c-.09-1.09-.19-2.18-.28-3.3c-.75-16.47,5.7-29.99,16.09-42.45c18.91-20.36,48.84-23.34,72.33-9.39Z" fill="#FD5E2B" /><path d="M737,362c10.07,3.66,15.56,11.51,20,21c0,.99,0,1.98,0,3c-1.11,.1-2.23,.21-3.37,.31c-1.2,.23-2.4,.46-3.63,.69c-.33,.5-.33,.5-2,3c.99-.66,1.98-1.32,3-2c2.33-.08,4.67-.09,7,0c.12,.55,.24,1.09,.36,1.65c.87,3.93,1.76,7.85,2.71,11.75c3.87,16.33,6.22,35.78-2.26,51.16c-3.4,4.83-8.29,7.6-13.81,9.44c-1.89,.07-3.79,.08-5.69,.06c-.99-.01-1.99-.02-3.01-.02c-.76-.02-1.52-.03-2.3-.04c-.08,1.98-.14,3.96-.19,5.94c-.03,1.1-.07,2.2-.1,3.34c.3,3.81,1.2,6.7,2.47,10.27c4.67,14,6.19,29.46,7.46,44.1c.07,.74,.13,1.47,.2,2.23c1.66,19.46,1.51,38.94,1.37,58.46c-.04,5.7-.05,11.39-.07,17.09c-.03,8.52-.09,17.05-.14,25.57c-11.55,0-23.1,0-35,0c-.05-2.99-.1-5.98-.15-9.06c-.05-2.96-.11-5.91-.17-8.86c-.04-2.02-.07-4.05-.1-6.07c-.27-16.95-1.71-33.02-5.2-49.63c-.26-1.23-.52-2.45-.78-3.71c-3.73-17.43-8.37-34.65-13.67-51.67c-1.29-4.17-2.54-8.36-3.74-12.56c-.23-.77-.46-1.54-.7-2.32c-1.92-6.77-.78-9.84,2.47-15.73c3.16-7.29,3.43-14.55,3.67-22.39c.03-1.06,.07-2.12,.11-3.21c.1-2.6,.18-5.19,.26-7.79c-1.09,.03-2.18,.06-3.3,.09c-4.62-.11-6.23-1.07-9.7-4.09c-4.26-4.87-5.77-9.27-5.43-15.73c.62-3.29,1.99-5.04,4.43-7.27c3.53-2.36,4.84-2.49,9-2c2.03,1.29,4.03,2.62,6,4c2.63,1,2.63,1,5,1c2.9-2.07,3.86-3.5,4.8-6.95c1.47-3.75,2.77-4.46,6.26-6.36C723.43,390.1,730.52,376.92,737,362Z" fill="#FAB988" /><path d="M889.81,362.81c11.87,8.55,19.41,19.74,22.19,34.19c1.73,15.33-1.37,29.7-11,42c-6.46,7.45-13.09,12.54-22.25,16.14c-.9,.35-1.79,.7-2.71,1.06c-.67,.27-1.34,.53-2.04,.8c.04,.37,.04,.37,.22,2.21c.31,3.37,.61,6.73,.91,10.1c.11,1.15,.22,2.3,.33,3.48c1.1,12.88-.54,21.87-8.46,32.21c-2.3,2.7-4.65,5.33-7.08,7.91c-3.45,3.76-4.47,6.86-5.54,11.78c-.27,1.18-.53,2.36-.79,3.57c-.2,.91-.39,1.81-.59,2.74c-5.23-.55-9.7-1.84-14.56-3.87c-.32-.13-.32-.13-1.92-.78c-3.94-1.61-7.74-3.41-11.52-5.35c.41-3.92,.8-7.38,2.02-11.14c1.21-4.76,1.27-9.21,1.36-14.11c.54-14.76,5.92-29.05,16.62-39.75c-10.96-6.77-10.96-6.77-17.69-5.56c-1.78,.47-3.56,.99-5.31,1.56c-.85,.27-1.7,.54-2.58,.82c-1.53,.51-3.04,1.04-4.54,1.59C813,455,813,455,810,455c.68-5.2,3.17-9.36,5.74-13.83c2.42-4.52,2.42-4.52,1.63-7.71c-.45-.81-.91-1.62-1.37-2.46c-.86-2.14-1.71-4.29-2.56-6.44c-.44-1.09-.87-2.18-1.32-3.31c-4.43-12.86-2.47-26.14,3.01-38.31c3.05-5.79,7.28-10.33,11.87-14.94c.55-.58,1.11-1.15,1.68-1.75c16.56-15.82,42.76-14.78,61.13-3.44Z" fill="#FD5E2B" /><path d="M241,654c0,1.98,0,3.96,0,6c.66,0,1.32,0,2,0c.22,.74,.44,1.48,.66,2.24c3.87,12.37,9.26,21.51,18.34,30.76c.8,.81,1.59,1.63,2.41,2.47c1.78,1.74,3.63,3.42,5.52,5.04c7.67,6.81,7.67,6.81,8.7,11.12c-.22,2.96-.81,5.52-1.63,8.37c-.34,1.34-.67,2.68-1,4.03c-.93,3.68-1.94,7.32-3,10.97c-.33-.66-.66-1.32-1-2c-53.59,16.83-53.59,16.83-66.98,40.75C195.58,791.9,190.8,812.25,186,832c-.56,2.27-1.13,4.54-1.7,6.81c-.47,1.86-.93,3.72-1.39,5.58c-1.57,6.22-3.24,12.42-4.91,18.61c-.66,0-1.32,0-2,0c-19.11-36.95-26.18-77.34-13.7-117.79c11.81-37.11,36.65-69.47,70.99-88.48C238.61,654,238.61,654,241,654Z" fill="#DEE7F3" /><path d="M705.18,339.73c10.49-.48,18.95,2.08,28.75,5.56c2.6,.89,5.23,1.62,7.88,2.34c7.54,2.28,12.72,7.01,17.19,13.37c3.25,6.51,5.12,12.57,5.11,19.85c.13,14.76,1.21,27.47,6.89,41.15c.28,.67,.55,1.33,.84,2.02c1.26,3.03,2.57,6.03,3.9,9.03c4.39,10.27,4.38,20.11,.26,30.46c-3.89,8.56-9.11,13.29-17.81,16.8c-8.74,2.76-17.3-1.78-25.19-5.31c-.03-1.42-.05-2.83-.06-4.25c-.01-.79-.03-1.58-.04-2.39c.1-2.27,.47-4.19,1.1-6.36c.68-.01,1.36-.03,2.05-.04c7.82-.4,14.84-1.88,20.58-7.58c8.04-11.18,7.86-28.57,5.87-41.69c-1.2-6.82-2.57-13.6-4.04-20.36C758,390,758,390,758,388c-3.47,.46-6.67,.89-10,2c.66-1.32,1.32-2.64,2-4c2.31,0,4.62,0,7,0c-4.78-10.5-9.41-18.81-20-24c-.19,.63-.19,.63-1.12,3.81C731.01,380.11,721,393.05,708,401c-2.25,.68-2.25,.68-4,1c-.03,.44-.03,.44-.19,2.69c-1.02,4.15-2.41,5.76-5.81,8.31c-3.54,.09-5.03-1.02-7.94-3.06c-3.5-2.22-5.01-2.72-9.06-1.94c-2.81,2.44-2.81,2.44-5,5c-.33,.33-.66,.66-1,1c-.87,6.38-.2,11.12,3.58,16.38c3.89,4.45,7.75,4.88,13.42,5.62c1.03,30.98,1.03,30.98-8,41c-5.77,4.71-10.57,5.22-17.8,4.84c-4.87,.24-8.82,2.14-13.19,4.16c-4.34,1.44-7.3,.85-11.35-1.16C634.2,479.78,627.79,474.19,626,465c-1.19-12.46,1.37-19.37,8.44-29.31c7.84-11.16,9.95-20.24,10.83-33.68c1.27-18.41,7.33-35.02,21.52-47.46c11.73-9.18,23.64-13.57,38.39-14.82Z" fill="#041940" /><path d="M1148,101c.53,.13,1.06,.27,1.61,.4c.39,.1,.39,.1,2.39,.6c.48,.12,.48,.12,2.93,.75c12.89,3.08,24.74,2.63,37.73,.7c3.85-.52,7.47-.61,11.34-.45c-.08,.28-.08,.28-.48,1.67c-1.56,6.98-1.15,13.41,2.31,19.67c1.17,1.66,1.17,1.66,2.8,2.87c2.27,2.96,1.68,6.4,1.56,9.98c-.01,.37-.01,.37-.04,2.27c-.04,1.85-.09,3.69-.15,5.54c2.02,.17,4.04,.34,6.06,.5c1.19,.1,2.38,.19,3.6,.29c3.34,.21,3.34,.21,7.28,.02c4.04,.25,5.98,1.61,9.06,4.19c2.76,4.48,2.72,8.89,2,14c-2.03,5.87-4.6,10.68-10,14c-.64,.41-1.28,.83-1.94,1.25c-2.73,.99-5.18,.8-8.06,.75c.06,.89,.12,1.77,.17,2.69c.19,3.33,.33,6.67,.43,10.01c.06,1.43,.13,2.87,.23,4.3c.77,11.74,.77,11.74-2.93,16.98c-2.82,2.65-5.7,4.85-8.9,7.02c-.95,.67-1.89,1.34-2.87,2.03c-2.77,1.88-5.59,3.66-8.44,5.41c-.95,.59-1.9,1.19-2.88,1.81c-12.5,7.81-12.5,7.81-15.94,7.66c-6.66-3.23-12.85-11.28-15.87-17.91c-.46-3.19-.31-5.76,0-9c-1.11,.1-2.23,.21-3.37,.31c-6.17-.01-11.61-2.75-16.27-6.7c-7.23-7.94-7.54-18.69-7.48-28.86c-.01-.84-.01-1.67-.01-2.53c.02-4.61,.29-9.03,.94-13.59c.47-4.01,.46-4.28-2.18-7.69c-.44-.32-.44-.32-2.63-1.94c-2.49-4.98-1.86-13-.35-18.26c.91-1.61,.91-1.61,3.35-3.74c3.75-.37,3.75-.37,7,0c.1-1.3,.21-2.6,.31-3.94c.93-8.26,4.2-15.58,7.69-23.06Z" fill="#FCBA87" /><path d="M352,650c31.12,9.37,56.72,35.35,72.71,62.82c.93,1.57,1.9,3.11,2.91,4.63c4.71,7.61,5.21,13.91,4.94,22.74c0,1.22,0,2.44,0,3.69c-.1,6.71-.71,12.02-3.56,18.12c-.66-.16-.66-.16-4-1c-.18,.54-.35,1.07-.53,1.63c-1.89,5.73-3.92,11.41-6.01,17.08c-.67,1.82-1.34,3.64-2.01,5.46c-1.04,2.84-2.09,5.67-3.13,8.51c-1.02,2.76-2.03,5.52-3.05,8.28c-.31,.84-.62,1.69-.95,2.57c-.29,.79-.58,1.58-.88,2.4c-.25,.69-.51,1.38-.77,2.09C407,811,406.48,812.97,406,815c-3.85-1.28-4.06-2.46-5.9-6.01c-.55-1.06-1.11-2.12-1.68-3.21c-.3-.57-.3-.57-1.79-3.47c-1.26-2.38-2.52-4.76-3.79-7.13c-.32-.61-.64-1.21-.97-1.83c-12.15-22.8-22.52-40.17-47.62-49.66c-1.1-.43-2.19-.86-3.32-1.3c-4.94-1.92-9.89-3.74-14.93-5.39c.12-1.52,.24-3.04,.38-4.56c.06-.85,.13-1.7,.21-2.57c.49-3.4,1.41-6.58,2.41-9.87c1.13-.03,2.27-.05,3.44-.08c15.65-.52,15.65-.52,21.56-4.92c5.7-7.3,4.43-15.52,4.22-24.39c.02-3.33,.06-6.35,.78-9.61c2.17-2.14,4.13-2.79,7-4c1.13-2.51,1.13-2.51,1-5c-1.19-1.96-1.19-1.96-3-3.81c-.64-.69-1.28-1.37-1.95-2.08c-.67-.69-1.35-1.39-2.05-2.11c-7.86-8.21-7.86-8.21-8-14Z" fill="#DEE7F2" /><path d="M765,379c11.39,3.15,21.64,7.33,32,13c.61,.33,1.22,.67,1.85,1.01c9.89,5.47,9.89,5.47,11.15,7.99c.19,1.85,.38,3.71,.54,5.56c.87,9.51,2.66,18.47,7.89,26.69c.98,4.71-1.67,8.42-3.8,12.56c-.44,.89-.88,1.77-1.33,2.68c-1.09,2.18-2.19,4.35-3.3,6.51c.5-.17,.5-.17,3-1.06c3.39-1.18,6.79-2.29,10.21-3.37c1.37-.44,2.74-.9,4.11-1.37c6.02-1.5,11.14,2.34,16.12,5.23c.84,.52,1.69,1.04,2.56,1.57c-.17,.21-.17,.21-1.03,1.26c-3.46,4.39-6.42,8.98-9.22,13.8c-.34,.58-.68,1.16-1.03,1.75c-4.22,7.41-4.95,14.01-5.09,22.32c-.26,8.6-1.42,15.82-4.63,23.87c-1.32,0-2.64,0-4,0c-.17,.65-.34,1.3-.51,1.96c-1.95,7.31-4.17,14.49-6.55,21.67c-.35,1.08-.71,2.17-1.07,3.29c-.17,.51-.17,.51-1.03,3.12c-.31,.93-.61,1.86-.93,2.82C810,554,810,554,808,555c-.32-.84-.64-1.69-.97-2.56C785.79,496.79,785.79,496.79,755,482c1.32-2.64,2.48-2.75,5.19-3.81c9.41-4.13,13.06-9.7,16.81-19.19c2.7-13.15-.91-24.76-6.56-36.62c-6.9-14.87-6.7-27.28-5.44-43.38Z" fill="#DDE6F2" /><path d="M644,393c2,2,2,2,2.27,4.36c-.1,17.31-3.75,30.12-14.76,43.65c-5.4,7.11-5.4,15.35-4.51,23.99c2.31,8.54,7.52,14.46,15.04,18.92C644,485,645.99,486.01,648,487c-2.17,1.45-4.26,2.72-6.55,3.95c-21.57,11.75-29.34,27.12-36.32,50.43C599.75,559.72,595.05,578.32,591,597c-8.1-7.61-10.91-21.44-13.81-31.75c-.29-1.03-.58-2.06-.88-3.12c-10.48-38.63-4.84-79.24,14.54-114.16c6.47-11.11,14.19-20.8,23.15-29.97c.91-.98,1.82-1.96,2.73-2.95c8.13-8.66,17.5-15.35,27.27-22.05Z" fill="#DEE6F2" /><path d="M334.18,593.16C336,594,336,594,338,597c.33,6.33,.33,6.33-1,9c.7-.49,1.4-.99,2.13-1.5c3.34-1.74,5.16-2.15,8.87-1.5c2.61,2.79,2.99,4.92,3.56,8.69c-.28,5.67-2.96,10.04-6.56,14.31c-10,8.45-22.32,11.29-35,13c.16,.45,.16,.45,1,2.75c2.68,9.46,1.61,20.57-3,29.25c-3.61-.31-4.77-.75-7.25-3.5c-3.27-2.97-5.28-3.5-9.59-3.78C289,664,289,664,286,666.31c-3.13,4.21-3.66,7.51-3,12.69c1.41,4.06,3.14,7.21,6.31,10.13C291,691,291,691,291.06,693.75c-2.31,7.08-6.14,11.84-12.06,16.25c-16.03-13.59-35.26-30-37.22-52.56c-.3-9.22,1.25-15.52,7.41-22.5c1.25-1.33,2.52-2.65,3.81-3.94c-.82-.41-1.65-.83-2.5-1.25c-.41-.29-.41-.29-2.5-1.75c0-1.32,0-2.64,0-4c3-2,3-2,6.88-1.62c2.15,.05,2.15,.05,4.12-.38c1.56-1.77,2.51-3.63,3.61-5.71c5.22-8.63,14.67-13.57,24.17-16c5.27-.96,10.4-1.32,15.74-1.45c19.15-.47,19.15-.47,27.27-4.88c2.21-.96,2.21-.96,4.39-.8Z" fill="#051940" /></g><g data-h="807.4" data-w="1135.3" data-cy="504.7" data-cx="697.4" data-part="connectors"><path d="M684,476c.66,0,1.32,0,2,0c1.01,1.66,2.01,3.33,3,5c1.72,2.01,3.44,3.95,5.25,5.88c.49,.53,.99,1.06,1.5,1.6c.98,1.05,1.96,2.09,2.94,3.14c1.06,1.11,2.09,2.24,3.13,3.36c6.09,6.43,14.05,13.44,22.18,17.02c1.02-3,2.01-6,3-9c.34-.99,.67-1.98,1.02-3c2.61-7.99,4.03-15.66,4.98-24c.66,0,1.32,0,2,0c3.59,14.6,6.31,29.07,8,44c.1,.84,.19,1.68,.29,2.54c2.28,21,1.95,42.03,1.85,63.12c-.03,5.77-.04,11.54-.05,17.31c-.02,8.67-.06,17.35-.09,26.03c-11.55,0-23.1,0-35,0c-.05-2.99-.1-5.98-.15-9.06c-.05-2.96-.11-5.91-.17-8.86c-.04-2.02-.07-4.05-.1-6.07c-.27-16.95-1.71-33.02-5.2-49.63c-.26-1.23-.52-2.45-.78-3.71c-3.73-17.43-8.38-34.65-13.67-51.66c-1.3-4.19-2.5-8.41-3.68-12.63c-.11-.39-.11-.39-.67-2.35c-.86-3.1-1.58-5.8-1.58-9.03Z" fill="#FAFBFD" /><path d="M138.74,896.62c1.2-.01,2.4-.01,3.64-.02c1.34,.01,2.69,.01,4.03,.02c1.42,0,2.84-.01,4.26-.02c3.91-.01,7.82,0,11.73,.01c4.22,0,8.43-.01,12.65-.01c8.26-.02,16.52-.01,24.78-.01c6.71,.01,13.42,.01,20.13,.01c.95,0,1.9,0,2.89,0c1.93,0,3.87,0,5.81-.01c18.18,0,36.36,.01,54.54,.02c15.61,.02,31.23,.01,46.84,0c18.12-.02,36.23-.02,54.35-.01c1.93,0,3.86,0,5.79,0c.95,0,1.9,0,2.87,0c6.71,0,13.42,0,20.12-.01c8.17-.01,16.34-.01,24.5,.01c4.17,.01,8.34,.01,12.51,0c3.82-.01,7.63,0,11.44,.01c1.39,.01,2.77,.01,4.15,0c1.88-.01,3.75,0,5.62,.01c.52,0,.52,0,3.16,0c.4,.07,.4,.07,2.45,.38c2.3,3.45,2.34,4.95,2,9c-2.66,2.66-3.89,2.25-7.61,2.25c-1.2,.01-2.4,.02-3.64,.02c-1.34,0-2.69-.01-4.03-.01c-1.42,0-2.84,.01-4.26,.01c-3.91,.01-7.82,.01-11.73,.01c-4.21-.01-8.43,0-12.64,.01c-8.26,.01-16.52,.01-24.78,.01c-6.71,0-13.42,0-20.13,.01c-.96,0-1.91,0-2.89,0c-1.94,0-3.88,0-5.81,0c-18.19,.01-36.37,.01-54.55,0c-16.65,0-33.3,.01-49.95,.03c-17.08,.02-34.15,.03-51.23,.02c-9.6,0-19.19,0-28.79,.02c-8.16,.01-16.33,.01-24.5,0c-4.17-.01-8.34-.01-12.51,0c-3.82,.02-7.63,.01-11.44,0c-1.39,0-2.77,0-4.15,.01c-1.88,.01-3.75,0-5.62-.02c-1.05,0-2.09,0-3.16,0c-2.58-.37-2.58-.37-4.42-1.74c-1.66-2.33-1.58-3.83-1.16-6.63c2.45-3.43,4.68-3.38,8.74-3.38Z" fill="#0A1E48" /><path d="M1217,211c1.32,.66,2.64,1.32,4,2c.45,7.3-.54,12.88-3.22,19.65c-.35,.93-.7,1.86-1.07,2.81c-1.21,3.19-2.46,6.37-3.71,9.54c-.71,1.82-1.42,3.64-2.13,5.46c-3.15,8.04-6.34,16.07-9.54,24.09c-1.38,3.46-2.76,6.91-4.13,10.37c-5.72,14.37-11.45,28.73-17.2,43.08c-.33,0-.66,0-1,0c-.16-8.32-.29-16.64-.36-24.96c-.04-3.86-.09-7.73-.17-11.59c-.07-3.73-.12-7.47-.13-11.2c-.02-1.42-.04-2.84-.08-4.26c-.32-12.49-.32-12.49,4.41-18.12c.33-.32,.33-.32,2.02-1.94c.43-.64,.86-1.28,1.31-1.93c-.98-3.67-2.77-6.25-5.12-9.19c-2.88-3.59-2.88-3.59-2.88-5.81c-1.27,1.1-2.54,2.21-3.81,3.31c-.36,.31-.36,.31-2.15,1.87c-.67,.6-1.35,1.2-2.04,1.82c-.59,.47-1.17,.94-1.78,1.43c-1.22,1.57-1.22,1.57-1.33,3.87c.12,.85,.24,1.7,.36,2.58c.11,.84,.22,1.68,.33,2.55c.42,2.57,.42,2.57,1.04,4.83c.48,3.43-.16,5.83-1.06,9.17c-.34,1.28-.67,2.55-1.01,3.87c-.18,.67-.36,1.35-.55,2.04c-3.58,13.36-6.57,26.76-9.1,40.35c-.22,1.18-.44,2.36-.67,3.58c-.19,1.04-.38,2.07-.58,3.14C1155,326,1155,326,1153,329c-1.7-12.49-2.32-24.77-2.26-37.38c.01-2.85,0-5.71-.01-8.57c-.02-16.76,.7-33.74,4.21-50.17c.15-.83,.31-1.65,.47-2.49c1.52-7.43,1.52-7.43,4.59-10.39c.66,0,1.32,0,2,0c1.31,1.66,2.55,3.38,3.75,5.13c6.13,8.57,6.13,8.57,10.25,11.87c13.7-.85,31.65-17.14,41-26Z" fill="#F9FAFB" /><path d="M560.64,628.75c.61,0,.61,0,3.66-.02c1.36,.01,2.71,.01,4.06,.02c1.43-.01,2.86-.01,4.28-.01c3.94-.01,7.88-.01,11.81,0c4.24,0,8.48,0,12.72-.01c8.32-.01,16.63-.01,24.94,0c6.75,0,13.5,0,20.26,0c.48,0,.48,0,2.9,0c1.95,0,3.9,0,5.85,0c18.29-.01,36.59,0,54.88,.01c15.71,.01,31.42,.01,47.13,0c18.23-.01,36.45-.02,54.68-.01c1.94,0,3.88,0,5.82,0c.48,0,.48,0,2.9,0c6.75,.01,13.49,0,20.24,0c8.22-.01,16.44-.01,24.66,0c4.19,.01,8.39,.01,12.59,0c3.83,0,7.67,0,11.51,.01c1.39,0,2.78,0,4.18,0c1.88-.01,3.76,0,5.65,.01c1.05,0,2.09,0,3.18,0C901,629,901,629,903,631c.19,3.06,.19,3.06,0,6c-1.75,1.75-4.18,1.13-6.56,1.13c-1.21,0-2.42,0-3.67,0c-1.37,0-2.73,0-4.09,0c-1.44,0-2.88,0-4.31,0c-3.97,.01-7.93,0-11.89,0c-4.27,0-8.54,0-12.8,0c-8.37,.01-16.74,.01-25.1,.01c-6.8-.01-13.6-.01-20.4-.01c-.96,0-1.93,0-2.92,0c-1.96,0-3.92,0-5.88,.01c-18.41,0-36.82-.01-55.23-.01c-15.82-.01-31.63,0-47.45,0c-18.34,.01-36.68,.01-55.02,0c-1.96,0-3.91,0-5.86,0c-.49,0-.49,0-2.92,0c-6.79,0-13.58,0-20.38,.01c-8.27,0-16.54,0-24.81-.01c-4.23,0-8.45,0-12.68,0c-3.86,.01-7.72,0-11.58,0c-1.4,0-2.81,0-4.21,0c-1.9,0-3.79,0-5.68,0c-1.06,0-2.12,0-3.21,0C554,638,554,638,553,637c-.19-2.94-.19-2.94,0-6c2.67-2.67,3.92-2.25,7.64-2.25Z" fill="#031841" /><path d="M876,481c1.82,2.73,2.39,4.02,3.04,7.1c.16,.8,.33,1.6,.51,2.43c.17,.84,.34,1.67,.51,2.53c.18,.81,.35,1.62,.53,2.45c8.17,39.41-2.17,80.9-23.59,114.49c-8.82,12.82-8.82,12.82-13,17c.66,.66,1.32,1.32,2,2c-4.95,0-9.9,0-15,0c.89-1.11,1.77-2.23,2.69-3.37c13.7-18.36,16.01-43.94,19.56-65.94c.13-.81,.26-1.62,.4-2.45c1.29-8.06,2.56-16.11,3.35-24.24c-1.32-.66-2.64-1.32-4-2c.29-2.34,.63-4.67,1-7c.19-1.3,.37-2.6,.56-3.94c.91-3.51,2.36-5.23,5-7.68c9.34-8.71,14.62-18.77,16.44-31.38Z" fill="#DDE6F3" /><path d="M1032,250c2.06,1.88,2.06,1.88,3,4c-.31,2.75-.31,2.75-1,5c-3.1,.14-5.44,.24-8.31-1c-3.88-1.44-7.59-1.16-11.69-1c-.33,.66-.66,1.32-1,2c.58-.07,1.17-.14,1.77-.21c7.94-.53,13.49,2.2,20.23,6.21c1,1,1,1,1.06,4.06c-.02,.97-.04,1.94-.06,2.94c-1.79,.62-1.79,.62-4,1c-1.83-1-3.67-2-5.5-3.01c-4.91-1.95-10.27-1.83-15.5-1.99c0,.66,0,1.32,0,2c.69-.05,1.38-.09,2.09-.14c7.5-.29,13.77,.64,19.65,5.61c1.78,2.16,1.48,3.82,1.26,6.53c-4.08,.19-6.42-.15-10-2c-1.67-.04-3.33-.04-5,0c.39,.16,.39,.16,2.37,.95c1.01,.43,2.02,.86,3.07,1.3c1.01,.42,2.02,.84,3.06,1.27c2.5,1.48,2.5,1.48,3.41,3.53C1031,289,1031,289,1030,291c-5.15,.09-9.92-.15-15-1c0,.66,0,1.32,0,2c.97-.02,1.94-.04,2.94-.06C1021,292,1021,292,1022,293c3.84,.14,7.32,.18,11-1c4,4.75,4,4.75,4,7c.66,0,1.32,0,2,0c-2.62-5.75-2.62-5.75-6-8c-.31-3.5-.31-3.5,0-7c.66-.66,1.32-1.32,2-2c-.02-1.11-.04-2.23-.06-3.37c.07-4.04,.74-4.6,3.06-7.63c-.2-3.98-1.84-6.71-4-10c.66-.66,1.32-1.32,2-2c.41-3.84-.41-6.52-2-10c2.64-.66,5.28-1.32,8-2c1.8,3.2,3.59,6.41,5.38,9.63c.5,.9,1.01,1.8,1.53,2.73c.49,.89,.98,1.77,1.49,2.68c.45,.81,.9,1.61,1.36,2.44c3.56,7.24,3.88,14.4,4.2,22.31c.07,1.48,.15,2.95,.25,4.42c.81,12.09,.81,12.09-1.54,16.01c-1.81,1.62-3.5,2.7-5.67,3.78c-1.11,.6-2.21,1.21-3.35,1.83c-1.08,.47-2.16,.94-3.27,1.42c-1.09,.48-2.18,.96-3.29,1.45c-1.02,.43-2.04,.86-3.09,1.3c-.9,.38-1.8,.77-2.72,1.16c-2.56,.94-4.58,.99-7.28,.84c-.27-.97-.54-1.94-.81-2.94c-1.64-3.88-4.07-5.77-7.38-8.31c-7.61-5.97-13.54-12.24-15.31-22c-.2-1.91-.38-3.83-.5-5.75c-.1-1.15-.21-2.31-.31-3.5c1.19-13.38,1.19-13.38,4.31-16.5c.21-1.47,.37-2.95,.5-4.44c.39-4.34,.39-4.34,1.5-6.56c-.66-.33-1.32-.66-2-1c8.77-2.02,17.92-2.19,26,2Z" fill="#FDB986" /><path d="M870,453c2.7,2.06,3.84,3.35,4.67,6.67c.08,.99,.15,1.99,.23,3.02c.08,1.11,.17,2.22,.26,3.37c.04,.58,.04,.58,.22,3.5c.09,1.13,.18,2.26,.28,3.43c1.01,14.33-1.7,23.84-11.05,34.82c-1.55,1.72-3.11,3.42-4.69,5.1c-3.45,3.76-4.47,6.86-5.54,11.78c-.27,1.18-.53,2.36-.79,3.57c-.2,.91-.39,1.81-.59,2.74c-5.23-.55-9.7-1.84-14.56-3.87c-.64-.26-1.27-.52-1.92-.78c-3.94-1.61-7.74-3.41-11.52-5.35c.41-3.92,.8-7.38,2.02-11.14c1.21-4.76,1.27-9.21,1.36-14.11c.54-14.58,5.57-26.24,14.62-37.75c3-2,3-2,7-2c-.33,1.99-.65,3.97-.98,5.96C849,464,849,464,851,467c-.82,.72-1.65,1.44-2.5,2.19c-2.5,2.81-2.5,2.81-2.94,5.37C846,477,846,477,847.06,479c.94,2,.94,2,.44,4.44c-.63,3.22,.2,4.59,1.5,7.56c.94,3,.94,3,1,6c-2.37,2.75-2.37,2.75-5,5c-.33,.66-.66,1.32-1,2c.64-.76,1.28-1.53,1.94-2.31c4.06-4.08,9.49-5.53,15.12-5.88c.32,.03,.32,.03,1.94,.19c0-.99,0-1.98,0-3c-.43,.17-.43,.17-2.62,1c-3.34,.99-5.93,1.16-9.38,1c-.75-1.75-.75-1.75-1-4c2.68-3.54,5.85-5.51,10-7c3.06,.05,5.99,.45,9,1c0-.66,0-1.32,0-2c-9.53-.69-9.53-.69-13.87,2.06C852,487,852,487,849.56,486.75c-.51-.25-1.03-.49-1.56-.75c.22-3.83,.94-4.94,3.75-7.69c5.05-3.59,9.11-4.59,15.25-5.31c-5.8-.41-9.21,.19-14.24,3.13C851,477,851,477,848,477c-.56-2.62-.56-2.62,0-6c4.62-4.06,9.44-7.15,15.63-7.06c.4,0,.4,0,2.47,.02c.31,.01,.31,.01,1.9,.04c0-.66,0-1.32,0-2c-5.69,.54-11.35,1.14-17,2c-.33-1.65-.66-3.3-1-5c5.92-5.38,12.22-6.77,20-6Z" fill="#FCB987" /><path d="M472,699c3.15,3.56,3.21,6.39,3,11c.17,.33,.17,.33,1,2c.31,2.33,.51,4.66,.72,7c.28,2,.28,2,1.28,3c1.21,14.32-1.75,22.55-11.04,33.68c-1.36,1.61-2.73,3.2-4.13,4.78c-1.97,2.73-2.55,4.56-3.08,7.85c-.15,.89-.3,1.77-.45,2.68c-.1,.66-.2,1.33-.3,2.01c-3.43,1.19-5.23,.82-8.55-.55c-.87-.35-1.73-.7-2.62-1.06c-.89-.38-1.78-.75-2.7-1.14c-.89-.36-1.78-.72-2.69-1.09c-4.58-1.89-9.05-3.87-13.44-6.16c.32-1.23,.64-2.46,.98-3.72c1.54-6.92,1.38-13.9,1.41-20.95c.23-10.26,3.52-17.99,8.67-26.7c.34-.59,.68-1.18,1.03-1.79c1.8-3.1,3.69-6.03,5.91-8.84c1.65,.66,3.3,1.32,5,2c-.1,.54-.1,.54-.62,3.25c-.37,3.63-.36,4.83,1.62,7.75c-.33,.34-.33,.34-2,2.06c-2.44,3.58-2.33,5.7-2,9.94c.66,0,1.32,0,2,0c-.04,1.11-.08,2.23-.12,3.38C451,733,451,733,453,735c.88,3.31,.88,3.31,1,7c-1.87,2.81-1.87,2.81-4,5c-.33,.66-.66,1.32-1,2c.66,0,1.32,0,2,0c.14-.31,.14-.31,.88-1.87C453,745,453,745,455,743c2.02-.6,2.02-.6,4.38-1.06c2.89-.59,5.76-1.2,8.62-1.94c0-.66,0-1.32,0-2c-1.05,.5-2.1,.99-3.19,1.5c-3.06,1.33-5.43,1.81-8.81,1.5c-.33-1.65-.66-3.3-1-5c5.33-4.6,8.88-7.03,16-8c-6.28,.28-9.75,1.34-15,5c-2.37-.25-2.37-.25-4-1c.11-3.72,1.27-5.64,3.88-8.12c4.47-3.63,9.57-4.74,15.12-5.88c-5.81-.62-8.96,.74-13.89,3.81c-2.06,1.16-3.8,1.74-6.11,2.19c-.75-2.19-.75-2.19-1-5c2.54-4.17,5.71-6.73,10-9c3-.59,5.95-.86,9-1c0-.66,0-1.32,0-2c-1.46,.31-2.92,.62-4.37,.94c-.82,.17-1.63,.35-2.47,.52C460,709,460,709,458,710c-2,.04-4,.04-6,0c0-2.69,0-2.69,1-6c5.79-5.01,11.5-6.91,19-5Z" fill="#FCB986" /><path d="M1178,239c1.63,2.14,3.14,4.27,4.63,6.5c.21,.31,.21,.31,1.27,1.88c1.04,1.54,2.07,3.08,3.1,4.62c-1.23,2.8-2.42,4.45-4.56,6.73c-3.67,5.13-3,10.83-2.82,16.9c.07,2.14,.1,4.29,.12,6.43c.07,5.34,.19,10.67,.31,16c.1,4.51,.18,9.02,.23,13.52c.03,2.1,.09,4.2,.16,6.29c.11,8.7-1.33,14.52-5.44,22.13c-.58,1.35-1.14,2.72-1.67,4.09c-.24,.62-.48,1.24-.73,1.88c-.23,.62-.47,1.25-.71,1.89c-.26,.67-.52,1.34-.79,2.03c-.81,2.1-1.61,4.2-2.41,6.3c-.56,1.44-1.11,2.88-1.67,4.33c-1.34,3.49-2.68,6.98-4.02,10.48c-.66,0-1.32,0-2,0c-1.2-5.06-2.32-10.13-3.39-15.22c-.41-1.85-.84-3.7-1.29-5.54c-4.06-16.49-2.58-29.38,1.76-45.7c1.52-5.83,2.79-11.72,4.11-17.6c1.57-6.89,3.25-13.68,5.33-20.43c.7-3.65,0-6.68-.98-10.22c-.63-2.68-.95-4.55-.54-7.29c2.12-2.68,2.12-2.68,4.88-5.31c.9-.89,1.8-1.77,2.74-2.68C1176,239,1176,239,1178,239Z" fill="#0774FA" /><path d="M1148,101c.53,.13,1.06,.27,1.61,.4c.39,.1,.39,.1,2.39,.6c.48,.12,.48,.12,2.93,.75c12.89,3.08,24.74,2.63,37.73,.7c3.85-.52,7.47-.61,11.34-.45c-.08,.28-.08,.28-.48,1.67c-1.56,6.98-1.15,13.41,2.31,19.67c1.17,1.66,1.17,1.66,2.8,2.9c2.21,2.83,1.68,6.01,1.56,9.45c-.01,.35-.01,.35-.04,2.12c-.04,1.73-.09,3.46-.15,5.19c-14.22-1.07-14.22-1.07-17.81-4.96c-5.21-4.85-14.45-5.61-21.37-5.41c-1.82,.37-1.82,.37-3.88,2.43c-1.94,1.94-1.94,1.94-3.85,2.16c-4.01-.29-4.01-.29-6.09-1.22c-.43-.8-.86-1.6-1.3-2.42c-2.4-3.63-4.73-3.86-8.89-4.89c-1.27-.33-2.54-.65-3.85-.99c-.98-.23-1.95-.46-2.96-.7c.79-9.9,3.83-18.04,8-27Z" fill="#FBBC8B" /><path d="M1141.04,127.6c12.31,1.66,12.31,1.66,15.96,6.4c0,.99,0,1.98,0,3c5.32,.35,5.32,.35,8,0c.32-.33,.32-.33,1.94-2c2.36-2.29,2.9-2.34,6.06-2.44c5.77,.29,11.65,1.25,17,3.44c.7,.81,1.41,1.61,2.13,2.44c4.3,3.84,9,4.29,14.56,5.31c2.09,.41,4.17,.82,6.26,1.23c.92,.18,1.84,.35,2.79,.53C1218,146,1218,146,1220,147c0,.66,0,1.32,0,2c-8.89-.65-17.37-2.87-26-5c.02,.53,.02,.53,.14,3.23c-.19,5.1-1.94,7.92-5.14,11.77c-2.69,1.94-2.69,1.94-5,3c-.33,.17-.33,.17-2,1c-5.44,.65-8.79-.35-13.2-3.38c-4.2-3.77-5.67-7.97-6.11-13.49C1163,143,1163,143,1164,141c-2.31-.33-4.62-.66-7-1c-.11,.72-.21,1.43-.32,2.17c-.75,3.12-1.91,5.34-3.55,8.08c-.26,.44-.26,.44-1.56,2.64C1150,155,1150,155,1147,156c-6.52,.77-10.7-.1-16-4c-3.53-5.17-2.52-12.06-2-18c1.48-6.51,6.16-6.73,12.04-6.4Z" fill="#212642" /><path d="M360,855c3.46,3.41,6.79,6.9,10.06,10.5c.84,.92,1.68,1.84,2.54,2.78c2.4,2.72,2.4,2.72,4.31,5.24c2.52,2.99,5.41,5.28,8.53,7.61c.56,.42,1.12,.85,1.69,1.3c5.11,3.87,9.72,6.71,15.87,8.57c-.87,3.88-.87,3.88-2,5c-1.41,.09-2.83,.12-4.24,.11c-.91,0-1.81,0-2.73,0c-.98,0-1.96-.01-2.97-.01c-1,0-2-.01-3.02-.01c-3.2,0-6.4-.01-9.6-.03c-2.17,0-4.33-.01-6.49-.01c-5.32-.01-10.63-.03-15.95-.05c-.06-5.37-.08-10.64,.62-15.98c.13-1.02,.26-2.04,.4-3.09c.14-1.03,.27-2.06,.42-3.12c.13-1.04,.27-2.08,.41-3.15c.68-5.23,1.39-10.45,2.15-15.66Z" fill="#DCE6F4" /><path d="M1153,244c2.57,3.85,3.59,7.59,5,12c2.64-1.98,5.28-3.96,8-6c.57,1.59,1.11,3.2,1.63,4.81c.3,.9,.6,1.79,.91,2.71c1.11,8.41-2.16,17.2-4.29,25.29c-2.86,11.08-5.14,22.23-7.25,33.48c-.23,1.22-.46,2.44-.7,3.7c-.21,1.09-.41,2.18-.62,3.3C1155,326,1155,326,1153,329c-1.7-12.49-2.32-24.77-2.26-37.38c.01-2.85,0-5.71-.01-8.57c-.01-13.11,.86-26.02,2.27-39.05Z" fill="#F3F5F9" /><path d="M1026,159c2.2,1.59,2.2,1.59,4,4c.43,3.19,.43,3.19,.31,7c-.01,.69-.03,1.38-.05,2.08c-.06,2.31-.16,4.61-.26,6.92c-.03,.85-.07,1.7-.1,2.57c-.23,5.82-.48,11.63-.9,17.43c-.05,.76-.1,1.52-.15,2.3c-.2,2.17-.2,2.17-.85,5.7c-3.85,2.57-5.59,1.83-10,1c-2.86-11.25-3.12-22.51-3.31-34.06c-.03-1.01-.06-2.03-.09-3.07c-.06-7.19-.06-7.19,2.2-10.52c3.25-1.99,5.47-1.88,9.2-1.35Z" fill="#FDF8F6" /><path d="M467.96,611.5c3.09,.76,4.19,1.93,6.04,4.5c.36,2.74,.47,5.02,.38,7.75c-.02,.77-.03,1.53-.05,2.32c-.18,6.99-.67,13.96-1.2,20.93c-.08,1.06-.16,2.11-.24,3.2c-.04,.49-.04,.49-.26,2.99c-.07,.88-.14,1.76-.22,2.67C472,658,472,658,470,660c-3.5,.25-3.5,.25-7,0c-3.01-3.01-2.75-6.62-3.12-10.69c-.09-.87-.17-1.74-.26-2.64c-.6-7.08-.86-14.14-.93-21.23c-.02-1-.04-1.99-.06-3.01c.01-.93,.01-1.85,.01-2.81c-.01-.82-.01-1.64-.01-2.49c.92-5.31,4.48-5.49,9.33-5.63Z" fill="#FDF8F6" /><path d="M1171.13,135.54c15.15,.53,15.15,.53,19.66,3.73c2.09,2.99,1.19,5.83,.72,9.29c-.89,4.27-2.74,6.6-5.63,9.75c-4.02,2.36-7.33,2.49-11.88,1.69c-4.07-2.07-6.36-3.75-8-8c-.3-2.87-.3-2.87-.31-6c-.02-1.03-.04-2.06-.05-3.12c.49-3.88,1.44-6.46,5.49-7.34Z" fill="#F3B889" /><path d="M866,376c2,2,2,2,2.23,5.97c0,1.7-.02,3.4-.04,5.09c-.01,.89-.02,1.78-.03,2.7c-.04,2.75-.1,5.49-.16,8.24c-.01,.84-.03,1.68-.04,2.54c-.05,2.32-.12,4.64-.21,6.96c-.01,.7-.03,1.4-.04,2.12c-.17,3.35-.54,5.15-2.59,7.85C863,419,863,419,860.38,418.94C858,418,858,418,856,415c-.75-4.62-.84-9.32-1-14c-.03-.94-.07-1.89-.1-2.86c-.1-3.11-.16-6.22-.21-9.33c-.03-1.01-.06-2.03-.09-3.08c-.01-.95-.02-1.91-.03-2.9c-.01-.86-.02-1.72-.04-2.6c.47-2.23,.47-2.23,2.27-4.04c3.3-1.78,5.65-1.04,9.2-.19Z" fill="#FDF6F3" /><path d="M1142.06,130.63c4.14,.52,9.86,1.29,12.94,4.37c.72,6.83-.75,10.65-5,16c-2.64,2.91-3.89,2.99-7.87,3.5c-4.77-.16-6.87-2.16-10.13-5.5c-2.36-4.71-1.45-11.23-.19-16.19c3.25-2.69,6.13-2.36,10.25-2.18Z" fill="#EEB68C" /><path d="M1031,249c.99,0,1.98,0,3,0c1.98,2.56,2.93,4.4,3.31,7.63C1037,259,1037,259,1035,262c.34,.35,.34,.35,2.06,2.13c1.94,2.87,1.94,2.87,1.82,5.93c-.88,2.94-.88,2.94-1.94,5c-.94,1.94-.94,1.94-.94,4.57c0,.78,0,1.56,0,2.37c-.66,.66-1.32,1.32-2,2c-.44,3.31-.44,3.31,0,7c2.5,2.75,2.5,2.75,5,5c0,.99,0,1.98,0,3c-.66,0-1.32,0-2,0c-1.39-1.96-2.73-3.96-4-6c-.26,.08-.26,.08-1.56,.5c-5.92,1.21-10.83,.33-16.44-1.5c0-.66,0-1.32,0-2c4.95,.33,9.9,.66,15,1c0-1.65,0-3.3,0-5c-6.37-3.17-11.85-5.6-19-6c0-.33,0-.66,0-1c2.08-.05,4.17-.09,6.25-.12c1.16-.03,2.32-.05,3.52-.08c3.13,.19,4.58,.67,7.23,2.2c1.99,.38,3.99,.73,6,1c-.61-3-1.11-5.3-3.59-7.25c-4.71-2.7-8.75-3.87-14.1-4.31c-.99-.09-1.99-.17-3.01-.26c-.38-.03-.38-.03-2.3-.18c0-.66,0-1.32,0-2c8.28-.45,13.83-.25,21,4c.99,0,1.98,0,3,0c0-1.98,0-3.96,0-6c-7.33-4.12-13.51-6.96-22-7c.33-.99,.66-1.98,1-3c5.24-.21,9.13-.11,14,2c3.31,.13,3.31,.13,6,0c-.56-3.34-1.35-6.03-3-9Z" fill="#D07B51" /><path d="M669,489c.66,0,1.32,0,2,0c-.41,9.8-.82,19.4-3,29c.83,.25,1.65,.5,2.5,.75c4.02,1.44,7.72,3.27,11.5,5.25c-1.32,2.9-2.41,4.43-4.69,6.81C675,534,675,534,675.17,537.29c.84,3.78,2.03,6.74,3.75,10.19c.15,.3,.15,.3,.9,1.83c.64,1.29,1.28,2.58,1.93,3.87c1.71,3.43,3.4,6.88,5.09,10.32c.17,.35,.17,.35,1.04,2.13c3.3,6.7,6.49,13.45,9.64,20.22c.84,1.81,1.69,3.61,2.53,5.41c.51,1.1,1.01,2.19,1.54,3.31c.44,.96,.88,1.91,1.34,2.9c.92,2.18,1.58,4.22,2.07,6.53c-3-1-3-1-4.11-2.91c-.35-.85-.71-1.71-1.08-2.59c-2.21-5.12-4.5-10.2-6.87-15.25c-.33-.71-.66-1.42-1-2.15c-1.53-3.26-3.1-6.38-4.94-9.49c-2.05-3.51-3.45-7.17-4.91-10.95c-1.13-2.76-2.4-5.39-3.74-8.05c-.45-.9-.89-1.79-1.35-2.71c-.93-1.83-1.87-3.66-2.82-5.48c-.22-.45-.22-.45-1.33-2.69c-.2-.39-.2-.39-1.22-2.39c-.84-3.13-.14-4.53,1.37-7.34c1.65-1.69,3.31-3.36,5-5c.33-.99,.66-1.98,1-3c-.69-.19-1.37-.39-2.08-.59c-.9-.26-1.8-.52-2.73-.78c-.45-.13-.45-.13-2.71-.78C669,521,669,521,666,519c-1.76-9.67,1.22-20.47,3-30Z" fill="#004DAE" /><path d="M1233,279c1.15,3.71,1.15,3.71-.16,6.31c-.63,.89-1.26,1.78-1.9,2.69c-.37,.53-.37,.53-2.23,3.2c-.22,.29-.22,.29-1.29,1.8c-1.59,2.24-3.16,4.49-4.72,6.74c-6.82,9.81-13.72,19.56-20.7,29.26c-.25,.35-.25,.35-1.54,2.15c-6.04,8.4-12.08,16.78-18.33,25.02c-1.54,2.05-3.07,4.11-4.58,6.19c-.4,.56-.81,1.11-1.23,1.69c-1.13,1.54-2.25,3.1-3.37,4.65C1171,371,1171,371,1168,372c1.39-3.97,3.24-6.88,5.81-10.19c.82-1.06,1.63-2.12,2.44-3.19c.44-.58,.89-1.15,1.34-1.75c2.61-3.46,5.13-6.98,7.66-10.49c.55-.77,1.1-1.53,1.67-2.32c1.13-1.57,2.26-3.14,3.39-4.71c2.19-3.04,4.38-6.08,6.57-9.11c1.08-1.5,2.16-2.99,3.24-4.48c2.74-3.8,5.48-7.59,8.24-11.37c5.99-8.23,11.84-16.54,17.42-25.06c2.31-3.51,4.76-6.92,7.22-10.33Z" fill="#172E59" /><path d="M750,489c.66,0,1.32,0,2,0c2.17,2.9,3.88,6.11,5.69,9.25c.52,.87,1.05,1.75,1.59,2.64c.49,.85,.98,1.69,1.48,2.56c.46,.78,.91,1.55,1.38,2.35c1.01,2.59,.85,3.65-.14,6.2c-1.19,1.92-1.19,1.92-2.56,3.75c-.46,.61-.91,1.23-1.38,1.86c-.35,.46-.7,.92-1.06,1.39c.32,.2,.32,.2,1.97,1.21c.83,.57,1.67,1.14,2.53,1.73c.84,.54,1.67,1.09,2.53,1.65c3.01,3.68,2.42,6.83,1.97,11.41c-.43,3.98-1,7.92-1.62,11.88c-.09,.56-.09,.56-.54,3.39c-1.36,8.4-3.01,16.73-4.84,25.04c-.24,1.08-.47,2.16-.72,3.27c-1.73,7.59-3.9,15-6.28,22.42c-.66,0-1.32,0-2,0c1.07-6.17,2.25-12.28,3.7-18.37c2.3-9.66,4.3-19.37,6.11-29.13c.22-1.13,.44-2.26,.67-3.43c1.41-7.83,2.77-16.15,1.52-24.07c-2.34-2.8-4.71-4.46-8-6c.59-2.99,1-4,3.13-6.37C759,511,759,511,758.87,508.36c-1.1-4.25-2.9-7.86-4.93-11.73c-.38-.74-.76-1.48-1.15-2.24c-.92-1.8-1.85-3.59-2.79-5.39Z" fill="#014BA9" /><path d="M850,457c.66,.33,1.32,.66,2,1c-.33,1.65-.66,3.3-1,5c.95-.16,1.9-.33,2.88-.5c4.7-.69,9.38-.59,14.12-.5c0,.66,0,1.32,0,2c-.64,.02-.64,.02-3.87,.13c-5.87,.66-10.66,3.03-15.13,6.87c-1.12,3.38-1.12,3.38-1,6c.7-.36,1.4-.72,2.13-1.09c5.92-2.9,10.26-4.75,16.87-3.91c.66,.66,1.32,1.32,2,2c-.8,.1-1.59,.2-2.41,.3c-7.58,1.07-12.13,2.24-17.59,7.7c0,1.32,0,2.64,0,4c2.95-.42,4.86-.91,7.38-2.56c3.39-1.86,5.8-1.72,9.62-1.44c.99,.33,1.98,.66,3,1c0,.66,0,1.32,0,2c-.56-.05-1.11-.09-1.69-.14c-5.63-.27-10.93,.24-15.31,4.14c-.33,1.65-.66,3.3-1,5c1.98-.16,1.98-.16,12-1c0,.99,0,1.98,0,3c-.89,.16-1.78,.32-2.7,.48c-.59,.12-.59,.12-3.55,.71c-1.16,.22-2.32,.44-3.52,.67c-3.79,1.34-4.93,2.92-7.23,6.14c-.66,0-1.32,0-2,0c1.66-4.72,1.66-4.72,3.69-6.37C849,496,849,496,848.81,492.5C848,489,848,489,846,486c.33-2.33,.66-4.67,1-7c-.66-.66-1.32-1.32-2-2c-.44-2.25-.44-2.25,0-5c1.5-2.22,3.16-4.03,5-6c-.66-.66-1.32-1.32-2-2c-.25-2.5-.25-2.5,0-5c.66-.66,1.32-1.32,2-2Z" fill="#D07F53" /><path d="M452,703c.66,.33,1.32,.66,2,1c-.66,1.98-1.32,3.96-2,6c1.13-.31,2.27-.62,3.44-.94c4.48-1.13,8.96-1.66,13.56-2.06c0,.66,0,1.32,0,2c-.72,.16-1.45,.32-2.2,.48c-6.14,1.48-10.55,2.72-14.8,7.52c-.87,3.31-.87,3.31-1,6c3.23-.64,5.53-1.83,8.31-3.56c4.22-2.43,6.88-2.95,11.69-2.44c.33,.66,.66,1.32,1,2c-.39,.07-.39,.07-2.38,.45c-6.5,1.38-12.63,2.8-16.62,8.55c0,1.32,0,2.64,0,4c2.95-.62,5.25-1.59,7.88-3.06c3.51-1.83,6.11-2.34,10.12-1.94c.33,.66,.66,1.32,1,2c-.58,.1-1.16,.2-1.76,.3c-5.18,.99-9.16,2.13-13.24,5.7c-.87,2.75-.87,2.75-1,5c4.03-.55,8.02-1.16,12-2c0,.66,0,1.32,0,2c-3.62,1.63-6.88,2.97-10.75,3.94c-3.54,1.15-4.32,2.01-6.25,5.06c-.66,0-1.32,0-2,0c1.86-4.78,1.86-4.78,3.25-6.94c1.13-3.12,0-5.1-1.25-8.06c-.33-.33-.66-.66-1-1c.29-2.34,.62-4.67,1-7c-.66,0-1.32,0-2,0c-.75-3.19-.75-3.19-1-7c1.94-2.94,1.94-2.94,4-5c-.35-.56-.7-1.11-1.06-1.69c-1.17-2.88-.79-4.36,.06-7.31c.33-.66,.66-1.32,1-2Z" fill="#CC784C" /><path d="M1195,200c0,3.93-1.14,4.57-3.87,7.31c-7.15,6.9-16.43,13.33-26.63,13.88c-.82-.06-1.65-.13-2.5-.19c0-3.3,0-6.6,0-10c.9-.05,1.79-.1,2.72-.16c10.84-.98,18.85-4.55,28.28-9.84c.66-.33,1.32-.66,2-1Z" fill="#CD784F" /><path d="M1262,286c.66,0,1.32,0,2,0c-.07,.91-.14,1.82-.21,2.75c-.66,9.11-.98,18.17-.98,27.31c0,.68,0,1.35,0,2.05c0,12.91,.75,25.7,1.75,38.57c.39,5.13,.53,10.18,.44,15.32c-.66,0-1.32,0-2,0c-1.1-2.19-1.22-3.58-1.39-6.01c-.06-.83-.12-1.66-.18-2.51c-.06-.91-.12-1.81-.18-2.75c-.07-.94-.13-1.88-.2-2.86c-.14-2.01-.27-4.02-.41-6.04c-.2-3-.41-6-.62-9c-.68-9.94-1.15-19.84-1.17-29.8c0-.89,0-1.78-.01-2.7c.05-8.19,.55-16.51,3.16-24.33Z" fill="#1B3360" /><path d="M246,811c.33,0,.66,0,1,0c.32,6.38-.89,12.18-2.23,18.4c-.23,1.11-.47,2.21-.7,3.35c-.75,3.55-1.5,7.09-2.26,10.63c-.73,3.46-1.46,6.92-2.19,10.38c-.48,2.3-.97,4.59-1.45,6.89c-2.48,11.76-4.84,23.55-7.17,35.35c-.49,.17-.49,.17-3,1c.67-9.64,2.71-18.94,4.69-28.37c.36-1.74,.72-3.48,1.08-5.22c.9-4.33,1.81-8.66,2.72-12.98c.62-2.97,1.24-5.94,1.85-8.9c.65-3.14,1.31-6.27,1.97-9.4c.23-1.11,.46-2.22,.7-3.36c1.3-6.1,2.9-11.9,4.99-17.77Z" fill="#014CA9" /><path d="M652,554c.33,0,.66,0,1,0c.83,11.5-1.66,22.46-3.81,33.69c-.36,1.92-.72,3.84-1.08,5.76c-.53,2.83-1.06,5.65-1.6,8.48c-1.26,6.65-2.45,13.31-3.57,19.99c-.83,4.86-.83,4.86-1.94,7.08c-.99,0-1.98,0-3,0c.62-4.52,1.34-9,2.2-13.49c.24-1.25,.47-2.49,.72-3.78c.06-.33,.06-.33,.38-2c1.86-9.76,3.68-19.53,5.4-29.33c.13-.78,.27-1.56,.41-2.36c.66-3.8,1.32-7.6,1.97-11.4c.24-1.38,.48-2.75,.72-4.13c.21-1.21,.42-2.42,.63-3.67C651,556,651,556,652,554Z" fill="#014DAB" /><path d="M1193,138c.33,.5,.33,.5,2,3c2.31,.78,2.31,.78,5.16,1.35c1.02,.21,2.04,.42,3.09,.64c.54,.11,.54,.11,3.25,.64c2.12,.42,4.23,.85,6.34,1.28c.94,.19,1.88,.37,2.85,.57C1218,146,1218,146,1220,147c0,.66,0,1.32,0,2c-8.89-.65-17.37-2.87-26-5c.05,1.07,.09,2.13,.14,3.23c-.19,5.1-1.94,7.92-5.14,11.77c-2.69,1.94-2.69,1.94-5,3c-.66,.33-1.32,.66-2,1c-3.5,.19-3.5,.19-7,0c-.66-.66-1.32-1.32-2-2c.82-.17,1.64-.34,2.48-.52c1.08-.24,2.16-.48,3.27-.73c1.07-.23,2.13-.46,3.23-.7c3.35-1.16,4.82-2.31,7.02-5.05c1.63-4.4,2.44-8.31,2-13c-2.27-2.27-3.05-2.37-6.13-2.85c-.41-.07-.41-.07-2.44-.39c-.85-.13-1.69-.25-2.55-.38c-.85-.14-1.7-.27-2.58-.41c-2.1-.33-4.2-.65-6.3-.97c0-.33,0-.66,0-1c7.77-1.17,15.37-2.07,22,3Z" fill="#2E304A" /><path d="M469,667c2.94,2.06,2.94,2.06,5,5c.07,3.84-.18,5.99-2.62,9c-3.5,1.47-5.77,.98-9.38,0c-2.59-2.25-2.94-3.61-3.44-7c.44-3,.44-3,2.07-5.37c3.12-2.14,4.65-2.31,8.37-1.63Z" fill="#FDF4F0" /><path d="M780,533c6.79,10.19,5.2,26.89,5.19,38.63c0,1.22,0,2.44,0,3.7c-.09,13.13-1.29,25.84-4.19,38.67c-.66-.33-1.32-.66-2-1c.31-3.98,.62-7.96,.94-11.94c.08-1.11,.17-2.23,.26-3.38c.38-4.8,.77-9.58,1.35-14.36c.56-4.84,.64-9.64,.64-14.51c0-.92,0-1.83,0-2.78c-.05-6.46-.66-12.55-1.74-18.92c-.68-4.71-.62-9.36-.45-14.11Z" fill="#0049A6" /><path d="M1097,296c.66,0,1.32,0,2,0c.15,7.27,.29,14.54,.43,21.81c.04,2.46,.09,4.92,.14,7.38c.32,15.94,.51,31.87,.43,47.81c-.99-.33-1.98-.66-3-1c0-25.08,0-50.16,0-76Z" fill="#19305C" /><path d="M1026,216c2.5,1.56,2.5,1.56,4,4c-.06,3.47-.37,5.92-2.12,8.94c-3.1,1.75-5.41,1.55-8.88,1.06c-2.7-2.42-3.81-4.01-4.5-7.56c1.3-6.35,5.62-7.28,11.5-6.44Z" fill="#FDF6F4" /><path d="M710,453c2.36,.92,4.7,1.86,6.98,2.95c5.63,2.68,10.88,4.01,17.02,5.05c-.33,2.97-.66,5.94-1,9c-9.04-1.29-16.22-7.56-21.86-14.4C710,454,710,454,710,453Z" fill="#CE7A52" /><path d="M363,795c.66,0,1.32,0,2,0c.19,15.46,.34,30.88-.87,46.31c-.08,1.04-.16,2.09-.24,3.16c-.63,7.14-.63,7.14-2.89,10.53c-.33-.33-.66-.66-1-1c.07-2.76,.2-5.49,.37-8.24c.1-1.74,.2-3.49,.31-5.23c.05-.91,.1-1.82,.16-2.76c.26-4.46,.48-8.92,.7-13.38c.08-1.76,.17-3.52,.26-5.28c.09-1.76,.17-3.53,.26-5.3c.09-1.84,.19-3.68,.28-5.52c.22-4.43,.44-8.86,.66-13.29Z" fill="#004AA4" /><path d="M862.06,424.06c4.53,1.45,4.53,1.45,5.94,3.94c-.33,6.33-.33,6.33-3,9c-6.05,.55-6.05,.55-8.94-1.12c-1.59-2.82-1.51-4.71-1.06-7.88c2.18-3.27,3.08-4.02,7.06-3.94Z" fill="#FDF5F2" /><path d="M1134,131c1.65,0,3.3,0,5,0c-.66,6.27-1.32,12.54-2,19c-1.32,0-2.64,0-4,0c-2.98-4.47-2.49-8.76-2-14c1.19-3.19,1.19-3.19,3-5Z" fill="#DFE5F0" /><path d="M779,614c3.04,3.04,5.9,5.95,8.69,9.19c1.73,2,3.44,3.94,5.31,5.81c-4.95,0-9.9,0-15,0c.33-4.95,.66-9.9,1-15Z" fill="#D9E5F4" /><path d="M313,713c5.45,1.72,10.71,3.85,16,6c-.59,6.15-.59,6.15-1,8c-.33,.17-.33,.17-2,1c-5.86-3.84-9.86-7.68-13-14c0-.33,0-.66,0-1Z" fill="#CE7A52" /><path d="M1156,144c.33,.66,.66,1.32,1,2c-1.59,3.42-3.32,6.73-5.11,10.06c-.36,.7-.73,1.4-1.1,2.12c-.35,.64-.69,1.27-1.04,1.93C1149,162,1149,162,1149,166c3.3,.66,6.6,1.32,10,2c0,.99,0,1.98,0,3c-5.26,.32-8.46-.3-13-3c-.33-.33-.66-.66-1-1c.4-4.08,.85-8.05,2-12c.99,0,1.98,0,3,0c.25-.7,.49-1.4,.75-2.12c1.41-3.25,3.23-5.98,5.25-8.88Z" fill="#BC7452" /><path d="M1262,286c.66,0,1.32,0,2,0c-.06,.86-.12,1.72-.18,2.61c-.72,10.46-1.29,20.92-1.82,31.39c-.33,0-.66,0-1,0c-.33,1.65-.66,3.3-1,5c-.33,0-.66,0-1,0c-.5-28.49-.5-28.49,3-39Z" fill="#142C58" /><path d="M1210,247c.33,.99,.66,1.98,1,3c-1.88,2.81-3.14,4.01-5.81,5.94c-2.44,1.76-4.69,3.5-6.94,5.5c-2.25,1.56-2.25,1.56-4.19,1.41c-2.69-1.11-3.65-2.54-5.31-4.91c-.52-.74-1.04-1.47-1.58-2.23c-.38-.56-.77-1.13-1.17-1.71c3,0,3,0,4.39,1.31c1.2,1.57,2.41,3.13,3.61,4.69c5.59-4.06,10.86-8.38,16-13Z" fill="#D1D8E3" /><path d="M1131,130c.66,0,1.32,0,2,0c-.16,.76-.33,1.53-.5,2.31c-1.72,12.66-1.72,12.66,1.38,17.82c2.97,2.62,4.88,3.05,8.75,3.43c.81,.09,1.63,.17,2.47,.26c.31,.03,.31,.03,1.9,.18c0,.66,0,1.32,0,2c-6.61,.54-10.6-.03-16-4c-2.42-3.51-2.27-6.82-2.25-11c-.01-1.22-.01-2.43-.02-3.69c.25-3.06,.66-4.75,2.27-7.31Z" fill="#131F3D" /><path d="M808,555c1.29,3.87,.21,6.32-1.02,10.04c-.11,.34-.11,.34-.66,2.06c-.47,1.44-.93,2.88-1.41,4.32c-.72,2.2-1.43,4.41-2.13,6.62c-.45,1.4-.91,2.79-1.36,4.19c-.21,.66-.43,1.32-.64,2.01c-.54,1.61-1.15,3.19-1.78,4.76c-.33,.17-.33,.17-2,1c.66-5.86,2.11-11.3,3.81-16.94c.25-.85,.5-1.71,.75-2.59c1.65-5.5,3.73-10.4,6.44-15.47Z" fill="#024EAF" /><path d="M745,400c.66,0,1.32,0,2,0c1.13,1.45,1.13,1.45,2.35,3.46c.22,.36,.22,.36,1.33,2.18c.46,.76,.91,1.52,1.38,2.3c.91,1.49,1.82,2.97,2.73,4.46c.4,.67,.8,1.33,1.21,2.02c1,1.58,1,1.58,2,2.58c.29,2.71,.37,4.39-1.06,6.75c-2.84,1.83-5.63,1.94-8.94,2.25c0-.66,0-1.32,0-2c2.31-.99,4.62-1.98,7-3c-.52-4.5-2.22-6.97-5-10.5c-2.78-3.53-4.48-6-5-10.5Z" fill="#C6754D" /><path d="M1032,284c.33,0,.66,0,1,0c.06,1.05,.12,2.1,.19,3.19c.95,4.48,2.52,5.77,5.81,8.81c0,.99,0,1.98,0,3c-.66,0-1.32,0-2,0c-1.39-1.96-2.73-3.96-4-6c-.52,.17-1.03,.33-1.56,.5c-5.92,1.21-10.83,.33-16.44-1.5c0-.66,0-1.32,0-2c4.95,.33,9.9,.66,15,1c.66-2.31,1.32-4.62,2-7Z" fill="#DC8B60" /><path d="M1137.94,127.75c6.08,.06,13.14,.61,17.84,4.86c.4,.46,.81,.92,1.22,1.39c-.33,.66-.66,1.32-1,2c-.89-.47-1.77-.95-2.69-1.44c-4.96-2.34-9.17-2.68-14.62-2.62c-.54,0-.54,0-3.24,.02c-.81,.02-1.62,.03-2.45,.04c-.33-.99-.66-1.98-1-3c1.67-1.67,3.65-1.21,5.94-1.25Z" fill="#2D304E" /><path d="M1173,127c7.29-.47,11.97-.29,18,4c0,.99,0,1.98,0,3c-4.75-.87-4.75-.87-7-2c-1.5-.2-3-.36-4.5-.5c-4.28-.39-4.28-.39-6.5-1.5c0-.99,0-1.98,0-3Z" fill="#D6CBC7" /><path d="M403,816c.66,0,1.32,0,2,0c-.65,5.86-2.11,11.26-3.87,16.88c-.26,.86-.52,1.73-.78,2.62c-.26,.82-.52,1.64-.78,2.49c-.23,.75-.46,1.49-.69,2.26C398,842,398,842,395,843c.6-6.18,2.45-11.62,4.56-17.44c.33-.92,.66-1.84,1-2.79c.81-2.26,1.62-4.52,2.44-6.77Z" fill="#0051B5" /><path d="M1149,179c.71,.32,1.43,.65,2.16,.98c6.79,2.44,14.17,1.39,20.84-.98c0,.99,0,1.98,0,3c-6.12,2.62-11.43,4.51-18.06,2.32c-1.67-.71-3.31-1.51-4.94-2.32c0-.99,0-1.98,0-3Z" fill="#855D4A" /><path d="M1166,138c1.71,3.42,.96,7.29,.84,11.05c.16,3,.46,4.51,2.16,6.95c1.73,1.27,1.73,1.27,3.63,2.25c.55,.29,.55,.29,3.37,1.75c0,.33,0,.66,0,1c-6.35-.37-6.35-.37-9.31-3.25c-2.84-4.62-3.95-8.12-3.81-13.56c.01-.98,.03-1.95,.05-2.96c.02-.74,.05-1.47,.07-2.23c.99-.33,1.98-.66,3-1Z" fill="#1C2244" /><path d="M1227,178c-.59,3.63-2.06,5.54-4.5,8.25c-.63,.71-1.26,1.41-1.91,2.14c-.52,.53-1.05,1.06-1.59,1.61c-.33,0-.66,0-1,0c0-3.3,0-6.6,0-10c6.75-2,6.75-2,9-2Z" fill="#D9D9DB" /><path d="M1149.5,122.19c.4,.03,.4,.03,2.41,.17c2.09,.64,2.09,.64,3.37,2.69c.24,.64,.48,1.29,.72,1.95c-3.4,1.14-5.77,.84-9.25,.06c-.89-.19-1.78-.39-2.7-.59c-.68-.15-1.35-.31-2.05-.47c.33-.99,.66-1.98,1-3c2.45-1.22,3.79-1.05,6.5-.81Z" fill="#D1C0B7" /><path d="M452,703c.66,.33,1.32,.66,2,1c-.66,1.98-1.32,3.96-2,6c1.13-.31,2.27-.62,3.44-.94c4.48-1.13,8.96-1.66,13.56-2.06c0,.66,0,1.32,0,2c-.39,.1-.39,.1-2.34,.59c-1,.26-2,.52-3.03,.79c-.5,.12-.5,.12-3.03,.77C458,712,458,712,456,714c-3,0-3,0-4.75-1.69c-1.25-2.31-1.25-2.31-1-4.93C451,705,451,705,452,703Z" fill="#D27E51" /><path d="M1177,141c1.32,.66,2.64,1.32,4,2c.13,5.75,.13,5.75-1,8c-4.87-.87-4.87-.87-6-2c-.25-2.37-.25-2.37,0-5c1.5-1.81,1.5-1.81,3-3Z" fill="#15234E" /><path d="M1240,250c.33,0,.66,0,1,0c0,3.63,0,7.26,0,11c-2.1,1.03-4.2,2.05-6.31,3.06c-1.17,.57-2.35,1.14-3.55,1.73C1228,267,1228,267,1225,266c3.36-2.38,5.78-3.93,9.75-5.19c3.25-1.81,3.25-1.81,4.14-4c.5-2.27,.87-4.49,1.11-6.81Z" fill="#162D58" /><path d="M1153,244c2.57,3.85,3.59,7.59,5,12c2.64-1.98,5.28-3.96,8-6c-1.04,4.17-2.14,5.89-5,9c-.99,.33-1.98,.66-3,1c-3.44-5.48-5.31-9.44-5-16Z" fill="#C2CDDC" /><path d="M341,655c1.68,.29,3.34,.62,5,1c0,2.64,0,5.28,0,8c-1.32,.33-2.64,.66-4,1c-2.29-3.44-2.26-4.97-2-9c.33-.33,.66-.66,1-1Z" fill="#182340" /><path d="M673,538c3.43,3.18,5.18,6.8,7.25,10.94c.19,.36,.19,.36,1.14,2.17c.35,.69,.7,1.39,1.06,2.1c.32,.64,.65,1.27,.98,1.91c.7,2.31,.33,3.63-.43,5.88c-1.49-2.7-2.97-5.41-4.44-8.12c-.42-.77-.84-1.53-1.27-2.31c-2.27-4.2-3.86-7.73-4.29-12.57Z" fill="#00469F" /><path d="M730,402c2.13,.38,2.13,.38,4,1c0,2.64,0,5.28,0,8c-1.32,.33-2.64,.66-4,1c-2.15-3.22-2.38-4.27-2-8c.66-.66,1.32-1.32,2-2Z" fill="#1C2440" /><path d="M780,533c4.04,6.06,4.49,13.87,4,21c-1.02,2.23-1.02,2.23-2,4c-1.37-8.4-2.31-16.49-2-25Z" fill="#014EAF" /><path d="M1144,137c2.13,.38,2.13,.38,4,1c0,2.31,0,4.62,0,7c-1.66,.38-3.32,.71-5,1c-1-1-1-1-1.19-3.94C1142,139,1142,139,1144,137Z" fill="#1A2441" /><path d="M754,435c0,.66,0,1.32,0,2c-3.31,1.98-5.8,2.24-9.62,2.19c-.97-.01-1.93-.02-2.92-.02C739,439,739,439,737,438c0-.66,0-1.32,0-2c2.08-.17,4.17-.33,6.25-.5c1.16-.09,2.32-.19,3.52-.28c2.4-.16,4.82-.22,7.23-.22Z" fill="#C06E4A" /><path d="M1121,282c.99,.33,1.98,.66,3,1c.71,1.77,.71,1.77,1.17,4.04c.17,.8,.34,1.61,.52,2.45c.08,.42,.08,.42,.5,2.57c.17,.86,.35,1.71,.53,2.59c.44,2.11,.86,4.23,1.28,6.35c-.99,0-1.98,0-3,0c-.67-2.79-1.34-5.58-2-8.37c-.19-.8-.38-1.59-.58-2.41c-.18-.76-.36-1.52-.54-2.31c-.17-.7-.34-1.4-.51-2.12C1121,284,1121,284,1121,282Z" fill="#162C57" /><path d="M1140,122c1.65,0,3.3,0,5,0c-.49,.66-.49,.66-3,4c3.3,.33,6.6,.66,10,1c.33,.99,.66,1.98,1,3c-1.42-.14-2.83-.29-4.25-.44c-.39-.04-.39-.04-2.39-.24c-2.18-.3-4.24-.74-6.36-1.32c0-1.98,0-3.96,0-6Z" fill="#ECBE92" /><path d="M346,643c0,.66,0,1.32,0,2c-1.22,.23-2.43,.45-3.69,.69c-4.29,1.04-6.36,3.01-9.31,6.31c-.66,0-1.32,0-2,0c.24-3.27,1.28-4.3,3.56-6.75c3.74-2.97,6.81-2.65,11.44-2.25Z" fill="#232D4A" /><path d="M1220,147c0,.66,0,1.32,0,2c-6.14-.58-12.01-1.54-18-3c5.94-3.37,11.85-.88,18,1Z" fill="#36384D" /><path d="M753,397c2.06,.44,2.06,.44,4,1c0,2.31,0,4.62,0,7c-1.32,0-2.64,0-4,0c-1-1-1-1-1.12-4c.12-3,.12-3,1.12-4Z" fill="#111F41" /><path d="M763,375c.33,0,.66,0,1,0c.06,3.94,.09,7.87,.13,11.81c.01,1.12,.03,2.24,.05,3.4c0,1.07,.01,2.14,.02,3.25c.01,.99,.02,1.98,.03,3C764,399,764,399,762,402c-.66,0-1.32,0-2,0c.88-4.75,.88-4.75,2-7c.15-1.52,.25-3.04,.32-4.57c.04-.9,.08-1.79,.12-2.72c.04-.93,.08-1.87,.12-2.83c.05-.95,.09-1.89,.13-2.87c.11-2.34,.21-4.67,.31-7.01Z" fill="#3E4965" /><path d="M343,692c2.31,.17,2.31,.17,14,1c0,.66,0,1.32,0,2c-3.17,1.58-6.54,1.29-10,1c-2.5-1-2.5-1-4-2c0-.66,0-1.32,0-2Z" fill="#C3724D" /><path d="M1147,354c2.55,3.18,4.41,6.49,6.25,10.13c.27,.52,.27,.52,1.64,3.19c.37,.88,.73,1.77,1.11,2.68c-.33,.66-.66,1.32-1,2c-4.25-4.57-6.94-10.15-9-16c.33-.66,.66-1.32,1-2Z" fill="#192F5A" /><path d="M1011,268c2.08-.08,4.17-.14,6.25-.19c.58-.01,.58-.01,3.52-.1c3.45,.31,4.75,.95,7.23,3.29c-3,1-3,1-6,0c-1.89-.22-3.79-.41-5.69-.56c-.99-.09-1.99-.17-3.01-.26c-.38-.03-.38-.03-2.3-.18c0-.66,0-1.32,0-2Z" fill="#D48459" /><path d="M867,472c.66,.66,1.32,1.32,2,2c-.8,.12-1.59,.24-2.41,.37c-10.53,1.66-10.53,1.66-15.59,3.63c0-.66,0-1.32,0-2c5.54-3.3,9.53-4.67,16-4Z" fill="#CB7A4E" /><path d="M734,391c0,.66,0,1.32,0,2c-.62,.13-.62,.13-3.75,.81c-3.42,.83-5.47,2.02-8.25,4.19c-.99-.33-1.98-.66-3-1c5.06-5.34,7.69-6.14,15-6Z" fill="#272945" /><path d="M1192,140c1.96,.45,3.92,.91,5.88,1.38c.54,.12,.54,.12,3.3,.77C1204,143,1204,143,1206,145c-4.16,.08-7.95-.02-12-1c-.33,.66-.66,1.32-1,2c-1-1-1-1-1.06-3.56c.02-.81,.04-1.61,.06-2.44Z" fill="#141C41" /><path d="M1210,148c2.31,.33,4.62,.66,7,1c-.75,1.94-.75,1.94-2,4c-2.06,.81-2.06,.81-4,1c-1-1-1-1-1.06-3.56c.02-.81,.04-1.61,.06-2.44Z" fill="#E0DAD9" /><path d="M763,399c1.91,3.17,2.16,5.11,1.63,8.75c-.12,.8-.23,1.6-.34,2.42c-.1,.61-.19,1.21-.29,1.83c-2.5-2.5-2.36-3.67-2.62-7.12c-.04-.46-.04-.46-.23-2.76c-.05-.7-.1-1.4-.15-2.12c.66-.33,1.32-.66,2-1Z" fill="#091031" /><path d="M1230,155c0,.66,0,1.32,0,2c-.37,.1-.37,.1-2.25,.63c-3.53,1.76-4.68,4.08-6.75,7.37c-.66,0-1.32,0-2,0c.22-3.89,.99-4.99,3.81-7.81C1226,155,1226,155,1230,155Z" fill="#CB7D54" /><path d="M403,816c.66,0,1.32,0,2,0c-.5,4.97-1.55,8.64-4,13c-.33,0-.66,0-1,0c.48-4.71,.97-8.67,3-13Z" fill="#014AA7" /><path d="M690,574c3.71,3.2,5.41,6.39,7,11c-.33,.99-.66,1.98-1,3c-1.01-1.77-2.01-3.54-3-5.31c-.56-.99-1.11-1.97-1.69-2.99C690,577,690,577,690,574Z" fill="#0047A3" /><path d="M1128,303c3.1,4.65,4.34,9.42,4,15c-.66,0-1.32,0-2,0c-.54-1.56-1.05-3.12-1.56-4.69c-.29-.87-.58-1.74-.88-2.63c-.61-2.93-.34-4.82,.44-7.68Z" fill="#152C58" /><path d="M290,671c3.6,.31,4.99,.99,7.81,3.38C300,677,300,677,300,680c-.66,0-1.32,0-2,0c-.43-.78-.87-1.57-1.31-2.37c-1.96-3.05-3.29-3.62-6.69-4.63c0-.66,0-1.32,0-2Z" fill="#D78256" /><path d="M681,415c2.19-.31,2.19-.31,5,0c2.88,2.25,2.88,2.25,5,5c-.19,2.31-.19,2.31-1,4c-.74-.97-1.48-1.94-2.25-2.94c-1.72-2.08-2.49-2.96-5.06-3.93c-.56-.05-1.12-.09-1.69-.13c0-.66,0-1.32,0-2Z" fill="#D68359" /><path d="M643,607c.33,0,.66,0,1,0c-.33,4.29-.66,8.58-1,13c-.66,0-1.32,0-2,0c-.05-1.42-.09-2.83-.12-4.25c-.03-.79-.05-1.58-.08-2.39c.22-2.57,.91-4.15,2.2-6.36Z" fill="#024B9E" /><path d="M230,886c.33,0,.66,0,1,0c0,3.3,0,6.6,0,10c-.99,.33-1.98,.66-3,1c.14-1.65,.29-3.29,.44-4.94c.08-.91,.16-1.83,.24-2.77C229,887,229,887,230,886Z" fill="#03459E" /><path d="M761,546c2.15,3.44,2.1,5.77,1.63,9.75c-.12,.98-.23,1.97-.34,2.98c-.1,.75-.19,1.5-.29,2.27c-2.15-3.44-2.1-5.77-1.62-9.75c.11-.98,.22-1.97,.33-2.98c.1-.75,.19-1.5,.29-2.27Z" fill="#0151B2" /><path d="M850,457c.66,.33,1.32,.66,2,1c-.33,1.65-.66,3.3-1,5c1.32,.66,2.64,1.32,4,2c-.66,.33-.66,.33-4,2c-2.29-1.81-2.95-2.61-3.31-5.56C848,459,848,459,850,457Z" fill="#D88358" /><path d="M1222,216c1.32,.99,2.64,1.98,4,3c-.45,.37-.91,.74-1.37,1.13c-2.1,2.41-2.75,4.82-3.63,7.87c-.66,0-1.32,0-2,0c.99-3.96,1.98-7.92,3-12Z" fill="#1D2B4F" /><path d="M1153,144c.66,.99,1.32,1.98,2,3c-1.65,2.64-3.3,5.28-5,8c-1.32-.33-2.64-.66-4-1c.42-.47,.84-.94,1.28-1.43c.55-.62,1.09-1.24,1.66-1.88c.54-.62,1.09-1.23,1.65-1.87C1152,147,1152,147,1153,144Z" fill="#2E2E3E" /><path d="M1131,130c.66,0,1.32,0,2,0c-.66,3.63-1.32,7.26-2,11c-.66-.33-1.32-.66-2-1c-.18-3.95-.09-6.6,2-10Z" fill="#1C2642" /><path d="M757,385c.33,.99,.66,1.98,1,3c-.55,.07-.55,.07-3.31,.44C751,389,751,389,748,390c.56-1.94,.56-1.94,2-4c3.63-.75,3.63-.75,7-1Z" fill="#2D344B" /><path d="M1031,290c3.88,1.26,5.94,2.42,8,6c0,.99,0,1.98,0,3c-.66,0-1.32,0-2,0c-1.35-1.99-2.69-3.99-4-6c-.66-.33-1.32-.66-2-1c0-.66,0-1.32,0-2Z" fill="#D7895C" /><path d="M1015,290c4.82-.19,8.5,.24,13,2c0,.33,0,.66,0,1c-4.29-.33-8.58-.66-13-1c0-.66,0-1.32,0-2Z" fill="#C97348" /><path d="M687,407c0,.66,0,1.32,0,2c-1.09,.29-2.19,.58-3.31,.88C680,411,680,411,677,413c.31-1.87,.31-1.87,1-4c3.44-2.29,4.99-2.18,9-2Z" fill="#DBA782" /><path d="M1014,256c2.97,0,5.94,0,9,0c-2.55,2.35-3.71,2.98-7.25,3.19c-.91-.06-1.81-.13-2.75-.19c.33-.99,.66-1.98,1-3Z" fill="#DB8D60" /><path d="M765,407c2,3,2,3,2,6c-.99,0-1.98,0-3,0c-.33,.99-.66,1.98-1,3c.88-7.87,.88-7.87,2-9Z" fill="#222C4E" /></g></svg>
