<?xml version="1.0" encoding="UTF-8"?>
<svg height="1024" width="1536" xmlns="http://www.w3.org/2000/svg" version="1.1"><g data-h="1024.0" data-w="1536.0" data-cy="512.0" data-cx="768.0" data-part="background"><path d="M0,0C506.88,0,1013.76,0,1536,0c0,337.92,0,675.84,0,1024c-506.88,0-1013.76,0-1536,0C0,686.08,0,348.16,0,0Z" fill="#FCFCFC" /></g><g data-h="648.9" data-w="1318.8" data-cy="391.2" data-cx="768.8" data-part="part-1"><path d="M1293.88,66.75c.69,0,1.39,0,2.11,0c10.33,.01,19.98,.51,30.01,3.25c1.33,.32,2.66,.64,3.99,.96c23.51,5.98,42.74,18.42,60.01,35.04c.63,.57,1.26,1.14,1.91,1.72c23.77,22.03,34.53,55.72,36.31,87.21c.25,10.89-1.26,21.38-3.22,32.07c-.19,1.07-.39,2.13-.59,3.23c-4.78,21.98-16.11,42.46-31.41,58.77c-.54,.58-1.08,1.17-1.64,1.77c-7.78,8.32-15.67,15.18-25.36,21.23c-.9,.6-1.81,1.2-2.74,1.82c-14.61,9.23-31.42,14.02-48.26,17.18c-.78,.18-1.56,.35-2.36,.53c-5.16,.92-10.42,.65-15.64,.66c-1.16,.01-2.31,.02-3.5,.03c-35.33,.06-68.15-15.03-93.19-39.47c-6.59-6.65-12.1-13.98-17.31-21.75c-.65-.95-1.29-1.9-1.96-2.88c-5.87-9.32-9.44-19.76-13.04-30.12c-.23-.67-.47-1.34-.71-2.03c-10.65-31.24-5.7-66.79,8.22-96.09C1188.52,113.67,1210.1,93.22,1236,80c.6-.31,1.21-.62,1.83-.94c17.53-8.77,36.57-12.29,56.05-12.31Z" fill="#FBFBFC" /><path d="M143.33,612.87c.88,0,1.76,0,2.66,0c2.97,0,5.94,0,8.91,0c2.14,0,4.27,0,6.41,0c5.9-.01,11.8,0,17.7,0c6.35,0,12.71,0,19.06,0c11.73-.01,23.47-.01,35.2-.01c10.84,.01,21.67,.01,32.51,.01c.72,0,1.44,0,2.18,0c2.91,0,5.82,0,8.74-.01c27.35,0,54.7,0,82.05,.01c24.33,0,48.65,0,72.97,0c27.3-.01,54.61-.01,81.91,0c2.91,0,5.81,0,8.72,0c.72,0,1.43,0,2.17,0c10.84,0,21.67,0,32.5-.01c12.32,0,24.63,0,36.94,.01c6.29,0,12.58,0,18.87,0c5.74-.01,11.49,0,17.24,0c2.09,0,4.18,0,6.26,0c2.82,0,5.64,0,8.46,0c.83,0,1.66,0,2.51,0c5.59,.02,5.59,.02,6.7,1.13c.07,2.62,.07,5.21,.02,7.82c0,.41,0,.41-.03,2.49c-.03,2.72-.07,5.44-.11,8.16c-.03,1.88-.05,3.77-.07,5.65c-.07,4.96-.13,9.92-.2,14.89c-.08,5.06-.14,10.12-.21,15.18c-.12,9.94-.26,19.87-.4,29.81c-49.3,.07-98.6,.13-147.9,.17c-.73,0-1.46,0-2.21,0c-15.85,.01-31.7,.02-47.55,.03c-7.78,.01-15.55,.01-23.32,.02c-.78,0-1.55,0-2.35,0c-25.08,.02-50.16,.05-75.24,.09c-25.77,.03-51.55,.06-77.32,.07c-3.63,0-7.27,0-10.91,0c-.36,0-.36,0-2.17,0c-11.54,.01-23.07,.02-34.61,.05c-11.59,.02-23.18,.03-34.77,.02c-6.29,0-12.57,.01-18.85,.03c-5.75,.02-11.5,.02-17.25,0c-2.08,0-4.16,.01-6.25,.02c-2.82,.02-5.65,.01-8.47-.01c-.82,.01-1.63,.02-2.47,.03c-5.24-.06-8.18-1.08-12.36-4.52c-2.46-3.33-2.28-6.62-2.32-10.68c-.01-.66-.02-1.32-.03-2c-.03-2.19-.05-4.37-.06-6.56c-.01-1.52-.02-3.05-.03-4.57c-.02-3.2-.03-6.39-.04-9.59c-.01-4.08-.06-8.16-.12-12.24c-.03-3.15-.04-6.3-.05-9.45c0-1.51-.02-3.01-.05-4.51c-.21-13.22-.21-13.22,3.62-17.81c4.18-3.95,7.87-3.73,13.41-3.72Z" fill="#017CFD" /><path d="M1294,337c3.44,1.15,3.72,1.69,5.53,4.66c.48,.76,.95,1.53,1.44,2.32c.51,.83,1.01,1.66,1.53,2.52c1.07,1.73,2.14,3.46,3.21,5.2c.55,.88,1.09,1.76,1.65,2.67c2.51,4.04,5.11,8.02,7.7,12.01c1.66,2.53,3.3,5.07,4.94,7.62c.6,.92,1.19,1.84,1.81,2.79C1323,379,1323,379,1323,382c-7.26,0-14.52,0-22,0c.01,1.31,.01,1.31,.06,7.96c.07,8.75,.11,17.51,.15,26.26c.02,5.3,.05,10.6,.09,15.89c.05,5.13,.07,10.26,.08,15.39c.01,1.94,.02,3.88,.04,5.82c.18,16.24-1.27,32.38-8.04,47.37c-.35,.77-.69,1.55-1.04,2.35c-6.76,14.9-15.91,27.71-28.26,38.51c-2.08,2.45-2.08,2.45-2.05,4.88c1.1,2.91,2.23,5.78,3.47,8.63c5.05,11.65,5.45,24.58,.88,36.5c-6.09,14.86-15.56,24.8-30.02,31.7c-10.7,4.27-25.21,4.86-36.11,.77c-.74-.34-1.48-.68-2.25-1.03c-.89-.4-1.77-.8-2.69-1.22c-14.46-7.23-23.42-18.32-28.68-33.47C1166,586,1166,586,1166,583c-16.11,.04-32.22,.1-48.32,.18c-7.48,.04-14.96,.08-22.44,.09c-6.53,.01-13.05,.04-19.58,.08c-3.45,.03-6.9,.04-10.35,.04c-3.86,0-7.72,.03-11.59,.06c-.56,0-.56,0-3.42-.01c-11.01,.14-20.81,3.4-29.3,10.56c-7.75,8.03-10.1,17.3-11.3,28.1c-1.38,12.33-5.56,22.22-15.45,30.28c-7.56,5.17-16.56,8.75-25.74,8.74c-1.12,0-2.23,0-3.38,0c-1.22,0-2.44,0-3.7-.01c-.65,0-.65,0-3.9,0c-3.53,0-7.06,0-10.59-.01c-3.69,0-7.38-.01-11.07-.01c-6.98,0-13.96-.01-20.95-.02c-7.95-.01-15.9-.01-23.85-.02c-16.36-.01-32.71-.03-49.07-.05c.02,.89,.04,1.77,.06,2.69c.07,3.33,.12,6.67,.16,10.01c.02,1.43,.05,2.87,.08,4.3c.28,11.83-.97,21.35-9.36,30.31c-5.03,4.39-11.07,6.81-17.72,6.82c-.99,0-1.98,.01-3,.01c-.55,0-.55,0-3.32,0c-1.17,0-2.33,0-3.53,.01c-3.25,0-6.5,0-9.75,0c-3.53,0-7.05,.01-10.58,.02c-7.01,.01-14.02,.01-21.02,.02c-8.39,0-16.78,.01-25.17,.02c-20.28,.03-40.56,.05-60.84,.06c-6.72,0-13.43,.01-20.15,.01c-35.7,.03-71.39,.05-107.09,.06c-8.27,0-16.55,.01-24.82,.01c-1.03,0-2.06,0-3.11,0c-33.33,.01-66.66,.04-99.99,.09c-34.25,.04-68.5,.07-102.76,.07c-4.83,0-9.67,0-14.5,0c-.96,0-1.91,0-2.89,0c-15.33,.01-30.66,.03-45.98,.05c-15.41,.03-30.81,.04-46.21,.03c-9.16-.01-18.31,0-27.47,.03c-6.11,.01-12.22,.01-18.34,0c-3.48-.01-6.97-.01-10.45,.01c-3.76,.02-7.51,.01-11.27-.01c-1.08,.01-2.15,.02-3.27,.04c-8.58-.1-15.02-2.53-21.58-8.1c-5.88-7.09-8.36-12.81-8.44-22.06c0-.73-.01-1.45-.02-2.2c-.03-2.39-.03-4.77-.04-7.16c-.01-1.67-.02-3.34-.03-5.01c-.01-3.5-.02-7-.03-10.5c0-4.47-.04-8.93-.08-13.39c-.03-3.45-.04-6.91-.04-10.36c-.01-1.64-.02-3.29-.04-4.93c-.13-10.72,.67-19.02,7.77-27.57c.35-.3,.35-.3,2.13-1.82c.7-.61,1.4-1.23,2.12-1.87c6.39-4.2,12.27-5.13,19.72-5.06c.89,0,1.79-.01,2.71-.01c2.98-.01,5.97,.01,8.96,.02c2.16,0,4.33,0,6.49-.01c5.94-.01,11.89,.01,17.83,.02c6.42,.01,12.83,.01,19.24,.01c11.11,0,22.22,.01,33.32,.02c11.65,.02,23.3,.03,34.95,.04c.72,0,1.45,0,2.2,0c3.68,0,7.35,0,11.03,0c26.06,.01,52.12,.03,78.17,.05c25.32,.03,50.63,.05,75.94,.07c.78,0,1.56,0,2.36,0c7.84,0,15.68,0,23.51,.01c15.97,.01,31.93,.01,47.9,.02c.73,0,1.46,0,2.22,0c49.01,.03,98.01,.08,147.02,.13c-.66,2.64-1.32,5.28-2,8c-.55,0-.55,0-3.31,0c-48.17,.05-96.34,.09-144.5,.16c-.37,0-.37,0-2.21,0c-15.85,.02-31.7,.05-47.54,.07c-7.77,.01-15.54,.02-23.31,.03c-.39,0-.39,0-2.35,.01c-25.07,.03-50.13,.06-75.2,.08c-25.76,.02-51.52,.05-77.28,.09c-3.64,.01-7.27,.02-10.91,.02c-.72,0-1.43,.01-2.17,.01c-11.53,.02-23.06,.02-34.59,.03c-11.58,0-23.17,.02-34.76,.05c-6.28,.01-12.56,.02-18.84,.02c-5.74-.01-11.49,0-17.24,.02c-2.08,.01-4.16,.01-6.24,0c-2.82,0-5.65,.01-8.48,.03c-.81-.01-1.62-.02-2.45-.02c-6.65,.07-12.12,1.4-17.43,5.65c-4.27,5.36-5.56,10.07-5.58,16.84c0,.67-.01,1.35-.01,2.04c-.02,2.19-.01,4.39,0,6.58c0,1.55,0,3.09-.01,4.63c0,3.22,0,6.44,.02,9.66c.02,4.11,.01,8.22-.01,12.33c-.01,3.17-.01,6.35,0,9.53c0,1.52,0,3.03-.01,4.54c-.06,17.49-.06,17.49,5.79,24.41c5.45,4.55,9.3,5.63,16.37,5.57c.89,.01,1.77,.02,2.68,.02c2.99,.01,5.97,.01,8.95,0c2.15,0,4.31,.01,6.46,.02c5.93,.02,11.86,.02,17.79,.01c6.39,0,12.78,.02,19.16,.03c11.08,.03,22.15,.04,33.23,.04c11.61,.01,23.23,.02,34.84,.04c.72,0,1.45,0,2.19,0c3.67,.01,7.33,.01,11,.02c25.97,.04,51.95,.07,77.92,.09c25.24,.02,50.47,.05,75.71,.09c.78,0,1.55,0,2.36,0c7.81,.01,15.62,.02,23.43,.03c15.91,.03,31.82,.05,47.73,.07c.73,0,1.46,0,2.22,0c48.86,.07,97.72,.12,146.58,.16c.66,1.98,1.32,3.96,2,6c1.65,0,3.3,0,5,0c.66-1.98,1.32-3.96,2-6c.8,0,1.6,0,2.43,0c19.52-.04,39.04-.1,58.57-.18c9.44-.04,18.88-.08,28.32-.09c8.23-.01,16.46-.04,24.69-.08c4.36-.03,8.71-.04,13.07-.04c4.1,0,8.21-.02,12.31-.05c1.5-.01,3.01-.01,4.51-.01c7.9,.03,14.36-.02,21.1-4.55c4.77-5.78,6.25-11.5,6.27-18.89c.01-.66,.01-1.32,.02-2c.01-2.17,.01-4.34,.01-6.51c0-1.52,.01-3.04,.01-4.56c.01-3.18,.01-6.35,.01-9.53c-.01-4.06,.01-8.12,.03-12.17c.01-3.14,.02-6.28,.01-9.41c0-1.5,.01-2.99,.02-4.49c.1-17.08,.1-17.08-4.99-23.46c-.56-.45-1.12-.9-1.7-1.35c-.56-.47-1.11-.93-1.68-1.4c-4.68-2.86-9.25-3.48-14.65-3.51c-.32,0-.32,0-1.95-.02c-2.14-.01-4.27-.02-6.41-.02c-1.54-.01-3.08-.02-4.61-.03c-4.17-.03-8.33-.04-12.5-.05c-4.36-.02-8.71-.05-13.07-.07c-8.24-.05-16.49-.09-24.73-.12c-9.39-.04-18.78-.09-28.17-.14c-19.3-.1-38.61-.19-57.92-.27c-.33-2.64-.66-5.28-1-8c20.43-.07,40.86-.12,61.28-.16c9.49-.01,18.98-.03,28.46-.07c8.27-.03,16.54-.05,24.81-.05c4.38-.01,8.76-.02,13.13-.04c4.13-.02,8.25-.02,12.38-.02c1.51,0,3.01-.01,4.52-.02c11.99-.08,21.56,.59,30.51,9.17c5.49,6.29,7.04,12.72,7.01,20.92c-.01,1.3-.01,2.6-.01,3.93c-.01,1.36-.02,2.73-.03,4.09c0,1.38-.01,2.76-.01,4.14c-.01,3.37-.03,6.74-.05,10.11c17.13,.01,34.27-.02,51.4-.08c7.96-.03,15.91-.05,23.87-.04c6.94,.01,13.88-.01,20.82-.05c3.67-.02,7.34-.03,11.01-.01c4.11,.02,8.22-.01,12.33-.05c.6,.01,.6,.01,3.64,.04c9.03-.13,17.26-2.35,23.96-8.75c5.6-6.61,6.84-14.66,7.91-23c1.93-14.52,8.38-26.95,20.06-36.06c7.9-4.79,16-9.13,25.38-9.12c1.09,0,2.18,0,3.3,0c1.2,0,2.39,0,3.62,.01c.63,0,.63,0,3.81,0c3.45,0,6.9,0,10.34,.01c3.61,0,7.21,.01,10.82,.01c6.82,0,13.65,.01,20.47,.02c7.77,.01,15.54,.01,23.31,.02c15.99,.01,31.97,.03,47.95,.05c-.01-.61-.02-1.22-.03-1.85c0-.41,0-.41-.02-2.44c-.01-.8-.02-1.6-.03-2.42c.34-10.28,7.37-20.01,14.08-27.29c10.7-9.86,23.27-15.32,37.79-15.15c12.29,.57,23.54,4.46,33.21,12.15c14.31-6.12,24.2-25.38,30-39c1.97-5.24,3.66-10.57,5-16c.17-.69,.35-1.39,.52-2.11c2.04-9.51,1.83-19.1,1.89-28.78c.02-1.91,.04-3.82,.06-5.73c.05-5,.09-10,.13-15c.04-5.12,.09-10.23,.14-15.35c.1-10.01,.18-20.02,.26-30.03c-7.26,0-14.52,0-22,0c.95-3.8,2-5.89,4.06-9.15c.63-1,1.26-2,1.91-3.03c.67-1.05,1.34-2.11,2.03-3.19c.68-1.08,1.36-2.16,2.06-3.26c1.97-3.13,3.95-6.25,5.94-9.37c.51-.81,1.03-1.61,1.56-2.44c3.11-4.88,6.23-9.75,9.44-14.56Z" fill="#057DFA" /><path d="M657.56,595.81C660,596,660,596,661,597c.04,2.33,.04,4.67,0,7c.8,0,1.59-.01,2.41-.01c19.4-.06,38.8-.11,58.2-.15c9.38-.01,18.76-.03,28.14-.07c8.17-.03,16.35-.05,24.53-.05c4.33-.01,8.66-.02,12.98-.04c4.08-.02,8.16-.02,12.24-.02c1.49,0,2.98-.01,4.48-.02c16.76-.12,16.76-.12,23.26,5.19c.54,.66,1.08,1.31,1.64,1.98c.27,.33,.27,.33,1.67,1.96c3.12,4.8,3.7,9.47,3.74,15.1c0,.33,0,.33,.02,2c.02,2.16,.02,4.33,.03,6.49c0,1.52,.01,3.04,.02,4.55c.01,3.18,.01,6.35,.01,9.53c0,4.05,.03,8.09,.06,12.14c.02,3.13,.03,6.27,.03,9.4c0,1.49,.01,2.98,.02,4.47c.1,9.83-.41,17.63-6.85,25.43c-4.94,3.99-8.97,5.5-15.31,5.48c-.65,0-1.29,.01-1.96,.01c-2.15,0-4.3-.01-6.45-.03c-1.55,0-3.1,0-4.65,0c-4.19,0-8.38-.01-12.57-.04c-4.39-.01-8.77-.02-13.15-.02c-8.3-.01-16.6-.03-24.9-.06c-9.45-.04-18.89-.05-28.34-.07c-19.44-.03-38.87-.08-58.3-.15c.02,.39,.02,.39,.13,2.38C662,712,662,712,660,714c-2.5,.25-2.5,.25-5,0c-2-2-2-2-2.12-4.62c.04-.79,.08-1.57,.12-2.38c-1.1,0-2.2,0-3.33,.01c-48.43,.1-96.87,.19-145.3,.24c-.73,0-1.47,.01-2.22,.01c-15.94,.01-31.87,.03-47.81,.05c-7.81,0-15.63,.01-23.44,.02c-.78,0-1.56,0-2.36,0c-25.2,.03-50.41,.07-75.62,.13c-25.9,.05-51.8,.09-77.7,.1c-3.66,.01-7.32,.01-10.98,.01c-.72,0-1.44,0-2.18,0c-11.59,.01-23.18,.04-34.78,.07c-11.65,.04-23.3,.05-34.95,.04c-6.32,0-12.63,0-18.94,.04c-5.78,.02-11.56,.03-17.34,.01c-2.09-.01-4.19,0-6.28,.02c-18.88,.16-18.88,.16-25.29-5.11c-5.33-5.91-6.6-11.63-6.64-19.41c0-.33,0-.33-.02-2.04c-.01-2.21-.02-4.43-.02-6.65c-.01-1.54-.01-3.09-.02-4.64c-.01-3.24-.02-6.48-.02-9.72c-.01-4.15-.03-8.29-.06-12.43c-.02-3.2-.02-6.39-.02-9.59c-.01-1.53-.01-3.05-.03-4.58c-.01-2.14-.01-4.28-.01-6.42c0-1.22,0-2.43-.01-3.69c.7-6.6,3.29-11.12,8.37-15.47c5.8-3.96,10.69-4.15,17.58-4.12c.88,0,1.76-.01,2.67-.01c2.96,0,5.93,.01,8.9,.01c2.14,0,4.28,0,6.42,0c5.89-.01,11.79,0,17.69,0c6.35,.01,12.7,.01,19.06,.01c11.01,0,22.02,0,33.03,0c11.56,.01,23.11,.01,34.66,.02c.36,0,.36,0,2.18,0c3.64,0,7.29,0,10.93,0c25.83,0,51.66,.01,77.5,.01c25.09,.01,50.19,.02,75.29,.03c.77,0,1.54,0,2.34,0c7.77,0,15.53,0,23.3,0c15.82,0,31.64,0,47.47,.01c.36,0,.36,0,2.2,0c48.59,.01,97.19,.02,145.78,.04c-.02-.47-.02-.47-.12-2.87c.15-3.91,.7-5.03,4.68-5.32ZM128,619c-1.42,2.85-1.15,5.28-1.18,8.47c0,.66-.01,1.32-.02,2.01c-.02,2.2-.03,4.4-.04,6.6c0,.75-.01,1.5-.01,2.28c-.02,3.98-.04,7.96-.05,11.94c-.01,4.11-.04,8.21-.08,12.32c-.03,3.16-.03,6.33-.04,9.49c0,1.51-.01,3.02-.03,4.54c-.03,2.12-.03,4.24-.02,6.37c-.01,1.2-.01,2.41-.02,3.65c.6,4.06,1.89,6.18,4.49,9.33c3.79,2.73,8.11,2.27,12.58,2.25c.88,0,1.76,0,2.67,0c2.96,.01,5.93,0,8.9-.01c2.14,0,4.28,0,6.42,.01c5.89,0,11.79-.01,17.69-.02c6.35-.01,12.7,0,19.06,0c11.01,0,22.02-.01,33.03-.02c11.56-.01,23.11-.02,34.66-.02c.36,0,.36,0,2.18,0c3.64,0,7.29,0,10.93,0c25.83-.01,51.66-.02,77.5-.04c25.09-.02,50.19-.03,75.29-.04c.77,0,1.54,0,2.34,0c7.77,0,15.53-.01,23.3-.01c15.82,0,31.64-.01,47.47-.02c.72,0,1.45,0,2.2,0c48.59-.01,97.19-.05,145.78-.08c.15-10.93,.3-21.87,.44-32.8c.07-5.08,.14-10.16,.21-15.24c.07-4.89,.13-9.79,.19-14.68c.03-1.87,.05-3.75,.08-5.62c.04-2.61,.07-5.22,.1-7.84c.01-.78,.03-1.56,.04-2.36c.02-1.82-.01-3.64-.06-5.46c-1.81-1.81-4.28-1.13-6.69-1.14c-.83,0-1.65,0-2.5,0c-.88,0-1.75-.01-2.65-.01c-2.97-.01-5.93-.01-8.9-.01c-2.13-.01-4.26-.01-6.4-.02c-5.89-.01-11.78-.02-17.67-.02c-5.04-.01-10.09-.02-15.13-.03c-16.63-.03-33.25-.06-49.88-.07c-4.32-.01-8.65-.01-12.98-.02c-26.84-.03-53.69-.06-80.54-.07c-6.22-.01-12.44-.01-18.66-.02c-.78,0-1.55,0-2.35,0c-25.07-.01-50.13-.05-75.2-.1c-25.76-.05-51.52-.09-77.28-.09c-3.64-.01-7.28-.01-10.91-.01c-.72,0-1.44,0-2.17,0c-11.53,0-23.06-.03-34.59-.06c-11.59-.03-23.17-.04-34.76-.03c-6.28,.01-12.56,0-18.84-.03c-5.74-.03-11.49-.03-17.23,0c-2.09,0-4.17-.01-6.25-.02c-2.82-.03-5.65-.01-8.47,.01c-.81-.02-1.63-.03-2.46-.05c-6.1,.11-9.46,2.25-13.49,6.79Z" fill="#F9FBFC" /><path d="M662,613c38.38-.16,38.38-.16,54.45-.2c11.1-.02,22.2-.05,33.3-.1c8.09-.04,16.17-.07,24.25-.08c4.28,0,8.57-.01,12.85-.04c4.03-.03,8.06-.04,12.09-.03c1.47,0,2.95-.01,4.43-.03c2.02-.02,4.04-.01,6.06,0c1.13,0,2.26-.01,3.43-.01c3.91,.61,6.06,2.04,9.14,4.49c2.43,3.65,2.27,5.42,2.31,9.76c0,.69,.01,1.37,.02,2.07c.03,2.26,.03,4.52,.04,6.78c.01,1.58,.02,3.15,.03,4.72c.01,3.3,.02,6.6,.03,9.9c0,4.22,.04,8.44,.08,12.66c.03,3.25,.04,6.5,.04,9.75c.01,1.56,.02,3.11,.04,4.67c.03,2.18,.02,4.36,.01,6.54c0,1.24,.01,2.48,.01,3.75c-.82,4.55-2.34,6.17-5.61,9.4c-3.3,1.1-5.73,1.12-9.21,1.12c-1.3,0-2.6,0-3.94,0c-1.44,0-2.88,0-4.33-.01c-1.51,0-3.03,0-4.55,0c-4.12,0-8.25,0-12.37-.01c-4.31,0-8.62-.01-12.93-.01c-8.16,0-16.32-.01-24.47-.02c-9.29-.01-18.58-.01-27.87-.02c-19.11-.01-38.22-.03-57.33-.05c.02,.99,.05,1.97,.07,2.99c.02,1.28,.04,2.56,.06,3.89c.02,1.27,.04,2.55,.07,3.86C662,712,662,712,660,714c-2.5,.25-2.5,.25-5,0c-2.41-2.41-2.26-2.99-2.27-6.28c0-.84,0-1.68,0-2.55c0-.88,.01-1.76,.02-2.67c-.01-.88-.02-1.76-.02-2.67c0-.84,0-1.68,0-2.55c.01-.77,.01-1.54,.01-2.34C653,693,653,693,655,691c4.56,.56,4.56,.56,6,2c.33-26.4,.66-52.8,1-80Z" fill="#FD5B22" /><path d="M141.15,595.63c.89,0,1.79-.01,2.71-.01c2.98-.01,5.97,.01,8.96,.02c2.16,0,4.33,0,6.49-.01c5.94-.01,11.89,.01,17.83,.02c6.42,.01,12.83,.01,19.24,.01c11.11,0,22.22,.01,33.32,.02c11.65,.02,23.3,.03,34.95,.04c.72,0,1.45,0,2.2,0c3.68,0,7.35,0,11.03,0c26.06,.01,52.12,.03,78.17,.05c25.32,.03,50.63,.05,75.94,.07c.78,0,1.56,0,2.36,0c7.84,0,15.68,0,23.51,.01c15.97,.01,31.93,.01,47.9,.02c.73,0,1.46,0,2.22,0c49.01,.03,98.01,.08,147.02,.13c-.66,2.64-1.32,5.28-2,8c-.55,0-.55,0-3.31,0c-48.17,.05-96.34,.09-144.5,.16c-.37,0-.37,0-2.21,0c-15.85,.02-31.7,.05-47.54,.07c-7.77,.01-15.54,.02-23.31,.03c-.39,0-.39,0-2.35,.01c-25.07,.03-50.13,.06-75.2,.08c-25.76,.02-51.52,.05-77.28,.09c-3.64,.01-7.27,.02-10.91,.02c-.72,0-1.43,.01-2.17,.01c-11.53,.02-23.06,.02-34.59,.03c-11.58,0-23.17,.02-34.76,.05c-6.28,.01-12.56,.02-18.84,.02c-5.74-.01-11.49,0-17.24,.02c-2.08,.01-4.16,.01-6.24,0c-2.82,0-5.65,.01-8.48,.03c-.81-.01-1.62-.02-2.45-.02c-6.65,.07-12.12,1.4-17.43,5.65c-4.27,5.36-5.56,10.07-5.58,16.84c0,.67-.01,1.35-.01,2.04c-.02,2.19-.01,4.39,0,6.58c0,1.55,0,3.09-.01,4.63c0,3.22,0,6.44,.02,9.66c.02,4.11,.01,8.22-.01,12.33c-.01,3.17-.01,6.35,0,9.53c0,1.52,0,3.03-.01,4.54c-.06,17.49-.06,17.49,5.79,24.41c5.45,4.55,9.3,5.63,16.37,5.57c.89,.01,1.77,.02,2.68,.02c2.99,.01,5.97,.01,8.95,0c2.15,0,4.31,.01,6.46,.02c5.93,.02,11.86,.02,17.79,.01c6.39,0,12.78,.02,19.16,.03c11.08,.03,22.15,.04,33.23,.04c11.61,.01,23.23,.02,34.84,.04c.72,0,1.45,0,2.19,0c3.67,.01,7.33,.01,11,.02c25.97,.04,51.95,.07,77.92,.09c25.24,.02,50.47,.05,75.71,.09c.78,0,1.55,0,2.36,0c7.81,.01,15.62,.02,23.43,.03c15.91,.03,31.82,.05,47.73,.07c.37,0,.37,0,2.22,0c48.86,.07,97.72,.12,146.58,.16c.66,1.98,1.32,3.96,2,6c1.65,0,3.3,0,5,0c.66-1.98,1.32-3.96,2-6c.8,0,1.6,0,2.43,0c19.52-.04,39.04-.1,58.57-.18c9.44-.04,18.88-.08,28.32-.09c8.23-.01,16.46-.04,24.69-.08c4.36-.03,8.71-.04,13.07-.04c4.1,0,8.21-.02,12.31-.05c1.5-.01,3.01-.01,4.51-.01c7.9,.03,14.36-.02,21.1-4.55c4.77-5.78,6.25-11.5,6.27-18.89c.01-.66,.01-1.32,.02-2c.01-2.17,.01-4.34,.01-6.51c0-1.52,.01-3.04,.01-4.56c.01-3.18,.01-6.35,.01-9.53c-.01-4.06,.01-8.12,.03-12.17c.01-3.14,.02-6.28,.01-9.41c0-1.5,.01-2.99,.02-4.49c.1-17.08,.1-17.08-4.99-23.46c-.56-.45-1.12-.9-1.7-1.35c-.56-.47-1.11-.93-1.68-1.4c-4.68-2.86-9.25-3.48-14.65-3.51c-.65,0-1.29-.01-1.95-.02c-2.14-.01-4.27-.02-6.41-.02c-1.54-.01-3.08-.02-4.61-.03c-4.17-.03-8.33-.04-12.5-.05c-4.36-.02-8.71-.05-13.07-.07c-8.24-.05-16.49-.09-24.73-.12c-9.39-.04-18.78-.09-28.17-.14c-19.3-.1-38.61-.19-57.92-.27c-.33-2.64-.66-5.28-1-8c20.43-.07,40.86-.12,61.28-.16c9.49-.01,18.98-.03,28.46-.07c8.27-.03,16.54-.05,24.81-.05c4.38-.01,8.76-.02,13.13-.04c4.13-.02,8.25-.02,12.38-.02c1.51,0,3.01-.01,4.52-.02c20.56-.15,20.56-.15,28.3,7.05c.69,.62,1.39,1.24,2.11,1.88c4.69,5.67,6.61,11.16,6.53,18.54c0,.38,0,.38,.02,2.32c.02,2.51,0,5.02-.01,7.53c0,1.77,.01,3.53,.01,5.29c.01,3.68,0,7.36-.02,11.04c-.02,4.7-.01,9.39,.02,14.09c.01,3.64,.01,7.27,0,10.9c-.01,1.73,0,3.47,.01,5.2c.04,10.07-.22,18.26-6.12,26.79c-6.88,6.83-14.56,9.17-24.13,9.26c-1.08-.01-2.15-.01-3.26-.02c-1.17,0-2.35,.01-3.55,.01c-3.24,.02-6.48,.01-9.72,0c-3.53-.01-7.06,0-10.59,.02c-6.18,.01-12.37,.01-18.55,0c-9.19-.01-18.39,0-27.58,.02c-16.42,.02-32.84,.02-49.26,.01c-14.37,0-28.73,0-43.1,0c-1.93,.01-3.86,.01-5.78,.01c-2.91,0-5.81,0-8.72,0c-27,.01-54,.02-81,.01c-.51,0-.51,0-3.08,0c-8.27-.01-16.53-.01-24.8-.02c-32.24-.01-64.49,0-96.73,.03c-36.23,.03-72.46,.04-108.68,.03c-3.86,0-7.73,0-11.59,0c-.95,0-1.9,0-2.88,0c-14.36,0-28.72,.01-43.08,.02c-16.33,.02-32.65,.02-48.98,0c-9.14-.02-18.28-.02-27.42,.01c-6.1,.01-12.2,0-18.31-.02c-3.48-.01-6.95-.01-10.43,.01c-3.75,.01-7.5,0-11.25-.02c-1.07,.01-2.15,.02-3.26,.03c-8.58-.1-15.01-2.53-21.57-8.1c-5.88-7.09-8.36-12.81-8.44-22.06c0-.73-.01-1.45-.02-2.2c-.03-2.39-.03-4.77-.04-7.16c-.01-1.67-.02-3.34-.03-5.01c-.01-3.5-.02-7-.03-10.5c0-4.47-.04-8.93-.08-13.39c-.03-3.45-.04-6.91-.04-10.36c-.01-1.64-.02-3.29-.04-4.93c-.13-10.72,.67-19.02,7.77-27.57c.7-.6,1.41-1.2,2.13-1.82c.7-.61,1.4-1.23,2.12-1.87c6.39-4.2,12.27-5.13,19.72-5.06Z" fill="#0E2140" /><path d="M1298.39,216.35c2.92,.73,3.99,1.39,5.86,3.71c1.65,2.94,1.75,4.11,1.69,7.63c-.94,3.31-.94,3.31-1.98,5.24c-3.08,6.65-.48,15.61,.59,22.51c.65,5.2,.62,10.33,.45,15.56c.66,0,1.32,0,2,0c.1-.94,.2-1.89,.3-2.86c.72-4.99,2.34-9.65,3.94-14.41c.32-.97,.64-1.93,.97-2.93c.68-2.02,1.37-4.05,2.05-6.07c1.05-3.11,2.08-6.23,3.11-9.34c.66-1.97,1.33-3.94,1.99-5.91c.31-.94,.61-1.87,.93-2.84c.14-.43,.14-.43,.89-2.6c.26-.76,.51-1.52,.78-2.3c1.04-1.74,1.04-1.74,3-2.54c4.85-.48,9.76,2.81,14.04,4.8c.65,.3,1.3,.6,1.98,.91c14.96,6.99,27.22,14.57,33.29,30.73c2.25,7.3,2.9,14.82,1.73,22.36c-2.29,3.97-5.34,6.31-9,9c-1.05,.83-2.1,1.66-3.15,2.48c-8.35,6.41-17.31,11.14-26.85,15.52c-.85,.41-1.69,.82-2.57,1.24c-22.76,10.21-51.23,9.36-74.55,1.57c-11.99-4.65-23.06-10.12-32.95-18.41c-2.93-2.4-2.93-2.4-5.73-4.15c-3.39-2.28-5.75-4.13-6.63-8.27c-1.45-13.17,1.28-24.94,9.29-35.58c10.49-11.79,26.92-19.05,42.14-22.4c2.28,3.52,3.68,6.74,4.83,10.76c1.54,5.22,3.2,10.37,4.97,15.51c.24,.7,.48,1.4,.73,2.12c.74,2.14,1.48,4.28,2.22,6.42c.51,1.48,1.02,2.97,1.54,4.45c1.23,3.58,2.47,7.16,3.71,10.74c.68-4.55,1.32-9.1,1.93-13.66c.21-1.55,.43-3.09,.66-4.64c2.31-15.51,2.31-15.51-2.59-22.7c-.09-3.89,1.61-6.9,4.21-9.81c3.22-2.14,6.41-2.05,10.18-1.84Z" fill="#0B1E3F" /><path d="M1293.88,66.75c.69,0,1.39,0,2.11,0c10.33,.01,19.98,.51,30.01,3.25c1.33,.32,2.66,.64,3.99,.96c23.51,5.98,42.74,18.42,60.01,35.04c.63,.57,1.26,1.14,1.91,1.72c23.77,22.03,34.53,55.72,36.31,87.21c.25,10.89-1.26,21.38-3.22,32.07c-.19,1.07-.39,2.13-.59,3.23c-4.78,21.98-16.11,42.46-31.41,58.77c-.54,.58-1.08,1.17-1.64,1.77c-7.78,8.32-15.67,15.18-25.36,21.23c-.9,.6-1.81,1.2-2.74,1.82c-14.61,9.23-31.42,14.02-48.26,17.18c-.78,.18-1.56,.35-2.36,.53c-5.16,.92-10.42,.65-15.64,.66c-1.16,.01-2.31,.02-3.5,.03c-35.33,.06-68.15-15.03-93.19-39.47c-6.59-6.65-12.1-13.98-17.31-21.75c-.65-.95-1.29-1.9-1.96-2.88c-5.87-9.32-9.44-19.76-13.04-30.12c-.23-.67-.47-1.34-.71-2.03c-10.65-31.24-5.7-66.79,8.22-96.09C1188.52,113.67,1210.1,93.22,1236,80c.6-.31,1.21-.62,1.83-.94c17.53-8.77,36.57-12.29,56.05-12.31Zm-91.04,49.07c-12.99,14.23-23.12,32.49-27.84,51.18c-.26,.99-.51,1.98-.78,3c-2.17,9.07-2.74,17.84-2.66,27.13c.01,.72,.01,1.44,.01,2.18c.24,35.13,13.71,65.64,38.62,90.3c14.18,13.61,31.89,24,50.81,29.39c.68,.19,1.36,.39,2.07,.59c21.15,5.76,44.97,5.93,65.93-.59c1.16-.34,2.33-.68,3.53-1.03c15.64-5.03,30-13.34,42.47-23.97c.47-.39,.47-.39,2.85-2.36c23.18-19.98,37.14-49.56,40.9-79.7c.11-1.65,.19-3.29,.25-4.94c.05-1.15,.1-2.3,.16-3.49c.76-32.09-9.98-64.04-32.21-87.44c-1.31-1.36-2.63-2.72-3.95-4.07c-.63-.7-1.26-1.41-1.91-2.13c-17.96-19.51-48.96-32.77-75.19-34.02c-39.91-1.15-75.11,10.53-103.06,39.97Z" fill="#0C82FA" /><path d="M657.56,595.81C660,596,660,596,661,597c.04,2.33,.04,4.67,0,7c.8,0,1.59-.01,2.41-.01c19.4-.06,38.8-.11,58.2-.15c9.38-.01,18.76-.03,28.14-.07c8.17-.03,16.35-.05,24.53-.05c4.33-.01,8.66-.02,12.98-.04c4.08-.02,8.16-.02,12.24-.02c1.49,0,2.98-.01,4.48-.02c16.76-.12,16.76-.12,23.26,5.19c.54,.66,1.08,1.31,1.64,1.98c.27,.33,.27,.33,1.67,1.96c3.12,4.8,3.7,9.47,3.74,15.1c0,.33,0,.33,.02,2c.02,2.16,.02,4.33,.03,6.49c0,1.52,.01,3.04,.02,4.55c.01,3.18,.01,6.35,.01,9.53c0,4.05,.03,8.09,.06,12.14c.02,3.13,.03,6.27,.03,9.4c0,1.49,.01,2.98,.02,4.47c.1,9.83-.41,17.63-6.85,25.43c-4.94,3.99-8.97,5.5-15.31,5.48c-.65,0-1.29,.01-1.96,.01c-2.15,0-4.3-.01-6.45-.03c-1.55,0-3.1,0-4.65,0c-4.19,0-8.38-.01-12.57-.04c-4.39-.01-8.77-.02-13.15-.02c-8.3-.01-16.6-.03-24.9-.06c-9.45-.04-18.89-.05-28.34-.07c-19.44-.03-38.87-.08-58.3-.15c0-2.97,0-5.94,0-9c.79,0,1.58,0,2.39-.01c19.2-.06,38.39-.13,57.59-.23c9.28-.04,18.56-.08,27.85-.11c8.09-.02,16.18-.05,24.27-.1c4.28-.02,8.57-.04,12.85-.05c4.03,0,8.07-.02,12.1-.05c1.48-.01,2.96-.02,4.44-.02c2.02,.01,4.04-.01,6.06-.03c1.13-.01,2.26-.01,3.43-.02c3.42-.43,5.27-1.32,8.02-3.38c2.43-3.65,2.27-5.43,2.31-9.78c0-.68,.01-1.37,.02-2.07c.03-2.27,.03-4.53,.04-6.8c.01-1.57,.02-3.15,.03-4.73c.01-3.3,.02-6.6,.03-9.91c0-4.23,.04-8.45,.08-12.68c.03-3.26,.04-6.51,.04-9.77c.01-1.56,.02-3.12,.04-4.67c.03-2.19,.02-4.37,.01-6.55c0-1.24,.01-2.48,.01-3.76c-.78-4.17-2.38-5.63-5.61-8.28c-2.76-1.38-5-1.14-8.09-1.16c-1.3-.01-2.59-.02-3.93-.03c-1.45,0-2.9-.01-4.34-.02c-1.52,0-3.04-.01-4.56-.03c-4.12-.02-8.25-.04-12.38-.06c-4.31-.03-8.62-.05-12.93-.08c-8.17-.05-16.34-.09-24.5-.14c-11.04-.06-22.07-.12-33.1-.19c-17.39-.1-34.78-.2-52.17-.29c0,26.73,0,53.46,0,81c-.99-.66-1.98-1.32-3-2c-.99,.17-.99,.17-6,1c0-29.04,0-58.08,0-88c-170.94,0-341.88,0-518,0c0-.33,0-.66,0-1c170.94,0,341.88,0,518,0c0-1.98,0-3.96,0-6c2-2,2-2,4.56-2.19Z" fill="#F9F7F7" /><path d="M655,346c3.12,.16,4.57,.55,6.75,2.84c2.69,2.58,5.6,4.07,8.93,5.66c.66,.32,1.32,.64,2.01,.98c1.43,.7,2.86,1.39,4.3,2.09c2.26,1.09,4.53,2.2,6.79,3.32c6.43,3.16,12.87,6.3,19.31,9.43c3.95,1.91,7.89,3.84,11.82,5.79c1.5,.73,3.01,1.46,4.51,2.19c2.11,1.01,4.2,2.04,6.29,3.07c.31,.15,.31,.15,1.89,.89c1.73,.87,1.73,.87,4.4,2.74c.89,2.73,.89,2.73,1,5c-10.98,5.97-22.12,11.52-33.42,16.87c-7.86,3.73-15.69,7.52-23.52,11.32c-4.64,2.25-9.28,4.49-14.06,6.81c-.33,12.87-.66,25.74-1,39c-2.64,0-5.28,0-8,0c-.05-15.09-.08-30.18-.1-45.27c-.01-7.01-.03-14.01-.05-21.02c-.02-6.75-.03-13.51-.04-20.27c0-2.58-.01-5.16-.02-7.75c-.02-3.6-.02-7.21-.02-10.81c0-.54,0-.54-.02-3.27c0-.98,.01-1.96,.01-2.97c0-.42,0-.42-.01-2.58C653,348,653,348,655,346Z" fill="#FC5D25" /><path d="M657.56,595.81C660,596,660,596,661,597c0,2.31,0,4.62,0,7c51.48,0,102.96,0,156,0c0,.33,0,.66,0,1c-51.15,0-102.3,0-155,0c0,29.37,0,58.74,0,89c-.99-.66-1.98-1.32-3-2c-.99,.17-.99,.17-6,1c0-29.04,0-58.08,0-88c-170.94,0-341.88,0-518,0c0-.33,0-.66,0-1c170.94,0,341.88,0,518,0c0-1.98,0-3.96,0-6c2-2,2-2,4.56-2.19Z" fill="#B9B4BB" /></g><g data-h="98.4" data-w="107.9" data-cy="869.1" data-cx="417.3" data-part="part-2"><path d="M415.05,819.98c2.32,.02,4.62-.04,6.94-.11c11.07-.11,16.84,2.35,25.01,10.13c.61,.53,1.21,1.05,1.84,1.59c10.34,9.05,19.08,21.64,21.97,35.22c.09,1.4,.15,2.79,.19,4.19c.06,1.06,.12,2.12,.19,3.22c.39,11.25-1.83,20-9.15,28.71c-12.24,12.39-27.59,15.22-44.35,15.38c-16.43-.07-32.41-2.99-44.64-14.89c-8.48-10.02-10.28-19.57-9.6-32.42c.59-6.61,2.41-12.16,5.55-18c.23-.45,.23-.45,1.4-2.74c3.37-5.9,7.67-10.7,12.41-15.51c.56-.57,1.11-1.13,1.69-1.72c1.78-1.74,3.62-3.39,5.5-5.03c.68-.64,1.36-1.28,2.07-1.94c7.06-5.9,14.18-6.21,22.98-6.08Z" fill="#0B1F3F" /></g><g data-h="786.7" data-w="951.5" data-cy="508.7" data-cx="863.6" data-part="connectors"><path d="M1321.75,124.13c8.28,6.94,13.3,15.57,16.25,25.87c.19,.66,.38,1.33,.58,2.01c2.52,12-.99,25.85-7.58,35.99c-5.33,7.1-11.07,12.05-19,16c-.3,.17-.3,.17-1.81,1.03c-8.25,3.99-20.58,3.23-29.13,.41c-13.02-5.67-21.39-14.85-27.15-27.7c-4.03-12.14-3.24-26.81,2.31-38.25c6-10.89,14.2-17.96,25.78-22.49c13.98-3.81,28.04-1.12,39.75,7.13Z" fill="#0A1E3F" /><path d="M409.02,786.4c1.98,.6,1.98,.6,5.11,2.73C417,791,417,791,420.06,790.94c2.94-.94,2.94-.94,5.44-2.5c3.09-1.78,4.99-1.82,8.5-1.44c.99,.66,1.98,1.32,3,2c2.48,.41,2.48,.41,5.19,.63c.9,.07,1.8,.14,2.73,.22c.69,.05,1.37,.1,2.08,.15c.44,5.13-.52,7.38-3.69,11.38c-4.21,5.38-4.21,5.38-5.13,7.69c-1.13,2.59-2.04,4.07-4.18,5.93c-5.32,1.53-10.49,1.7-16,1.69c-.75,.01-1.5,.01-2.27,.02c-7.48,0-14.21-.18-19.8-5.76c-4.68-6.12-8.85-13-7.93-20.95c.66-.04,1.33-.07,2.01-.11c7.45-.56,7.45-.56,10.62-2.51c2.94-1.71,5.07-1.52,8.39-.98Z" fill="#0B1F3F" /><path d="M1206.66,551.72c.39,0,.39,0,2.34,.01c.79,0,1.58,0,2.4,0c1.67,0,3.35,0,5.02,.01c2.57,.01,5.14,0,7.71-.01c1.62,0,3.25,0,4.87,0c.77,0,1.54,0,2.34-.01c5.43,.05,5.43,.05,7.66,2.28c.2,2.63,.28,5.15,.27,7.78c0,.39,0,.39,0,2.33c0,1.63,0,3.26-.01,4.88c-.01,2.5,0,4.99,.01,7.49c0,1.58,0,3.16,0,4.74c0,.75,0,1.5,.01,2.27c-.05,5.28-.05,5.28-2.28,7.51c-3,.25-3,.25-6,0c-2.4-2.4-2.28-3.07-2.41-6.35c-.02-.43-.02-.43-.12-2.58c-.03-.89-.06-1.78-.09-2.69c-.04-.9-.08-1.8-.12-2.72c-.1-2.22-.18-4.44-.26-6.66c-.82,.85-1.64,1.7-2.49,2.57c-3.05,3.14-6.12,6.27-9.2,9.39c-1.33,1.36-2.65,2.71-3.97,4.08c-1.9,1.95-3.81,3.9-5.73,5.84c-.29,.3-.29,.3-1.77,1.85c-4.14,4.14-4.14,4.14-7.63,4.78C1195,598,1195,598,1193,596c-.49-2.72-.49-2.72,0-6c1.88-2.43,3.64-4.39,5.84-6.49c.59-.59,1.19-1.18,1.8-1.79c1.25-1.24,2.52-2.48,3.79-3.71c1.95-1.89,3.87-3.79,5.8-5.71c1.22-1.2,2.44-2.4,3.67-3.6c.29-.29,.29-.29,1.76-1.74c4.11-3.96,4.11-3.96,6.34-3.96c0-.66,0-1.32,0-2c-.63,.01-1.25,.02-1.9,.03c-2.82,.04-5.65,.07-8.47,.1c-.99,.01-1.97,.03-2.99,.05c-.47,0-.47,0-2.85,.02c-.44,0-.44,0-2.64,.03C1201,561,1201,561,1199,559c-.25-2.5-.25-2.5,0-5c2.55-2.55,4.19-2.25,7.66-2.28Z" fill="#F1F7FD" /><path d="M417.5,837.88C420,838,420,838,421,839c.04,2,.04,4,0,6c1.05,.21,2.1,.41,3.19,.63c4.37,1.27,6.39,3.48,8.81,7.37c.31,3.88,.31,3.88,0,7c-2.31,0-4.62,0-7,0c-.15-.48-.15-.48-.94-2.94C423,854,423,854,420.9,853.27c-2.43-.34-4.46-.59-6.9-.27c-2.35,1.8-2.92,2.55-3.44,5.5c.44,2.5,.44,2.5,2.16,4.07c2.41,1.51,4.41,2.18,7.16,2.87c6.03,1.7,10.71,4.14,14.12,9.56c.91,4.94,.53,8.97-1.75,13.44c-4.68,5.33-4.68,5.33-8.37,5.87c-.62,.23-1.24,.46-1.88,.69c-.33,.99-.66,1.98-1,3c-.33,.99-.66,1.98-1,3c-2,1-2,1-4,1c-2-2-2-2-2.12-4.62c.02-.4,.02-.4,.12-2.38c-.87-.23-1.73-.45-2.62-.69c-4.63-1.8-7.87-4.21-10.82-8.31c-.73-2.6-.28-4.42,.44-7c2.31,0,4.62,0,7,0c.45,.97,.91,1.94,1.38,2.94C411,885,411,885,413,886c2.06,.2,2.06,.2,4.44,.25c.39,.01,.39,.01,2.37,.08c2.71-.41,3.55-1.17,5.19-3.33c.44-2.5,.44-2.5,0-5c-2.99-2.78-6-3.76-9.87-4.87c-6.08-1.95-10.26-3.82-13.5-9.57c-1.13-4.61-1.23-7.4,1-11.68c2.54-3.09,4.88-4.95,8.37-6.88c.99,0,1.98,0,3,0c-.02-.97-.04-1.94-.06-2.94c.08-4.01,.08-4.01,3.56-4.18Z" fill="#F0F1F3" /><path d="M538.55,534.53c5.14,.7,7.89,3.61,11.7,6.97c1.52,1.3,3.04,2.6,4.56,3.89c.73,.63,1.45,1.26,2.2,1.91c2.37,2.02,4.79,3.97,7.24,5.89c6.03,4.8,11.88,9.81,17.75,14.81c2.35,2,4.71,4,7.06,6c.54,.46,1.07,.91,1.63,1.38c2.71,2.3,5.44,4.53,8.31,6.62c-.33,1.65-.66,3.3-1,5c-5.3-1.64-9.32-5.01-13.69-8.31c-1.71-1.28-3.43-2.56-5.14-3.84c-.87-.65-1.73-1.3-2.63-1.96c-3.05-2.27-6.14-4.49-9.24-6.71c-2.96-2.12-5.9-4.26-8.84-6.4c-1.76-1.27-3.52-2.54-5.29-3.81c-2.95-2.12-5.87-4.26-8.79-6.41c-.94-.66-1.87-1.32-2.83-2c-.85-.64-1.71-1.28-2.59-1.93c-.76-.56-1.53-1.11-2.32-1.69C535,542,535,542,534.69,538.84c.4-3.67,.4-3.67,3.86-4.31Z" fill="#FC652B" /><path d="M581,511c2.44,.13,2.44,.13,5,1c2.51,2.88,4.04,5.97,5.61,9.43c.5,1.09,1,2.18,1.52,3.31c.53,1.18,1.07,2.36,1.62,3.57c1.15,2.52,2.3,5.04,3.46,7.55c.3,.66,.6,1.31,.91,1.99c2.3,4.95,4.68,9.86,7.11,14.76c.34,.7,.69,1.4,1.05,2.13c2.74,5.55,2.74,5.55,4.13,8.31c.96,1.91,1.91,3.84,2.86,5.76c.55,1.1,1.11,2.2,1.67,3.33c1.09,2.93,1.24,4.03,.06,6.86c-1.8-.19-1.8-.19-4-1c-1.6-2.15-1.6-2.15-3.14-5c-.57-1.05-1.14-2.09-1.73-3.16c-.6-1.13-1.2-2.25-1.82-3.4c-1.26-2.31-2.52-4.61-3.77-6.92c-.61-1.13-1.22-2.25-1.85-3.41c-1.75-3.23-3.55-6.43-5.38-9.63c-1.8-3.14-3.56-6.31-5.31-9.48c-.22-.4-.22-.4-1.35-2.43c-1.41-2.58-2.82-5.17-4.21-7.76c-.44-.8-.89-1.6-1.34-2.43c-3.89-7.29-3.89-7.29-3.1-11.38c.66-.66,1.32-1.32,2-2Z" fill="#FC642B" /><path d="M628.5,510.69c.41,.05,.41,.05,2.5,.31c2.5,3.74,2.45,6.88,2.63,11.23c.04,.83,.09,1.65,.13,2.5c.13,2.67,.25,5.35,.37,8.02c.08,1.82,.17,3.65,.25,5.47c.59,12.94,.87,25.83,.62,38.78c-1.32,0-2.64,0-4,0c-2.03-11.53-3.56-23.1-4.92-34.72c-.18-1.55-.36-3.1-.54-4.65c-2.3-19.41-2.3-19.41-1.54-24.63c2-2,2-2,4.5-2.31Z" fill="#FC5F27" /><path d="M694,534c2.63,.38,2.63,.38,5,1c-.41,6.31-3.53,11.17-6.56,16.56c-.54,.98-1.09,1.95-1.64,2.95c-1.59,2.84-3.19,5.67-4.8,8.49c-.42,.75-.85,1.5-1.28,2.28c-1.06,1.85-2.13,3.69-3.22,5.53c-.59,1-1.18,2-1.78,3.02C678,576,678,576,675.78,576.82c-.59,.06-1.17,.12-1.78,.18c.57-5.34,2.4-9.43,4.75-14.17c.37-.77,.74-1.53,1.12-2.32c.78-1.6,1.57-3.2,2.36-4.81c1.21-2.45,2.41-4.91,3.6-7.38c.76-1.56,1.53-3.12,2.29-4.68c.36-.74,.72-1.47,1.09-2.23c2.56-5.18,2.56-5.18,4.79-7.41Z" fill="#FB5F29" /><path d="M728,560c.17,.83,.17,.83,1,5c-1.16,.67-2.33,1.35-3.49,2.02c-.76,.44-1.52,.88-2.3,1.33c-1.7,.98-3.39,1.96-5.08,2.94c-4.52,2.61-9.03,5.23-13.52,7.89c-.85,.5-1.71,1.01-2.6,1.53c-1.65,.97-3.3,1.95-4.95,2.94c-.75,.44-1.5,.88-2.28,1.33c-.66,.39-1.32,.78-2,1.18C691,587,691,587,688,587c.07-2.21,.07-2.21,1-5c2.3-1.75,4.44-3.15,6.94-4.56c1.45-.86,2.91-1.73,4.36-2.59c.76-.46,1.53-.91,2.32-1.38c2.47-1.53,4.87-3.14,7.27-4.79c.8-.55,1.6-1.1,2.43-1.66c1.55-1.08,3.1-2.17,4.65-3.26c6.58-4.51,6.58-4.51,11.03-3.76Z" fill="#FC6129" /><path d="M655,691c3.3,.33,4.62,.62,7,3c.26,1.85,.26,1.85,.27,4.06c0,.8,0,1.6,0,2.42c0,.83-.01,1.66-.02,2.52c.01,.83,.02,1.67,.02,2.52c0,.8,0,1.6,0,2.42c-.01,.73-.01,1.46-.01,2.21C662,712,662,712,660,714c-2.5,.25-2.5,.25-5,0c-2.41-2.41-2.26-2.99-2.27-6.28c0-.84,0-1.68,0-2.55c0-.88,.01-1.76,.02-2.67c-.01-.88-.02-1.76-.02-2.67c0-.84,0-1.68,0-2.55c.01-.77,.01-1.54,.01-2.34C653,693,653,693,655,691Z" fill="#F17443" /><path d="M655,658c4.56,.56,4.56,.56,6,2c.1,2.82,.14,5.62,.13,8.44c0,.79,0,1.58,.01,2.39c-.01,5.92-.01,5.92-1.14,8.17c-2.37,.13-2.37,.13-5,0c-2.63-2.63-2.26-4.54-2.27-8.12c0-.79,.01-1.57,.02-2.38c-.01-.79-.02-1.57-.02-2.38c.02-5.87,.02-5.87,2.27-8.12Z" fill="#F26431" /><path d="M657.56,595.81C660,596,660,596,661,597c.13,2.99,.19,5.95,.19,8.94c.01,.83,.02,1.67,.03,2.53c.01,.41,.01,.41,.01,2.43c0,.74,.01,1.48,.01,2.24C661,615,661,615,659,617c-2.56-.25-2.56-.25-5-1c-1.58-3.16-1.18-6.53-1.19-10c-.01-.74-.02-1.47-.03-2.23c-.01-1.93,.1-3.85,.22-5.77c2-2,2-2,4.56-2.19Z" fill="#F6652E" /><path d="M655,506c4.56,.56,4.56,.56,6,2c.13,2.82,.19,5.61,.19,8.44c.01,.79,.02,1.58,.03,2.39c.01,2.06-.1,4.12-.22,6.17c-.66,.66-1.32,1.32-2,2c-4.56-.56-4.56-.56-6-2c-.13-2.82-.19-5.61-.19-8.44c-.01-.79-.02-1.58-.03-2.39c-.01-2.06,.1-4.12,.22-6.17c.66-.66,1.32-1.32,2-2Z" fill="#FC6127" /><path d="M655,536c4.56,.56,4.56,.56,6,2c.13,2.82,.19,5.61,.19,8.44c.01,.79,.02,1.58,.03,2.39c.01,2.06-.1,4.12-.22,6.17c-.66,.66-1.32,1.32-2,2c-2.56-.25-2.56-.25-5-1c-1.58-3.16-1.18-6.53-1.19-10c-.01-.74-.02-1.47-.03-2.23c-.01-1.93,.1-3.85,.22-5.77c.66-.66,1.32-1.32,2-2Z" fill="#FB682F" /><path d="M655,476c4.56,.56,4.56,.56,6,2c.13,2.82,.19,5.61,.19,8.44c.01,.79,.02,1.58,.03,2.39c.01,2.06-.1,4.12-.22,6.17c-.66,.66-1.32,1.32-2,2c-2.93-.37-3.86-.86-6-3c-.2-2.71-.28-5.29-.25-8c-.01-.74-.02-1.47-.02-2.23c.02-5.52,.02-5.52,2.27-7.77Z" fill="#FC6128" /><path d="M660,627c1.58,3.16,1.14,6.54,1.13,10c0,.74,0,1.47,.01,2.23c-.01,5.52-.01,5.52-1.14,7.77c-2.37,.13-2.37,.13-5,0c-2-2-2-2-2.2-5.91c.02-1.57,.04-3.14,.08-4.71c0-.81,.01-1.61,.02-2.43c.03-1.99,.06-3.97,.1-5.95c2.46-1.23,4.28-1.07,7-1Z" fill="#F1612F" /><path d="M655,566c4.56,.56,4.56,.56,6,2c.1,2.84,.14,5.66,.13,8.5c0,.8,0,1.6,.01,2.42c-.01,5.95-.01,5.95-1.14,7.08c-2.44,.19-2.44,.19-5,0c-2.56-2.56-2.26-4.27-2.27-7.77c0-.73,.01-1.47,.02-2.23c-.01-.74-.02-1.47-.02-2.23c.02-5.52,.02-5.52,2.27-7.77Z" fill="#FB6630" /><path d="M548,576c5.91,.53,10.63,2.98,15.88,5.56c.87,.43,1.75,.85,2.66,1.29c2.16,1.04,4.31,2.09,6.46,3.15c-.33,1.32-.66,2.64-1,4c-19.74-3.74-19.74-3.74-25-9c.38-2.62,.38-2.62,1-5Z" fill="#FB652B" /><path d="M418.13,729.25C420,730,420,730,421,731c.1,2.68,.14,5.32,.13,8c0,.75,0,1.5,.01,2.27c-.01,5.6-.01,5.6-1.14,6.73c-2.44,.19-2.44,.19-5,0c-2.86-2.86-2.3-4.95-2.31-8.94c-.02-1.24-.04-2.49-.05-3.77c.36-3.29,.36-3.29,1.75-5.25c1.61-1.04,1.61-1.04,3.74-.79Z" fill="#7F848E" /><path d="M417.5,756.88C420,757,420,757,421,758c.1,2.84,.14,5.66,.13,8.5c0,.8,0,1.6,.01,2.42c-.01,5.95-.01,5.95-1.14,7.08c-2.5,.13-2.5,.13-5,0c-1.89-1.89-1.13-4.58-1.14-7.08c.01-.8,.01-1.6,.02-2.42c-.01-.8-.01-1.6-.02-2.42c.02-7.02,.02-7.02,3.64-7.2Z" fill="#7E848E" /><path d="M653,677c2.31,.33,4.62,.66,7,1c.33,0,.66,0,1,0c0,4.95,0,9.9,0,15c-.99-.16-.99-.16-6-1c-.33,.17-.33,.17-2,1c0-5.28,0-10.56,0-16Z" fill="#E5EEF7" /><path d="M653,645c2.31,.33,4.62,.66,7,1c.33,0,.66,0,1,0c0,4.29,0,8.58,0,13c-1.98,0-3.96,0-6,0c-.33,.17-.33,.17-2,1c0-4.95,0-9.9,0-15Z" fill="#E5EDF6" /><path d="M660,615c.33,0,.66,0,1,0c0,4.29,0,8.58,0,13c-2.31,0-4.62,0-7,0c0-3.96,0-7.92,0-12c1.65,0,3.3,0,5,0c.33-.33,.66-.66,1-1Z" fill="#F7F7F7" /><path d="M655,506c1.32,0,2.64,0,4,0c0,.66,0,1.32,0,2c-.64,.17-1.29,.35-1.95,.52C655,510,655,510,654.39,513.48c-.07,1.38-.11,2.76-.14,4.15c-.03,.7-.06,1.41-.09,2.14c-.07,1.74-.12,3.48-.16,5.23c-.33,0-.66,0-1,0c-.05-2.79-.09-5.58-.12-8.37c-.02-.8-.04-1.59-.06-2.41c-.01-2.07,.08-4.15,.18-6.22c.66-.66,1.32-1.32,2-2Z" fill="#F97643" /><path d="M691,581c.99,.99,1.98,1.98,3,3c-1.31,1.5-1.31,1.5-3,3c-.99,0-1.98,0-3,0c.38-2.44,.38-2.44,1-5c.66-.33,1.32-.66,2-1Z" fill="#FB6F37" /><path d="M569,585c1.32,.33,2.64,.66,4,1c-.33,1.32-.66,2.64-1,4c-.99-.16-.99-.16-6-1c.66-.33,1.32-.66,2-1c.33-.99,.66-1.98,1-3Z" fill="#FB6E36" /><path d="M1231,235c0,3,0,3-1.31,4.39c-1.56,1.2-3.13,2.41-4.69,3.61c0-3,0-3,1.31-4.39c1.57-1.2,3.13-2.41,4.69-3.61Z" fill="#212E4F" /></g></svg>
